<?xml version="1.0" encoding="UTF-8" standalone="no"?>
<!-- Generator: Adobe Illustrator 19.2.1, SVG Export Plug-In . SVG Version: 6.00 Build 0)  -->

<svg
   xmlns:dc="http://purl.org/dc/elements/1.1/"
   xmlns:cc="http://creativecommons.org/ns#"
   xmlns:rdf="http://www.w3.org/1999/02/22-rdf-syntax-ns#"
   xmlns:svg="http://www.w3.org/2000/svg"
   xmlns="http://www.w3.org/2000/svg"
   xmlns:sodipodi="http://sodipodi.sourceforge.net/DTD/sodipodi-0.dtd"
   xmlns:inkscape="http://www.inkscape.org/namespaces/inkscape"
   version="1.1"
   id="svg4590"
   inkscape:version="0.91 r13725"
   sodipodi:docname="Mechalodons-Shark-Logo-Monochrome.svg"
   x="0px"
   y="0px"
   viewBox="0 0 3236.5 2461"
   style="enable-background:new 0 0 3236.5 2461;"
   xml:space="preserve"
   inkscape:export-filename="C:\GIT\website\public\images\Mechalodons-Shark-Logo-Monochrome.png"
   inkscape:export-xdpi="2.632951"
   inkscape:export-ydpi="2.632951"><metadata
     id="metadata4249"><rdf:RDF><cc:Work
         rdf:about=""><dc:format>image/svg+xml</dc:format><dc:type
           rdf:resource="http://purl.org/dc/dcmitype/StillImage" /><dc:title></dc:title></cc:Work></rdf:RDF></metadata><defs
     id="defs4247" /><style
     type="text/css"
     id="style4194">
	.st0{fill:#288B83;}
	.st1{fill:#373535;}
	.st2{fill:#61C6C3;}
	.st3{fill:#FFFFFF;}
</style><sodipodi:namedview
     bordercolor="#666666"
     borderopacity="1.0"
     fit-margin-bottom="0"
     fit-margin-left="0"
     fit-margin-right="0"
     fit-margin-top="0"
     id="base"
     inkscape:current-layer="g4426"
     inkscape:cx="1791.8402"
     inkscape:cy="1391.0481"
     inkscape:document-units="px"
     inkscape:pageopacity="0"
     inkscape:pageshadow="2"
     inkscape:window-height="1057"
     inkscape:window-maximized="1"
     inkscape:window-width="1858"
     inkscape:window-x="54"
     inkscape:window-y="-8"
     inkscape:zoom="0.24748737"
     pagecolor="#ffffff"
     showgrid="false" /><g
     id="layer1"
     transform="translate(2331.4002,608.58966)"
     inkscape:groupmode="layer"
     inkscape:label="Layer 1"><g
       id="g4426"
       transform="matrix(7.5737832,0,0,-7.5737836,-2583.4322,3907.4192)"
       style="fill:#b3b3b3"><g
         id="g4301"
         transform="translate(508.9977,438.7033)"
         style="fill:#cccccc"><path
           style="fill:#cccccc"
           d="M 2133.1348 38.882812 C 1628.6567 40.887919 1149.8574 473.85547 1149.8574 473.85547 C 989.29322 511.72439 912.04161 551.10766 643.92969 725.30469 C 375.81776 899.50171 81.955078 946.45898 81.955078 946.45898 C 442.46716 1313.0301 797.67773 1325.1484 797.67773 1325.1484 C 734.05796 1306.214 706.0332 1257.7422 706.0332 1257.7422 C 797.67598 1294.0963 896.13672 1281.9785 896.13672 1281.9785 C 850.69402 1275.1621 820.39844 1223.6602 820.39844 1223.6602 C 890.83462 1262.2865 1012.0156 1238.8086 1012.0156 1238.8086 C 930.21877 1235.7791 915.82812 1169.1289 915.82812 1169.1289 C 1057.4579 1223.6601 1183.1816 1164.584 1183.1816 1164.584 C 1068.8175 1160.7971 1100.6289 1093.3906 1100.6289 1093.3906 C 1177.1241 1133.5317 1304.3633 1093.3906 1304.3633 1093.3906 C 1234.6845 1094.148 1213.4785 1050.2207 1213.4785 1050.2207 C 1432.3609 932.06968 1647.4551 1080.5156 1647.4551 1080.5156 C 1492.1925 1067.6402 1417.2129 1111.5684 1417.2129 1111.5684 C 1507.3409 1105.5093 1483.1035 1151.709 1483.1035 1151.709 C 1404.3362 1179.732 1319.5098 1157.7676 1319.5098 1157.7676 C 1330.8704 1182.0037 1400.5508 1213.0566 1400.5508 1213.0566 C 1352.8359 1228.9616 1258.1621 1188.0625 1258.1621 1188.0625 C 1274.0671 1225.174 1309.6641 1258.5 1309.6641 1258.5 C 1233.1689 1263.8016 1175.6094 1222.1445 1175.6094 1222.1445 C 1180.911 1271.3741 1220.2949 1310.002 1220.2949 1310.002 C 1145.3145 1316.061 1080.9355 1261.5293 1080.9355 1261.5293 C 1096.0831 1315.3032 1140.7695 1367.5625 1140.7695 1367.5625 C 1058.9727 1370.592 996.10938 1297.125 996.10938 1297.125 C 996.86675 1355.4431 1027.1621 1403.1582 1027.1621 1403.1582 C 953.69641 1424.3648 861.29688 1352.4141 861.29688 1352.4141 C 900.68055 1494.0438 1033.9785 1458.4473 1033.9785 1458.4473 C 1248.3166 1431.939 1593.6816 1197.9102 1593.6816 1197.9102 C 1797.4164 1135.0478 1933.7441 1206.998 1933.7441 1206.998 C 1814.0784 1405.4312 1853.4629 1561.4512 1853.4629 1561.4512 C 1956.4663 1399.3722 2070.0723 1366.0469 2070.0723 1366.0469 C 2039.7771 1567.5095 1845.8887 1685.6602 1845.8887 1685.6602 L 1792.8711 1667.4844 L 1776.209 1722.0156 L 1327.8418 1746.252 C 800.70649 1770.4881 655.28906 2034.0547 655.28906 2034.0547 C 865.84024 1888.638 1041.5527 1912.875 1041.5527 1912.875 C 1340.7172 1916.6619 1373.2852 2024.9668 1373.2852 2024.9668 C 1373.2852 2024.9668 1529.3041 1962.8622 1647.4551 2059.8066 C 1765.6061 2156.7511 1651.2422 2288.5332 1651.2422 2288.5332 C 1911.023 2127.2116 1820.1367 1882.5801 1820.1367 1882.5801 L 1893.6035 1862.1309 L 1921.627 1879.5488 L 1949.6484 1843.9531 C 2165.5013 1786.3924 2359.3906 1675.0586 2359.3906 1675.0586 C 2360.9054 1740.9505 2323.0371 1809.1133 2323.0371 1809.1133 C 2495.7194 1703.8377 2504.8086 1543.2734 2504.8086 1543.2734 C 2690.3663 1331.9649 2693.3945 1079 2693.3945 1079 C 2901.6736 932.82598 3125.8574 991.14453 3125.8574 991.14453 C 2959.9916 795.74091 2654.0117 812.4043 2654.0117 812.4043 C 2373.7817 435.98725 1967.0684 372.36719 1967.0684 372.36719 C 2070.0718 105.01263 2413.1641 87.591797 2413.1641 87.591797 C 2320.8586 52.918069 2226.5566 38.511496 2133.1348 38.882812 z M 2135.2695 79.025391 C 2160.6823 78.928557 2186.1889 79.971544 2211.7031 82.291016 C 2080.6767 99.710718 1720.1629 167.87482 1578.5332 416.29492 C 1578.5332 416.29492 2085.2197 301.93018 2502.5352 704.85547 C 2520.7122 722.27517 2538.133 740.45226 2555.5527 759.38672 C 2557.8249 761.65885 2560.097 764.6888 2562.3691 766.96094 C 2582.8184 789.68229 2603.2671 814.67492 2622.959 840.42578 C 2622.959 840.42578 2188.9804 571.55643 1929.957 615.48438 C 1929.957 615.48438 1936.7737 642.75152 1920.1113 669.25977 C 1920.1113 669.25977 1914.8092 576.85806 1837.5566 513.23828 C 1837.5566 513.23828 1845.1313 523.84158 1852.7051 540.50391 C 1867.0953 572.3138 1883 626.08877 1855.7344 675.31836 C 1855.7344 675.31836 1854.2196 664.71506 1848.918 648.05273 C 1840.5868 622.30187 1823.9243 581.40364 1790.5996 549.59375 C 1790.5996 549.59375 1798.1745 570.04276 1802.7188 600.33789 C 1808.7778 641.23632 1810.2921 701.82661 1781.5117 757.11523 C 1781.5117 757.11523 1785.2986 733.63563 1781.5117 701.06836 C 1776.9674 665.47158 1764.0916 619.27126 1726.2227 581.40234 C 1726.2227 581.40234 1739.8563 604.12479 1748.1875 641.23633 C 1757.276 683.64952 1757.2747 744.99719 1718.6484 811.64648 C 1718.6484 811.64648 1605.7999 876.78037 1461.1406 813.91797 C 1461.1406 813.91797 1445.2355 804.83051 1450.5371 791.95508 C 1452.8092 787.41081 1457.3533 782.8661 1467.1992 777.56445 C 1502.796 758.62999 1578.5332 762.41602 1578.5332 762.41602 C 1578.5332 762.41602 1253.6195 607.15476 927.18945 812.4043 C 927.18945 812.4043 1014.2878 766.20313 1086.9961 766.20312 C 1086.9961 766.20312 956.72632 836.64021 850.69336 938.12891 C 744.66039 1039.6176 626.50931 1063.8535 523.50586 1077.4863 C 523.50586 1077.4863 701.49047 1029.0147 793.89062 850.27344 C 793.89062 850.27344 679.52687 1007.8064 481.09375 1017.6523 C 319.01479 1025.9835 278.87324 1022.9555 166.78125 969.18164 L 166.02344 969.18164 C 166.02344 969.18164 169.81055 968.42296 176.62695 966.9082 L 177.38477 966.9082 C 232.67338 954.79015 485.63676 892.68509 676.49609 762.41602 C 891.59154 614.72724 993.83771 548.07877 1194.543 504.9082 C 1194.543 504.9082 1233.1702 461.73719 1305.1211 401.9043 C 1374.7999 351.15995 1468.7149 289.05576 1577.7773 233.00977 C 1727.5252 156.11219 1928.3366 79.813891 2135.2695 79.025391 z M 1190.3418 817.39258 C 1199.4973 817.46247 1209.0457 817.99158 1218.9863 819.05664 C 1218.9863 819.05664 1112.1955 873.58682 1061.4512 970.53125 C 1061.4512 970.53125 1059.1797 940.99457 1072.8125 914.48633 C 1072.8125 914.48633 1049.3327 915.24263 1019.7949 943.26562 C 1019.7949 943.26562 978.13951 926.60331 850.14258 990.98047 C 920.57876 900.09507 1024.3396 841.77734 1061.4512 828.14453 C 1057.6643 831.17404 1033.429 851.62349 1028.8848 879.64648 C 1028.8848 879.64648 1082.3074 816.56789 1190.3418 817.39258 z M 2705.7129 860.05078 C 2750.5863 860.00991 2790.6109 863.52669 2825.9355 869.20703 C 2906.975 882.08246 2963.0211 906.31945 2996.3457 925.25391 C 3022.0966 939.6441 3034.9727 950.24609 3034.9727 950.24609 C 2980.4414 944.94445 2929.6977 947.21723 2882.7402 954.79102 C 2635.8349 994.93207 2493.4473 1177.4609 2493.4473 1177.4609 C 2450.2767 1138.8346 2388.9297 1125.2012 2388.9297 1125.2012 C 2585.0907 1228.2046 2457.092 1471.3225 2324.5508 1604.6211 C 2247.2982 1681.8737 2123.8468 1741.7079 2033.7188 1777.3047 C 1969.3416 1803.0556 1922.3828 1817.4453 1922.3828 1817.4453 L 1912.5371 1834.8652 L 1889.0586 1825.0176 L 1812.5645 1850.0117 C 1798.1743 1856.0707 1785.2982 1862.1309 1773.9375 1868.9473 C 1698.1997 1915.1473 1692.8984 1978.0098 1692.8984 1978.0098 C 1725.4657 1911.3605 1777.7246 1897.7266 1777.7246 1897.7266 C 1789.0853 1927.2643 1794.3861 1954.5304 1796.6582 1980.2812 C 1796.6582 1993.1567 1795.9015 2006.0317 1794.3867 2020.4219 C 1788.3277 2069.6515 1770.9073 2114.3379 1742.127 2155.2363 C 1740.6122 2144.633 1739.0983 2135.5432 1736.8262 2125.6973 C 1736.0688 2124.1825 1736.0679 2122.6686 1735.3105 2120.3965 C 1735.3105 2119.6391 1734.5547 2118.1246 1734.5547 2117.3672 C 1734.5547 2116.6098 1733.7969 2115.8511 1733.7969 2115.0938 C 1682.2951 1943.1689 1461.1406 1961.3457 1461.1406 1961.3457 C 1517.1866 1881.0636 1612.6152 1885.6094 1612.6152 1885.6094 C 1694.4121 1825.7765 1660.3301 1839.4093 1885.2715 1749.2812 C 2073.8587 1673.5434 2141.2658 1619.0124 2158.6855 1603.1074 L 2163.2305 1598.5625 C 2024.6302 1680.3594 1930.7153 1706.1094 1876.9414 1712.9258 C 1882.2431 1709.8963 1888.3012 1705.352 1895.875 1699.293 C 1967.8259 1679.6011 2079.161 1634.9173 2162.4727 1534.9434 C 2295.7712 1375.1365 2107.9414 1267.5879 2107.9414 1267.5879 C 1978.4297 1305.4568 1918.5961 1382.7088 1892.0879 1433.4531 C 1876.9403 1462.2335 1873.1543 1482.6836 1873.1543 1482.6836 C 1873.1543 1477.3819 1873.1547 1472.8372 1873.9121 1468.293 C 1875.4269 1443.2995 1878.4562 1419.8218 1883.7578 1398.6152 C 1901.1775 1322.8774 1938.2886 1266.8309 1964.7969 1234.2637 C 1982.2166 1213.0571 1995.0918 1201.6953 1995.0918 1201.6953 C 1992.8197 1200.1806 1989.7912 1198.6671 1986.7617 1197.1523 C 1873.155 1128.9883 1705.0156 1147.1641 1705.0156 1147.1641 C 1711.0747 1142.6198 1717.1339 1138.8338 1722.4355 1135.0469 C 1726.2224 1132.7747 1730.7678 1129.7448 1734.5547 1127.4727 C 1744.4006 1122.171 1753.4881 1117.6263 1763.334 1113.082 C 1916.3244 1048.7049 2092.0371 1138.0762 2092.0371 1138.0762 C 2007.2107 1067.64 1864.0664 1050.2207 1864.0664 1050.2207 C 1932.2305 1018.4108 2023.8715 1017.6541 2072.3438 1020.6836 C 2092.793 1021.441 2104.9121 1022.9551 2104.9121 1022.9551 L 2105.6699 1022.9551 C 2360.8117 898.2835 2559.1265 860.18428 2705.7129 860.05078 z M 2170.8047 1388.0117 C 2170.8047 1388.0117 2174.5911 1394.8268 2176.8633 1406.1875 C 2181.4076 1426.6367 2182.1641 1462.235 2154.8984 1500.8613 C 2121.5738 1547.8188 2057.9536 1594.0182 2031.4453 1612.1953 C 2023.8715 1617.497 2018.5703 1620.5273 2018.5703 1620.5273 C 2018.5703 1620.5273 2072.3455 1466.0217 2170.8047 1388.0117 z M 2475.2695 1574.3262 C 2471.4826 1590.2311 2466.9384 1604.6211 2461.6367 1618.2539 C 2426.0399 1714.441 2371.5098 1753.0684 2371.5098 1753.0684 C 2373.7819 1748.5241 2375.2958 1743.222 2376.8105 1738.6777 C 2391.9581 1695.5072 2390.4434 1657.6387 2390.4434 1657.6387 C 2393.4729 1655.3665 2395.7459 1653.0944 2398.7754 1650.8223 C 2414.6803 1637.9468 2429.8277 1623.5566 2442.7031 1609.9238 C 2446.49 1606.1369 2449.5193 1603.1072 2452.5488 1599.3203 C 2466.1816 1584.9301 2475.2695 1574.3262 2475.2695 1574.3262 z M 1804.9902 1756.8555 C 1801.2033 1757.6128 1798.1736 1759.1274 1794.3867 1759.8848 C 1653.5144 1804.5701 1593.6816 1862.1309 1593.6816 1862.1309 C 1495.2225 1856.8292 1415.6973 1953.0156 1415.6973 1953.0156 C 1302.8479 1878.7925 1163.4902 1867.4312 1054.4277 1873.4902 C 949.15215 1879.5493 871.90039 1902.2715 871.90039 1902.2715 C 906.73979 1889.3961 940.82227 1880.3062 974.9043 1872.7324 C 1221.0523 1819.7159 1421 1898.4844 1421 1898.4844 C 1488.4067 1841.681 1583.8359 1839.4082 1583.8359 1839.4082 C 1661.8459 1789.4212 1743.6432 1768.2144 1782.2695 1760.6406 C 1796.6597 1757.6111 1804.9902 1756.8555 1804.9902 1756.8555 z "
           transform="matrix(0.13203441,0,0,-0.1320344,-475.7208,157.56524)"
           id="path4303" /></g><g
         id="g4357"
         transform="translate(203.125,451.125)"
         style="fill:#ffffff" /><g
         id="g4277"
         transform="translate(429.2401,323.7894)"
         style="fill:#b3b3b3"><path
           id="path4279"
           inkscape:connector-curvature="0"
           class="st0"
           d="M-79.2,54.5c-0.4-0.3-0.8-0.6-1.1-0.9c0,0,0.2-4.9-1.8-10.7     c-0.2-0.6-0.4-1.2-0.7-1.9c2,2,3.6,4.1,4.9,6.1c2.2,3.6,3.4,7.1,4,9.7c0.3,1.2,0.4,2.2,0.5,3C-75.1,58.1-77.1,56.2-79.2,54.5"
           style="fill:#b3b3b3" /></g><g
         id="g4281"
         transform="translate(392.4965,364.1252)"
         style="fill:#b3b3b3"><path
           id="path4283"
           inkscape:connector-curvature="0"
           class="st0"
           d="M-71.8,46.4c-11.2-11.2-17.3-23-19.3-27.2     c3.5,2.4,11.9,8.6,16.3,14.7C-71.1,39-71.3,43.7-71.8,46.4"
           style="fill:#b3b3b3" /></g><g
         id="g4289"
         transform="translate(459.75,463.1667)"
         style="fill:#b3b3b3" /><g
         id="g4293"
         transform="translate(168.6133,380.5381)"
         style="fill:#b3b3b3"><path
           id="path4295"
           inkscape:connector-curvature="0"
           class="st1"
           d="M-27.1,43.1l0.6-0.2l0,0.1C-26.7,43.1-26.9,43.1-27.1,43.1"
           style="fill:#b3b3b3" /></g><g
         id="g4297"
         transform="translate(339.7949,327.2637)"
         style="fill:#cccccc"><path
           id="path4299"
           inkscape:connector-curvature="0"
           d="M-61.3,53.8l3.9,6.2c5.4,8.4,11,14,15.5,17.6     C-47,66.2-56,57.9-61.3,53.8 M52.4,124.7c-0.4-7.2-3.4-35.9-25-60.9C26.8,58.9,23.1,40.1,2,27.3L-8.3,21l5.9,10.6     c0,0.1,2.6,4.8,3.8,10.5c-8.9-4.6-27.7-13.7-48.5-19.4l-4.8-6l-5,3l-5.2-1.4c0.8-3.6,1.8-9.7,0.9-17C-62.5-9.3-68-24.2-86.8-35.9     l-18.1-11.3l14,16.1c0.1,0.1,6.4,7.6,5.8,15.5c-0.3,3.9-2.2,7.2-5.8,10.1c-14,11.5-32.8,4.2-33,4.1l-3.4-1.4l-0.8,3.4     c-0.4,0.8-6,12.2-40.8,12.6l-0.4,0c-0.2,0-22.4,2.7-48.7-15.5l-11.2-7.7l6.6,11.9c0.8,1.5,20.9,36.4,91.5,39.7l56.9,3.1l2.5,8.2     l8.6-3c4.5,3.1,20.1,14.9,25.5,32.9C-43,79.7-51.2,73.3-59,61.1l-4-6.3l-1.8,7.2c-0.2,0.9-4.9,20.5,9.1,46     c-6,2.1-20.2,5.5-38.9-0.1c-4.9-3.3-47.1-31.1-74.7-34.6c-7.2-1.8-21.7-0.7-26.5,16.3l-0.3,1.1l-5.3,0.2c-2,0.1-48.7,2.2-96.6,51     l-4.3,4.4l6.1,1c0.4,0.1,38.6,6.4,73,28.7c35.8,23.3,46.1,28.5,67,33.4c3.9,3.4,24.8,21.3,54.2,36.4     c18.8,9.7,37.2,16.1,54.6,19.2c21.9,3.9,42.3,2.3,60.6-4.5l14.4-5.4l-15.4-0.8c-0.4,0-40.3-2.5-54.6-32c5.4-1.2,15.7-4,28.3-9.8     c16.5-7.6,40.1-21.9,59.5-47.3c8.2,0.1,42.9-0.9,63.2-24.8l6.6-7.7l-9.8,2.5C105.1,135.1,77.7,141.8,52.4,124.7 M110.2,141.5     C90,165.1,56.4,167,46.4,167h0c-30.3,39.3-70.1,52.6-85.8,56.5c14.6,26.4,51.3,28.7,51.7,28.7l25,1.3l-23.4,8.8     c-18.7,7-39.4,8.6-61.7,4.6c-17.6-3.1-36.1-9.6-55.2-19.4c-28.7-14.8-49.5-32.2-54.2-36.3c-20.9-5-31.4-10.4-67.2-33.6     c-34-22.1-71.8-28.4-72.2-28.4l-10-1.6l7.1-7.2c48.5-49.3,96-51.5,98-51.6l3.8-0.1c5.2-18.1,20.8-19.3,28.7-17.4     c27.6,3.6,69.2,30.8,75.1,34.8c16.2,4.8,28.7,2.8,35.2,0.8c-13-25.2-8.4-44.5-8.2-45.4l2.3-9l-8.6,3l-2.7-8.9l-55.5-3     c-71.7-3.3-92.3-39.2-93.1-40.7l-10.7-19.3L-217-3.9c25.6,17.7,47.1,15.1,47.3,15.1l0.3,0l0.3,0c31.9-0.4,38.2-10,38.9-11.2     l1-5.5l5.9,2.3c0.2,0.1,17.9,6.9,31-3.8c3.1-2.6,4.8-5.4,5.1-8.7c0.6-7.1-5.2-14-5.3-14.1l-22.7-26.1l29.4,18.3     C-66.3-25.5-60.6-10-59.3,1c0.8,6.4,0.2,11.9-0.5,15.8l2.6,0.7l5.7-3.5l5.5,6.9c17.9,5,34.4,12.4,44.2,17.3     c-1.1-3.3-2.4-5.6-2.4-5.7l-9.5-17.2L3,25.5c21,12.8,25.4,31.3,26.3,37.3c20.7,24.3,24.4,51.9,25,60.7     c24.3,15.9,50.3,9.6,50.6,9.5l15.9-4.1L110.2,141.5L110.2,141.5z"
           style="fill:#cccccc" /></g><g
         id="g4305"
         transform="translate(374.8333,517.1667)"
         style="fill:#b3b3b3"><path
           id="path4307"
           inkscape:connector-curvature="0"
           d="M-68.3,15.8c-0.1,0-0.3,0.1-0.4,0.1c-32.4,10.7-78,1.7-78,1.7     C-131.3,46.5-92.3,60.4-81,64c2,0.6,3.2,0.9,3.2,0.9c-1.9-0.4-3.7-0.9-5.5-1.4c0,0,0,0,0,0c0,0-0.5-0.1-1.3-0.4     C-138.5,48-159.2,8.8-159.2,8.8C-113.2,27.2-68.3,15.8-68.3,15.8"
           style="fill:#b3b3b3" /></g><g
         id="g4309"
         transform="translate(348.5,504.4167)"
         style="fill:#b3b3b3"><path
           id="path4311"
           inkscape:connector-curvature="0"
           d="M-63,18.4c0,0,1.5-2.3,2.1-5.1c0,0,28.1,8.2,86.9-27.9     C26-14.6-20.1,20.6-63,18.4"
           style="fill:#b3b3b3" /></g><g
         id="g4313"
         transform="translate(445.875,406.3125)"
         style="fill:#cccccc"><path
           id="path4315"
           inkscape:connector-curvature="0"
           d="M-82.5,38c0,0-1,2.7-2.8,4.2c0,0,19.5,19.6,54.5,23.8     c0,0-30.4-1.2-63.7-21.6C-94.5,44.5-85.5,41.5-82.5,38"
           style="fill:#cccccc" /></g><g
         id="g4321"
         transform="translate(323.1667,509.3334)"
         style="fill:#b3b3b3"><path
           id="path4323"
           inkscape:connector-curvature="0"
           class="st2"
           d="M-58,17.4c0,0,6.6-10.4,3.3-23.2c0.5-4.3,0-7.4,0-7.4     c3.8,7.3,3.6,15.3,2.8,20.7C-52.9,10.8-54.7,14.7-58,17.4"
           style="fill:#b3b3b3" /></g><g
         id="g4325"
         transform="translate(315.0833,500.5)"
         style="fill:#b3b3b3"><path
           id="path4327"
           inkscape:connector-curvature="0"
           class="st2"
           d="M-56.4,19.2c0,0,8.2-9.9-1.1-29.3c0,0-15.1-6.5-32.8,1     c-0.8-1.7,1.4-2.9,1.4-2.9c19.1-8.3,34,0.3,34,0.3c5.1,8.8,5,16.9,3.9,22.5C-52,13.6-53.7,16.6-56.4,19.2"
           style="fill:#b3b3b3" /></g><g
         id="g4329"
         transform="translate(331.1667,513.3334)"
         style="fill:#b3b3b3"><path
           id="path4331"
           inkscape:connector-curvature="0"
           class="st2"
           d="M-59.6,16.6c0,0,6.8-7.9,5.7-19.4c0.7-2.1,0.9-3.6,0.9-3.6     c3.7,6.5,1.5,13.6-0.4,17.8C-54.5,12.8-56.5,14.6-59.6,16.6"
           style="fill:#b3b3b3" /></g><g
         id="g4337"
         transform="translate(380.8367,427.5417)"
         style="fill:#b3b3b3"><path
           id="path4339"
           inkscape:connector-curvature="0"
           class="st2"
           d="M-69.5,33.7c2.9-0.3,6.6-0.9,9.6-2.1     c0,0,25.4,15.8,49.7,19.8c19.2,3.1,34.5,2.8,48.4-1.2c3.4-1,6.7-2.2,10-3.6c-4.4,2.5-11.9,5.6-22.5,7.4     C5.7,57.2-25.5,55.3-69.5,33.7"
           style="fill:#b3b3b3" /></g><g
         id="g4341"
         transform="translate(357.447,392.5821)"
         style="fill:#b3b3b3"><path
           id="path4343"
           inkscape:connector-curvature="0"
           class="st2"
           d="M-64.8,40.7C-68.4,36.4-73.2,29-75.6,19     c-0.7-2.9-1.1-5.9-1.3-9.2c0-0.6-0.1-1.3-0.1-1.9c0.8,5.6,2.4,10.5,4.3,14.7c6.1,13.3,15.9,19.4,15.9,19.4c-1.7,1.6-4,3.1-4,3.1     S-62.5,43.6-64.8,40.7"
           style="fill:#b3b3b3" /></g><g
         id="g4345"
         transform="translate(404.875,350.8125)"
         style="fill:#b3b3b3"><path
           id="path4347"
           inkscape:connector-curvature="0"
           class="st2"
           d="M-74.3,49.1c0,0-0.1-0.5-0.4-1.3     C-74.4,48.6-74.3,49.1-74.3,49.1"
           style="fill:#b3b3b3" /></g><g
         id="g4349"
         transform="translate(389.4661,331.5995)"
         style="fill:#b3b3b3"><path
           id="path4351"
           inkscape:connector-curvature="0"
           class="st2"
           d="M-71.2,52.9L-71.2,52.9c-2.3-2.1-11.2-9.3-36.1-19.3     c-29.7-11.9-25.2-10.1-36-18c0,0-12.6,0.6-20-10c0,0,9.5,7.3,20.8,6.2c0,0,6.2,5.8,14.2,10.3c10.4,5.8,37.8,14.8,52.4,25     C-64.7,55-60.5,63.8-59.3,67C-60.3,64.6-63.2,59.2-71.2,52.9"
           style="fill:#b3b3b3" /></g><g
         id="g4361"
         transform="translate(208.4659,459.61)"
         style="fill:#b3b3b3"><path
           id="path4363"
           inkscape:connector-curvature="0"
           class="st2"
           d="M-35,27.3C-35,27.4-35,27.4-35,27.3     C-35,27.4-35,27.4-35,27.3"
           style="fill:#b3b3b3" /></g></g></g></svg>