<svg id="Layer_1" data-name="Layer 1" xmlns="http://www.w3.org/2000/svg" viewBox="0 0 1607.86206 269.63066">
  <title>Artboard 2</title>
  <g>
    <path d="M1569.50406,117.29839c-.01538-1.54736-.01733-3.0752.009-4.47644q.01756-.93659.05432-1.78259l16.73547-5.37683-3.23743-46.80713h-4.9613a111.71926,111.71926,0,0,0-14.2019.84167,72.876,72.876,0,0,0-12.103,2.54224c-1.68286.5166-3.28687,1.10083-4.83142,1.73718.23425-.09656.46106-.19958.69861-.29346l-57.0719,22.53846-1.6532-27.2085h-52.63123L1396.1442,77.98955,1342.204,40.54522l.41211,8.63647-34.32031,19.69385c-1.349-.79273-2.71338-1.56323-4.106-2.29041a97.83511,97.83511,0,0,0-14.85681-6.244,103.07877,103.07877,0,0,0-15.93786-3.83264,106.46992,106.46992,0,0,0-14.18384-1.25573l-.07569-.021-.09057.01782c-.76819-.01648-1.53467-.04516-2.30518-.04516a103.87637,103.87637,0,0,0-16.48913,1.30407,97.0548,97.0548,0,0,0-15.5802,3.83264c-2.82727.95276-5.57813,2.048-8.26,3.25379l-.06153.01208-.06653.04712c-2.01928.91187-4.00378,1.87915-5.92956,2.931a82.90663,82.90663,0,0,0-9.65881,6.17054q.42937-.31861.86291-.6327l-35.78809,25.82337a68.63,68.63,0,0,0-17.78-20.12109A87.34213,87.34213,0,0,0,1122.083,64.18486c-2.655-.88281-5.38367-1.646-8.16565-2.30517l-.047-.022-.106-.01233a100.3523,100.3523,0,0,0-22.98035-2.65735l-20.78735-.175h-47.70557l.1521,7.9812-16.45752,22.23364c-.91138-1.21142-1.85351-2.41027-2.85986-3.581a78.55244,78.55244,0,0,0-11.05444-10.521,88.00652,88.00652,0,0,0-13.16114-8.54065,94.82859,94.82859,0,0,0-14.67553-6.244,101.05664,101.05664,0,0,0-15.82654-3.83264,105.88122,105.88122,0,0,0-16.61731-1.30407,104.59048,104.59048,0,0,0-16.5271,1.30407,99.02658,99.02658,0,0,0-15.69141,3.83264,92.33028,92.33028,0,0,0-14.499,6.244,85.34589,85.34589,0,0,0-12.94678,8.54065A76.09984,76.09984,0,0,0,861.31888,85.653a65.144,65.144,0,0,0-7.90948,11.82166,58.16851,58.16851,0,0,0-4.84876,12.82446,55.76834,55.76834,0,0,0-1.21228,6.613q.12314-1.01.282-2.01392c.00458-.02893.00757-.0581.01221-.087l-.00006.00036L843.035,143.46575H819.0427L818.96714,59.013H766.30905l-.4754,124.76623-3.209-.006L673.1265,46.7293l-47.96033,73.779L583.10349,66.74761l.156-7.73462h-52.676L529.782,91.23858,502.7128,65.62395l.18079-6.611H450.22654l-.32685,10.197-7.06836-5.634.191-5.84155-4.55639-.35914q-1.83691-.14282-3.62708-.248-1.7904-.10548-3.53509-.17432-1.745-.06921-3.4455-.10278-1.70077-.03406-3.35834-.03382a139.59338,139.59338,0,0,0-23.46466,1.8783,104.463,104.463,0,0,0-18.577,4.87805,83.70111,83.70111,0,0,0-14.19153,6.74353,71.18541,71.18541,0,0,0-10.298,7.47168c-.215.18848-.4154.38587-.62719.5763L334.73728,64.49736l.23224-5.48437H220.95273l-.30127,5.73389L186.13,47.69072,155.97177,85.50689l-91.299-37.73755L25.96671,187.2022l318.22775,46.81758h12.679l40.69074,8.98926,10.12128-12.85193,14.91729,3.86267h29.92243l-.11365-.58716,2.43433.68787h28.37878l39.4115-.11121V217.61572l28.98,11.855a59.51407,59.51407,0,0,0,6.12714,2.116q3.18786.91407,6.603,1.53394,3.41043.61853,7.01734.93371,3.60195.31367,7.36981.31531.65853,0,1.32208-.00915.66348-.00934,1.33142-.028l247.566-.31274,4.397-17.733a43.35942,43.35942,0,0,0,8.34851,8.81677,53.11267,53.11267,0,0,0,16.11511,8.72314,61.20958,61.20958,0,0,0,19.69763,3.20386,62.55643,62.55643,0,0,0,11.48425-1.05322,58.609,58.609,0,0,0,10.54517-2.99976,53.43133,53.43133,0,0,0,9.30737-4.70605,47.08256,47.08256,0,0,0,7.7732-6.17041l16.01318-15.81446-1.3617,27.73316H971.965a59.36845,59.36845,0,0,0,7.21154-.43677,56.95768,56.95768,0,0,0,6.86145-1.26733,54.14943,54.14943,0,0,0,6.43067-2.03309q1.54688-.59856,3.02844-1.28308,1.48077-.68407,2.891-1.45019,13.015-7.069,26.02918-14.1377a43.24226,43.24226,0,0,0,10.38928,11.6919,54.24088,54.24088,0,0,0,16.26318,8.72314,61.70264,61.70264,0,0,0,19.752,3.20386q2.64735,0,5.22266-.21448,2.573-.21276,5.06128-.62927,2.48584-.41492,4.87378-1.02283,2.38549-.60626,4.65967-1.3949,15.47168-5.35839,30.9425-10.71679a13.42362,13.42362,0,0,0,11.43274,10.83862l.29346.12891h20.00049l25.9032-7.34119,30.00695,21.59277,288.97684-36.95-1.05993-17.44434q18.30359-4.29638,36.60705-8.59277c-.12072.02832-.24145.05-.36218.07788.45593-.10474.91211-.20752,1.3678-.32117a65.97058,65.97058,0,0,0,7.97192-2.514,48.8027,48.8027,0,0,0,9.52-4.91822,38.59377,38.59377,0,0,0,7.43433-6.46533,34.6773,34.6773,0,0,0,5.26172-7.907,36.71151,36.71151,0,0,0,3.00366-9.24243c.5072-2.694.87341-5.45508,1.13489-8.22974.26135-2.77332.41809-5.56006.50622-8.30688.08814-2.74561.10791-5.45118.09522-8.0636-.0127-2.61121-.05774-5.12952-.09912-7.50159C1569.54874,120.41326,1569.51957,118.84612,1569.50406,117.29839Z" style="fill: none;stroke: #ff45e5;stroke-width: 41px"/>
    <path d="M1569.50406,117.29839c-.01538-1.54736-.01733-3.0752.009-4.47644q.01756-.93659.05432-1.78259l16.73547-5.37683-3.23743-46.80713h-4.9613a111.71926,111.71926,0,0,0-14.2019.84167,72.876,72.876,0,0,0-12.103,2.54224c-1.68286.5166-3.28687,1.10083-4.83142,1.73718.23425-.09656.46106-.19958.69861-.29346l-57.0719,22.53846-1.6532-27.2085h-52.63123L1396.1442,77.98955,1342.204,40.54522l.41211,8.63647-34.32031,19.69385c-1.349-.79273-2.71338-1.56323-4.106-2.29041a97.83511,97.83511,0,0,0-14.85681-6.244,103.07877,103.07877,0,0,0-15.93786-3.83264,106.46992,106.46992,0,0,0-14.18384-1.25573l-.07569-.021-.09057.01782c-.76819-.01648-1.53467-.04516-2.30518-.04516a103.87637,103.87637,0,0,0-16.48913,1.30407,97.0548,97.0548,0,0,0-15.5802,3.83264c-2.82727.95276-5.57813,2.048-8.26,3.25379l-.06153.01208-.06653.04712c-2.01928.91187-4.00378,1.87915-5.92956,2.931a82.90663,82.90663,0,0,0-9.65881,6.17054q.42937-.31861.86291-.6327l-35.78809,25.82337a68.63,68.63,0,0,0-17.78-20.12109A87.34213,87.34213,0,0,0,1122.083,64.18486c-2.655-.88281-5.38367-1.646-8.16565-2.30517l-.047-.022-.106-.01233a100.3523,100.3523,0,0,0-22.98035-2.65735l-20.78735-.175h-47.70557l.1521,7.9812-16.45752,22.23364c-.91138-1.21142-1.85351-2.41027-2.85986-3.581a78.55244,78.55244,0,0,0-11.05444-10.521,88.00652,88.00652,0,0,0-13.16114-8.54065,94.82859,94.82859,0,0,0-14.67553-6.244,101.05664,101.05664,0,0,0-15.82654-3.83264,105.88122,105.88122,0,0,0-16.61731-1.30407,104.59048,104.59048,0,0,0-16.5271,1.30407,99.02658,99.02658,0,0,0-15.69141,3.83264,92.33028,92.33028,0,0,0-14.499,6.244,85.34589,85.34589,0,0,0-12.94678,8.54065A76.09984,76.09984,0,0,0,861.31888,85.653a65.144,65.144,0,0,0-7.90948,11.82166,58.16851,58.16851,0,0,0-4.84876,12.82446,55.76834,55.76834,0,0,0-1.21228,6.613q.12314-1.01.282-2.01392c.00458-.02893.00757-.0581.01221-.087l-.00006.00036L843.035,143.46575H819.0427L818.96714,59.013H766.30905l-.4754,124.76623-3.209-.006L673.1265,46.7293l-47.96033,73.779L583.10349,66.74761l.156-7.73462h-52.676L529.782,91.23858,502.7128,65.62395l.18079-6.611H450.22654l-.32685,10.197-7.06836-5.634.191-5.84155-4.55639-.35914q-1.83691-.14282-3.62708-.248-1.7904-.10548-3.53509-.17432-1.745-.06921-3.4455-.10278-1.70077-.03406-3.35834-.03382a139.59338,139.59338,0,0,0-23.46466,1.8783,104.463,104.463,0,0,0-18.577,4.87805,83.70111,83.70111,0,0,0-14.19153,6.74353,71.18541,71.18541,0,0,0-10.298,7.47168c-.215.18848-.4154.38587-.62719.5763L334.73728,64.49736l.23224-5.48437H220.95273l-.30127,5.73389L186.13,47.69072,155.97177,85.50689l-91.299-37.73755L25.96671,187.2022l318.22775,46.81758h12.679l40.69074,8.98926,10.12128-12.85193,14.91729,3.86267h29.92243l-.11365-.58716,2.43433.68787h28.37878l39.4115-.11121V217.61572l28.98,11.855a59.51407,59.51407,0,0,0,6.12714,2.116q3.18786.91407,6.603,1.53394,3.41043.61853,7.01734.93371,3.60195.31367,7.36981.31531.65853,0,1.32208-.00915.66348-.00934,1.33142-.028l247.566-.31274,4.397-17.733a43.35942,43.35942,0,0,0,8.34851,8.81677,53.11267,53.11267,0,0,0,16.11511,8.72314,61.20958,61.20958,0,0,0,19.69763,3.20386,62.55643,62.55643,0,0,0,11.48425-1.05322,58.609,58.609,0,0,0,10.54517-2.99976,53.43133,53.43133,0,0,0,9.30737-4.70605,47.08256,47.08256,0,0,0,7.7732-6.17041l16.01318-15.81446-1.3617,27.73316H971.965a59.36845,59.36845,0,0,0,7.21154-.43677,56.95768,56.95768,0,0,0,6.86145-1.26733,54.14943,54.14943,0,0,0,6.43067-2.03309q1.54688-.59856,3.02844-1.28308,1.48077-.68407,2.891-1.45019,13.015-7.069,26.02918-14.1377a43.24226,43.24226,0,0,0,10.38928,11.6919,54.24088,54.24088,0,0,0,16.26318,8.72314,61.70264,61.70264,0,0,0,19.752,3.20386q2.64735,0,5.22266-.21448,2.573-.21276,5.06128-.62927,2.48584-.41492,4.87378-1.02283,2.38549-.60626,4.65967-1.3949,15.47168-5.35839,30.9425-10.71679a13.42362,13.42362,0,0,0,11.43274,10.83862l.29346.12891h20.00049l25.9032-7.34119,30.00695,21.59277,288.97684-36.95-1.05993-17.44434q18.30359-4.29638,36.60705-8.59277c-.12072.02832-.24145.05-.36218.07788.45593-.10474.91211-.20752,1.3678-.32117a65.97058,65.97058,0,0,0,7.97192-2.514,48.8027,48.8027,0,0,0,9.52-4.91822,38.59377,38.59377,0,0,0,7.43433-6.46533,34.6773,34.6773,0,0,0,5.26172-7.907,36.71151,36.71151,0,0,0,3.00366-9.24243c.5072-2.694.87341-5.45508,1.13489-8.22974.26135-2.77332.41809-5.56006.50622-8.30688.08814-2.74561.10791-5.45118.09522-8.0636-.0127-2.61121-.05774-5.12952-.09912-7.50159C1569.54874,120.41326,1569.51957,118.84612,1569.50406,117.29839Z" style="fill: none;stroke: #000;stroke-width: 29px"/>
    <path d="M1569.50406,117.29839c-.01538-1.54736-.01733-3.0752.009-4.47644q.01756-.93659.05432-1.78259l16.73547-5.37683-3.23743-46.80713h-4.9613a111.71926,111.71926,0,0,0-14.2019.84167,72.876,72.876,0,0,0-12.103,2.54224c-1.68286.5166-3.28687,1.10083-4.83142,1.73718.23425-.09656.46106-.19958.69861-.29346l-57.0719,22.53846-1.6532-27.2085h-52.63123L1396.1442,77.98955,1342.204,40.54522l.41211,8.63647-34.32031,19.69385c-1.349-.79273-2.71338-1.56323-4.106-2.29041a97.83511,97.83511,0,0,0-14.85681-6.244,103.07877,103.07877,0,0,0-15.93786-3.83264,106.46992,106.46992,0,0,0-14.18384-1.25573l-.07569-.021-.09057.01782c-.76819-.01648-1.53467-.04516-2.30518-.04516a103.87637,103.87637,0,0,0-16.48913,1.30407,97.0548,97.0548,0,0,0-15.5802,3.83264c-2.82727.95276-5.57813,2.048-8.26,3.25379l-.06153.01208-.06653.04712c-2.01928.91187-4.00378,1.87915-5.92956,2.931a82.90663,82.90663,0,0,0-9.65881,6.17054q.42937-.31861.86291-.6327l-35.78809,25.82337a68.63,68.63,0,0,0-17.78-20.12109A87.34213,87.34213,0,0,0,1122.083,64.18486c-2.655-.88281-5.38367-1.646-8.16565-2.30517l-.047-.022-.106-.01233a100.3523,100.3523,0,0,0-22.98035-2.65735l-20.78735-.175h-47.70557l.1521,7.9812-16.45752,22.23364c-.91138-1.21142-1.85351-2.41027-2.85986-3.581a78.55244,78.55244,0,0,0-11.05444-10.521,88.00652,88.00652,0,0,0-13.16114-8.54065,94.82859,94.82859,0,0,0-14.67553-6.244,101.05664,101.05664,0,0,0-15.82654-3.83264,105.88122,105.88122,0,0,0-16.61731-1.30407,104.59048,104.59048,0,0,0-16.5271,1.30407,99.02658,99.02658,0,0,0-15.69141,3.83264,92.33028,92.33028,0,0,0-14.499,6.244,85.34589,85.34589,0,0,0-12.94678,8.54065A76.09984,76.09984,0,0,0,861.31888,85.653a65.144,65.144,0,0,0-7.90948,11.82166,58.16851,58.16851,0,0,0-4.84876,12.82446,55.76834,55.76834,0,0,0-1.21228,6.613q.12314-1.01.282-2.01392c.00458-.02893.00757-.0581.01221-.087l-.00006.00036L843.035,143.46575H819.0427L818.96714,59.013H766.30905l-.4754,124.76623-3.209-.006L673.1265,46.7293l-47.96033,73.779L583.10349,66.74761l.156-7.73462h-52.676L529.782,91.23858,502.7128,65.62395l.18079-6.611H450.22654l-.32685,10.197-7.06836-5.634.191-5.84155-4.55639-.35914q-1.83691-.14282-3.62708-.248-1.7904-.10548-3.53509-.17432-1.745-.06921-3.4455-.10278-1.70077-.03406-3.35834-.03382a139.59338,139.59338,0,0,0-23.46466,1.8783,104.463,104.463,0,0,0-18.577,4.87805,83.70111,83.70111,0,0,0-14.19153,6.74353,71.18541,71.18541,0,0,0-10.298,7.47168c-.215.18848-.4154.38587-.62719.5763L334.73728,64.49736l.23224-5.48437H220.95273l-.30127,5.73389L186.13,47.69072,155.97177,85.50689l-91.299-37.73755L25.96671,187.2022l318.22775,46.81758h12.679l40.69074,8.98926,10.12128-12.85193,14.91729,3.86267h29.92243l-.11365-.58716,2.43433.68787h28.37878l39.4115-.11121V217.61572l28.98,11.855a59.51407,59.51407,0,0,0,6.12714,2.116q3.18786.91407,6.603,1.53394,3.41043.61853,7.01734.93371,3.60195.31367,7.36981.31531.65853,0,1.32208-.00915.66348-.00934,1.33142-.028l247.566-.31274,4.397-17.733a43.35942,43.35942,0,0,0,8.34851,8.81677,53.11267,53.11267,0,0,0,16.11511,8.72314,61.20958,61.20958,0,0,0,19.69763,3.20386,62.55643,62.55643,0,0,0,11.48425-1.05322,58.609,58.609,0,0,0,10.54517-2.99976,53.43133,53.43133,0,0,0,9.30737-4.70605,47.08256,47.08256,0,0,0,7.7732-6.17041l16.01318-15.81446-1.3617,27.73316H971.965a59.36845,59.36845,0,0,0,7.21154-.43677,56.95768,56.95768,0,0,0,6.86145-1.26733,54.14943,54.14943,0,0,0,6.43067-2.03309q1.54688-.59856,3.02844-1.28308,1.48077-.68407,2.891-1.45019,13.015-7.069,26.02918-14.1377a43.24226,43.24226,0,0,0,10.38928,11.6919,54.24088,54.24088,0,0,0,16.26318,8.72314,61.70264,61.70264,0,0,0,19.752,3.20386q2.64735,0,5.22266-.21448,2.573-.21276,5.06128-.62927,2.48584-.41492,4.87378-1.02283,2.38549-.60626,4.65967-1.3949,15.47168-5.35839,30.9425-10.71679a13.42362,13.42362,0,0,0,11.43274,10.83862l.29346.12891h20.00049l25.9032-7.34119,30.00695,21.59277,288.97684-36.95-1.05993-17.44434q18.30359-4.29638,36.60705-8.59277c-.12072.02832-.24145.05-.36218.07788.45593-.10474.91211-.20752,1.3678-.32117a65.97058,65.97058,0,0,0,7.97192-2.514,48.8027,48.8027,0,0,0,9.52-4.91822,38.59377,38.59377,0,0,0,7.43433-6.46533,34.6773,34.6773,0,0,0,5.26172-7.907,36.71151,36.71151,0,0,0,3.00366-9.24243c.5072-2.694.87341-5.45508,1.13489-8.22974.26135-2.77332.41809-5.56006.50622-8.30688.08814-2.74561.10791-5.45118.09522-8.0636-.0127-2.61121-.05774-5.12952-.09912-7.50159C1569.54874,120.41326,1569.51957,118.84612,1569.50406,117.29839Z"/>
  </g>
  <g>
    <path d="M1119.20123,174.98776c.60132-.17346,1.19336-.36017,1.78638-.5459.19055-.05963.38428-.1145.574-.17541.15894-.05109.32288-.09516.48121-.1471.03149-.01031.06152-.02228.093-.03259q1.4425-.47516,2.84912-.99945c.2544-.09448.50318-.19586.75586-.29267q1.02868-.39431,2.03931-.81128c.13232-.055.26978-.10412.40161-.15979.18677-.07885.366-.1665.55176-.24664q.91845-.39633,1.81909-.81347c.30664-.14191.61377-.283.917-.42835q.99829-.47836,1.97071-.9837c.16992-.08777.34668-.16834.51538-.25721.042-.02209.08178-.04638.12378-.06854q1.26012-.66658,2.47876-1.37433,1.48809-.864,2.91113-1.78723c.23816-.15442.46557-.31793.70093-.47479.70556-.47034,1.40319-.94739,2.083-1.43884.32264-.23328.636-.47376.95264-.71173.35291-.26514.71631-.52216,1.06152-.793.22168-.17383.42969-.35749.64808-.53357q.485-.39111.95935-.78992.81609-.68545,1.59863-1.394c.29053-.2619.58374-.52191.86767-.78815.44288-.41534.8711-.8396,1.29749-1.26532l.00012-.00006c.12573-.12561.25171-.2511.3761-.37762.20471-.20819.41834-.41095.61926-.62159.04566-.048.09546-.0935.141-.1416q1.0265-1.08435,1.97938-2.21063c.137-.16138.2622-.329.397-.49158.44665-.53881.894-1.07727,1.31543-1.62909.083-.10858.15661-.22161.23852-.33068.21643-.28809.42054-.58216.63-.87366l.02185-.03021v-.00006c.24853-.34638.50976-.68665.74841-1.03772.13611-.20038.25672-.40784.38965-.60968.34973-.53107.69824-1.06257,1.025-1.6037.03418-.05652.07056-.11194.1045-.16858.187-.31281.35327-.6341.53271-.95014.03516-.062.06958-.12439.10449-.18652v-.00006c.18531-.33.37842-.65662.55518-.99.04138-.07807.08911-.15357.13-.23188.0326-.06231.05945-.12683.0918-.18927q.54621-1.05688,1.03577-2.13494c.05615-.12427.10913-.24982.16406-.37452.12061-.27319.226-.55169.34082-.8269V141.664c.18652-.4466.38171-.89014.553-1.3418.01758-.04626.03711-.09173.05456-.13806.28284-.7533.53821-1.51538.778-2.282.04614-.14759.09314-.29486.13769-.44294q.33875-1.12545.61548-2.26861c.0127-.05231.02979-.10333.04224-.15576.02026-.08539.03271-.17279.05249-.2583.10791-.46875.19543-.94281.28735-1.41571l.00012-.00116c.06006-.30909.13465-.61438.18775-.92517.00452-.02607.01025-.0517.01465-.07776.135-.8003.2395-1.60785.32751-2.41895.01648-.15155.03418-.30273.049-.45465q.11517-1.18222.16272-2.37836c.00586-.14807.0083-.29663.01245-.445.02393-.83179.031-1.66681.00452-2.50763-.02222-.70551-.07874-1.40448-.1355-2.10334q-.11243-1.3829-.31348-2.747c-.03381-.22986-.05285-.463-.09045-.692q-.22393-1.36652-.53491-2.71222c-.12793-.55438-.28662-1.10059-.436-1.64923v-.00006c-.00976-.03607-.0188-.07239-.02868-.10846-.00965-.0351-.01819-.0705-.028-.10559-.02942-.106-.05407-.21332-.08435-.31915-.037-.129-.06482-.2605-.1029-.38923-.01-.034-.01746-.06872-.02759-.10272V113.223c-.30567-1.02332-.65894-2.03247-1.03784-3.03369v-.00006q-.48028-1.2692-1.03577-2.51337h-.00012c-.42627-.953-.89111-1.89209-1.38233-2.82111-.31787-.60083-.634-1.20227-.97827-1.79254a58.55752,58.55752,0,0,0-15.53613-17.09765c-.03638-.02735-.07031-.05652-.10681-.08381q-2.46075-1.84332-5.14038-3.50415a76.54021,76.54021,0,0,0-8.37293-4.489q-1.47071-.67593-2.98486-1.29907-3.02711-1.24576-6.21533-2.27148-1.59192-.51151-3.22022-.96528-3.256-.907-6.64624-1.57409a91.45471,91.45471,0,0,0-17.6062-1.69739l-3.37817-.0271-2.81958-.02258-14.60767-.11707h-37.77954l.70117,35.14795.05,2.51428.05811,2.9065.25647,12.86078.0465,2.33032.05079,2.54877.00366.183.06592,3.30871.04406,2.2038.02015,1.01386.02636,1.31579.04871,2.44519.04358,2.18256.0664,3.33026.1128,5.65265.32776,16.435.004.19915.12867,6.45435.03222,1.6123v.00007l.06922,3.4707.00622.31274.00134.06623h59.1482c.95361,0,1.89831-.02662,2.842-.05536.16687-.00507.33606-.00379.50256-.00977.34961-.01251.69629-.033,1.04444-.04938q1.03052-.04851,2.05212-.12036h.00012c.07971-.00555.1604-.00836.24024-.0141q.583-.042,1.1632-.09185,1.11714-.09495,2.22217-.2179c.35352-.03882.70838-.07471,1.05994-.11755.28625-.03485.56763-.08008.85254-.11762h.00012c.07556-.01.15064-.02106.2262-.03119.56982-.07654,1.14184-.14837,1.70654-.23535.135-.02075.27222-.03686.40674-.05829,1.052-.167,2.0935-.35516,3.127-.5578.03064-.006.062-.0105.09277-.01654.27735-.05469.54957-.11822.82557-.17541.73156-.15174,1.45959-.30988,2.181-.47913.35888-.08417.71582-.17194,1.07214-.26044q1.02686-.25506,2.0387-.53418C1118.53253,175.17416,1118.86871,175.08377,1119.20123,174.98776Zm-14.772-24.11517c-.4043.139-.81665.27118-1.23157.40094-.17444.05456-.34143.11566-.51794.16858-.06763.02032-.13916.037-.207.05712-.17774.05249-.36255.0987-.54224.1496-.31372.08881-.62769.17755-.947.26129-.18018.0473-.35523.09894-.53723.14459-.516.12946-1.046.24622-1.5763.3628-.17224.03784-.33813.08142-.512.11786l-.01428.00329c-.02063.00434-.04016.00965-.06067.014-.14258.02972-.292.053-.43555.08185q-.74378.14933-1.50488.28277c-.062.01081-.12146.02387-.18359.03449-.26575.04559-.5376.08539-.80664.12793-.48194.07623-.96631.15014-1.4585.21673-.11914.01612-.23315.03687-.35278.05243-.18262.02375-.37329.03992-.55738.06238-.17187.02094-.34741.03839-.52038.05823q-.15455.01767-.30982.03473c-.05627.00616-.11218.01282-.1687.01886-.149.016-.29553.03467-.44543.04986-.16675.01691-.3274.03962-.49536.05542l-.01905.00147c-.14282.01349-.2915.02106-.43506.03375-.49755.044-1.00122.082-1.508.11694-.312.02155-.62268.04432-.93823.06238-.55762.03192-1.12366.0553-1.69214.07642-.0669.0025-.13208.00671-.1991.009-.06751.00238-.13306.00684-.20081.009-.08325.00269-.16333.00867-.24682.01117-.05518.00165-.11267.00086-.168.00245-.84619.02355-1.70178.03771-2.57117.03771h-.00036c-.56055,0-1.1333-.0119-1.70362-.02148-.281-.00476-.55615-.00348-.8396-.01056-.032-.00079-.06506-.00275-.097-.0036q-1.24091-.03213-2.50989-.09351-1.31928-.06518-2.66943-.16394c-.79456-.05822-1.6001-.129-2.41016-.20514-.10742-.01013-.21191-.01678-.3197-.02722l-3.67432-.35418-.85266-.08216v-.00006l-.00977-.42724-.008-.35718-.09082-3.96277-.042-1.84082-.16871-7.36816-.33984-14.8537-.02429-1.06305-.21765-9.51624-.06446-2.81152-.02246-.98761-.057-2.48969-.06385-2.78912-.03442-1.50079-.02637-1.15631-.05749-2.51355-.08631-3.77338-.00488-.20856v-.00006l.23169-.02179,2.12573-.20019,2.1355-.20111.01245-.001c.74964-.07019,1.48535-.12934,2.21411-.18292l.0481-.004c.06738-.005.13769-.01215.205-.01691.05945-.00421.11634-.00635.17566-.0105.34644-.02405.68335-.04077,1.02491-.06122.35156-.02093.708-.04583,1.05444-.06292.0481-.00238.09814-.00641.146-.00873.02856-.00141.05578-.00171.08435-.00305.053-.00251.10363-.00324.15637-.00568.25561-.01166.5039-.01788.75659-.02747h.00012c.41394-.01568.8324-.03472,1.23889-.045.02857-.00073.0586-.0025.087-.00317.03149-.0008.0614-.00043.0929-.00116q1.066-.02481,2.09912-.0257l.05444-.00067h.00012c1.04944,0,2.06677.02307,3.06592.05872.31555.01129.62085.02929.93152.04394.68213.03223,1.35547.07044,2.01416.11853q.50536.0369,1.00073.08.96095.083,1.88672.189c.28955.03278.583.06287.86768.0987q1.17973.14831,2.30456.32971c.07886.01276.16394.02167.24243.03467l.03467.00653c.83679.13885,1.64649.29333,2.43811.45776.0603.01257.12573.02222.18579.03491.177.03736.34009.0821.51489.12067.12354.02728.24158.0575.364.08533.4237.09637.84888.19183,1.2594.2951.265.06665.52551.1352.785.20459q.74525.19932,1.46021.41315c.23535.07019.4729.139.70337.21136.56433.17707,1.11279.361,1.64917.55024.09838.03472.20507.06591.30273.101.0188.00683.03589.0144.05493.02124.64575.2334,1.2688.47583,1.87451.72479.17273.071.33643.1449.506.217.431.18347.8551.36933,1.26574.55957.19983.09253.3949.18616.59.28022q.56415.2719,1.10168.551c.10877.0564.227.11023.33411.167.06921.03669.131.075.19946.11188.40174.216.79.435,1.16956.656.08716.05078.18274.09973.2688.15069.02075.01233.03918.02509.05993.03742.44666.26586.87439.53509,1.29029.80584.0299.01947.06311.03858.09289.05805.02149.014.04541.02765.06677.04168.08216.05414.15528.10914.23633.1634.333.223.65784.44665.97083.67132.136.0976.26855.19489.40075.29266q.4206.31065.81629.62189c.11389.08948.23.17853.34082.26795.35754.28814.70434.57617,1.03174.86236l.007.00586.00427.00385c.19238.16821.37451.3424.56152.51379.132.121.26734.24023.39649.36279q.11169.10575.22216.212c.09522.0921.18531.187.27906.27991.20715.20526.417.40893.6167.61816.03442.03613.06738.07324.10168.1095.16565.17529.32336.35449.48376.53241h.00013c.0415.046.08386.09149.12512.13763.40625.45636.80176.918,1.17334,1.39075.04932.06262.09363.12738.14233.19031.07117.09222.13855.18615.2085.279q.06372.08459.12671.16943c.35693.481.7.96771,1.021,1.46332.024.03723.05066.07355.07459.11084.15881.24774.30627.49957.45593.75067q.29535.49539.56653.999c.06189.11469.12439.22895.18445.34424.0542.10419.114.20654.16675.31128.24023.47766.45922.96185.66723,1.44916.0459.1073.08777.2157.13208.32342.24829.60474.478,1.21442.67627,1.83173.00708.02173.01563.043.02246.06482q.20417.64169.37232,1.29126c.05249.2038.09338.40985.14038.61468.02759.11982.05664.23926.08227.35938q.199.93328.32227,1.87878c.01514.11768.02661.236.04.35389.07519.65734.13135,1.31707.1499,1.98065q.02051.72848.00513,1.4458c-.00049.02118-.00244.04193-.00293.06311-.00354.14758-.01465.29272-.02051.43957q-.009.23337-.02148.46552c-.03467.6239-.08228,1.24347-.15784,1.85315l-.00525.035c-.00488.03925-.01245.07746-.01758.11658-.04077.31378-.08935.62469-.14087.93451-.01587.09521-.02636.19238-.04321.28723-.03125.17566-.07251.34753-.1073.52185-.02918.14673-.05859.29334-.09021.43909-.02795.12823-.04968.25891-.07947.38641-.10937.4679-.23315.92993-.368,1.38745-.01831.0622-.04065.1228-.05945.18476-.09973.32879-.20227.65643-.31506.97961v.00006c-.07007.2005-.14966.39673-.22473.595-.05091.13422-.101.26868-.15418.40186-.04284.10736-.07983.21728-.12427.324-.18627.44818-.3883.88922-.60107,1.32526-.0376.07739-.08008.15253-.11865.22955-.24024.47943-.49829.9502-.77039,1.41413l-.0094.01605-.00012.00012c-.06824.116-.13489.23291-.2052.3479-.28833.47284-.58777.94006-.90967,1.39557-.02783.03918-.05859.0766-.08667.1156-.01758.02478-.037.04865-.05481.07336l-.00708.00946c-.12317.17072-.25146.33869-.37951.50684-.116.15259-.22828.30719-.34839.45764-.16785.2107-.34522.41614-.52075.62256-.11731.13812-.23023.27869-.35108.41486-.19824.22351-.40686.44116-.61413.65942-.10108.10638-.19617.21625-.2992.32135l-.022.02112q-.48285.4909-.99634.96356c-.42578.39179-.869.77026-1.3241,1.13965-.04016.03253-.079.06616-.11926.09857-.43616.35016-.88782.68836-1.35022,1.01807l-.00012.00012c-.03906.02789-.075.05847-.11438.08624-.02454.01728-.05115.03284-.07581.05q-.67841.476-1.395.92182c-.04809.03015-.09326.06268-.14184.09265q-.77325.47781-1.5907.92028c-.03162.01722-.06079.03632-.09241.05347-.13952.07544-.28857.14307-.42981.217l-.001.00055c-.37976.19873-.76209.39527-1.15479.58331-.21765.10425-.441.20362-.66272.30457-.364.16589-.73132.32886-1.10595.48584-.10828.04535-.21058.09583-.31971.14044-.131.05353-.26989.10022-.40222.15271q-.56323.22349-1.142.43366c-.14538.05291-.28393.11187-.43078.16363-.08032.02826-.16565.05225-.24634.0802C1104.476,150.85782,1104.45221,150.86471,1104.42926,150.87259Z" style="fill: #00f4ff"/>
    <path d="M1328.504,152.39248c.01672-.02575.03174-.0523.04846-.07806.17541-.27142.34-.54755.50989-.82147.17944-.28943.3656-.576.53881-.86817.09278-.15661.18433-.31366.276-.47076.037-.06336.07482-.12628.11132-.18988l.00086-.00147c.40918-.71478.80383-1.43567,1.17517-2.16583.02283-.0448.04944-.08813.07214-.133l.01209-.02582c.02771-.055.05041-.11176.078-.16675q.54273-1.08728,1.02661-2.19659l.00147-.00324c.09716-.22211.18908-.44592.28283-.66925l.0022-.00525c.16687-.39752.31848-.80011.47424-1.20148.08594-.22161.17945-.44073.26185-.66351l.00231-.006c.07911-.21369.1615-.42609.23743-.64087l.0011-.00305c.28723-.81244.55518-1.631.796-2.4577.04041-.13874.07361-.27948.11267-.41858.08093-.28809.14624-.58057.22156-.87024l.00012-.00006c.1084-.41724.22254-.83271.319-1.25324.02649-.11523.05066-.231.076-.3465.02979-.135.06055-.26977.08911-.40515.0232-.1101.03955-.222.062-.33227.11914-.58576.23328-1.17285.3291-1.76453l.00123-.00714c.02685-.1662.05981-.33075.08483-.49738l.00037-.00238c.1023-.68115.17481-1.3692.24561-2.05761.01806-.17627.04675-.35022.06274-.527l.00024-.00269c.0199-.21917.03174-.43994.04847-.65979l.00036-.00537c.0105-.13928.01343-.28015.0221-.41986l.00085-.0163c.03-.45629.05615-.91326.07227-1.37243l.00024-.00562c.00318-.07794.01-.1549.01245-.233.00464-.1571.00794-.31439.012-.47162.00244-.0968.0061-.19336.00732-.2904v-.00159c.01111-.88635.00513-1.77606-.03662-2.67194v-.00671a46.18261,46.18261,0,0,0-.49512-4.78686V120.198c-.19653-1.29083-.43054-2.57635-.73486-3.85052v-.00006q-.32482-1.359-.72742-2.704c-.051-.16925-.11572-.33576-.16858-.50464-.384-1.22485-.82617-2.43732-1.30908-3.64056q-.68042-1.69528-1.47949-3.36121-.80145-1.6647-1.735-3.29266-.75092-1.30527-1.58215-2.58533c-.79468-1.22345-1.663-2.42169-2.56567-3.60706-.9856-1.29443-2.016-2.57214-3.12781-3.81628a69.6343,69.6343,0,0,0-6.76819-6.57971c-.30615-.261-.62134-.51709-.93384-.77478-.65991-.54419-1.32056-1.08814-2.00806-1.61725-.13574-.10431-.27819-.20068-.41455-.30414-2.10766-1.59851-4.30712-3.0874-6.57934-4.47833-1.62525-.99481-3.27905-1.95069-4.97974-2.83649-.39892-.20782-.80957-.39758-1.21252-.59936-2.28333-1.14331-4.6322-2.18146-7.02844-3.1308q-1.48132-.58695-2.98975-1.12152c-.68921-.24408-1.37622-.49243-2.07373-.71955q-1.73236-.564-3.49512-1.06073-1.76257-.49649-3.55285-.92474-1.78986-.4281-3.60535-.787-1.81494-.3588-3.65247-.64776c-1.424-.22382-2.86-.40607-4.30163-.56592h-.00025c-1.10644-.12262-2.21594-.2323-3.3313-.31684q-3.64672-.2763-7.34594-.28112c-1.19922,0-2.39258.02569-3.58106.06994-.38611.01435-.76855.04157-1.15332.06055-.79956.03949-1.59863.08154-2.39258.14093-.45788.03424-.91211.07947-1.36816.1203-.71765.06427-1.43445.13147-2.147.212-.47827.054-.95349.11579-1.4292.17707-.68616.08838-1.37036.18219-2.05115.28558-.23254.03534-.46863.06049-.70044.09754-.24683.03942-.48889.0913-.735.13275q-1.01277.17046-2.01648.36425c-.4679.08979-.93531.18-1.40027.27692-.6803.14191-1.35547.29547-2.0293.45264-.44287.10333-.88708.20337-1.32715.31323-.71582.17883-1.42456.37293-2.13232.569-.38574.10693-.7749.207-1.15821.319-.89489.26147-1.78027.54163-2.66088.83075-.17151.05633-.34742.10443-.51831.1618l-.04639.01667q-1.59668.53677-3.15906,1.13543c-.3009.115-.59509.24134-.89392.35962-.73657.29145-1.47107.58618-2.19531.89765-.092.03961-.18726.07422-.27906.11413-.08618.03748-.16918.07984-.25512.11762-.20459.08972-.40332.18835-.60694.27972q-.67218.30175-1.33618.616c-.17944.08465-.36267.16363-.54138.24957-.40369.19409-.802.39618-1.20129.59668-.58618.29431-1.16919.5929-1.74549.901-.18371.09815-.37353.18756-.55615.28711-.21814.119-.42773.2497-.64441.37061q-.84485.47131-1.67431.96283c-.15284.09051-.30372.18353-.45606.27465-.23706.14179-.47485.28235-.70947.42713-.55383.3418-1.09986.69348-1.64307,1.04877-.24658.16137-.502.31219-.74621.47631-.11951.08027-.23279.16767-.35181.2486-.80676.549-1.60608,1.10736-2.387,1.68665l-.09717.07244q-1.33887.99665-2.6261,2.051c-.1167.096-.22412.19684-.33984.29327-.72022.5998-1.43042,1.20478-2.114,1.82343l-.00134.00116-.015.01367-.02.01794c-.42432.38453-.82642.77991-1.23291,1.1731-.20044.194-.40943.38379-.60816.57855-.15063.14771-.31238.2901-.46094.43872l-.00488.00452-.00391.00421q-1.06934,1.0696-2.06567,2.17267c-.199.21918-.385.44385-.57971.66486-.45142.51239-.89856,1.02661-1.32727,1.54858-.06714.08154-.141.16022-.20752.242-.16345.20124-.3103.40906-.47046.61164-.27319.34576-.53943.69421-.80286,1.04388-.09607.12763-.19812.25287-.29309.381-.227.30683-.44726.61627-.66675.92591q-.49914.70431-.9729,1.41809c-.11377.17169-.2395.33911-.35107.51159-.09375.14521-.17505.29456-.26721.44031-.30847.48779-.60437.97974-.89466,1.47369-.18188.30982-.36669.61872-.5415.93085-.30029.5365-.58313,1.07849-.86194,1.62171-.11206.21832-.23791.43237-.34643.65173-.02771.05615-.05042.11377-.078.17q-.55151,1.12518-1.04077,2.268c-.031.072-.06689.14258-.09741.21466-.353.83453-.67786,1.67663-.9812,2.52386-.09522.26587-.17651.535-.2666.80207-.00684.0202-.0127.04058-.01953.06079-.19043.56561-.37793,1.132-.5459,1.70263-.09632.327-.18115.6565-.27.98511-.14575.53876-.28613,1.07861-.41211,1.62134-.03479.15033-.08081.2984-.114.449-.04419.19916-.07227.40119-.11353.60083q-.16571.79843-.30273,1.60205c-.06043.35437-.1189.70911-.1709,1.06495-.07984.54779-.14576,1.09784-.20557,1.6488-.03735.3421-.07812.68372-.10742,1.027l-.00256.04156-.00013.00128c-.0498.58844-.08154,1.17939-.1084,1.77082-.01318.292-.0354.58276-.04309.87542-.02331.8985-.025,1.79956.005,2.7038.02051.61688.07666,1.22736.122,1.83984v.00007c.02063.27825.02978.55859.05542.83587.02307.24982.0509.49848.078.7475.06494.59467.14746,1.18567.23523,1.77557.0061.0409.01013.08228.01623.12317.01.06549.016.1319.02625.19733.03149.20184.058.40491.092.6062.10388.61194.23462,1.21765.36292,1.824v.00007c.05322.25189.09326.50677.15063.75763.04321.189.09424.37615.13989.56469.15174.62738.32007,1.25049.49756,1.87116v.00006c.01758.06091.03125.1228.04895.18371.03894.13392.06751.27063.10755.40418.0321.1073.07348.21191.10644.319.04089.133.09046.26343.13233.39618.21069.66913.42529,1.3371.66674,1.99731.01294.035.02417.07038.03638.10547l.00769.02222c.02283.06213.05139.12262.07446.18469.23865.639.50037,1.27075.766,1.90125.05347.12671.09961.25573.15406.38208l.00024.00055c.098.22735.20069.45312.302.67938l.00049.001c.12134.2705.25525.53662.38159.80548.08167.17389.163.348.24671.52118.09314.19244.17859.38751.27429.579l.00061.00128c.09631.19311.1886.38763.28748.57983l.00036.00067q.61067,1.18709,1.28357,2.35053c.02319.03979.04273.08093.06592.12073.06873.11767.147.23138.21655.34869.154.25934.32031.51349.47876.77087.22949.37244.45362.74695.69263,1.11524.07617.11725.14343.23816.22046.355.06689.10126.14209.19873.20947.29968.24158.36115.49939.71472.74939,1.072.226.32294.44324.65.67737.96912l.002.00275.0199.02789c.045.063.08874.12677.13489.18921.25464.34381.52917.67767.79345,1.01672.30237.38788.59571.78015.90772,1.16315.06213.07629.11816.1557.18091.23175.09936.12091.20849.23663.30908.357.07251.08686.1499.171.223.25751.37952.4491.76306.89581,1.15759,1.33673l.001.00116c.0188.02106.03638.04279.0553.06384.15832.17646.31347.35456.474.52961q.94812,1.03326,1.94787,2.03619c.12366.12353.25281.24377.37757.36664q.8454.83175,1.72754,1.64013.30578.28062.6156.55854.94243.84366,1.92248,1.66137c.099.0824.19434.16742.29395.24939.74878.61628,1.51721,1.218,2.29821,1.80994.077.05835.1493.1203.22657.17841.13281.09985.27368.19329.40735.29248.4187.31042.84814.61212,1.27539.91546.20666.14661.408.29761.61645.44251.2124.14758.42261.29687.63709.44269.523.35559,1.06067.69818,1.59558,1.04321.30591.1972.60241.40265.91211.59631.13525.08466.27466.16541.41076.24939.41578.25659.8429.5022,1.26551.75238.32275.1911.64013.38739.96679.57477q.38086.21854.76538.43366c.48023.26861.971.5263,1.45911.78674l.0553.02978c.2666.142.52771.2901.79687.42969.14539.07544.2876.15418.43372.22888.75806.38752,1.53223.7569,2.308,1.12439.16114.07636.31751.158.47925.23346.24561.11444.49414.22473.74121.3371q1.01258.46041,2.04529.89545h.00012c.07129.03027.14063.0628.21192.09283.123.05182.24194.10864.36547.16.13721.05707.27662.11133.41431.16779.28687.11761.58142.2251.87036.34.50659.20147,1.01294.403,1.52564.59619.18017.06787.35522.1427.53613.20953.05615.02069.11182.04193.168.0625v.00006q1.65069.6059,3.34058,1.15448c.046.01489.0935.02735.13964.04218.32569.10486.65955.19665.98731.29815q.6892.21342,1.38379.41785v.00006c.45849.13422.91491.27149,1.37744.399.46533.12842.938.24365,1.4071.36536.80579.209,1.61341.4143,2.43006.60315.03808.00878.07666.01623.11474.025.48047.11047.965.213,1.4491.31635.78516.16772,1.57349.32879,2.3678.4776.25366.04754.50952.09021.76416.1358.28808.05157.57544.10461.8645.15369q1.19312.20232,2.3988.37457c.49622.07147.99292.14154,1.49219.20556.04993.00641.09924.01416.14917.02051.282.03571.55969.082.84253.11536.54993.06476,1.10779.10748,1.661.16315.52832.0531,1.05493.111,1.58618.15576.11267.00946.22364.02386.33643.033.81006.06537,1.62768.10663,2.44409.15228.24048.01343.47961.03064.72046.04236.21338.01037.42419.0285.63794.03753.14709.00617.2937.01392.44092.01948q1.80963.068,3.63745.07135c.03576.00006.07092.00207.10669.00207.48327,0,.959-.02124,1.43994-.0282.13122-.00189.26172-.00531.39282-.00769h.00049q.11865-.00219.2373-.00464c.09876-.002.19764-.00348.29615-.0058.584-.01391,1.17126-.01831,1.75146-.04235.06616-.00275.1311-.00873.19727-.0116.44824-.01947.89087-.05341,1.33679-.07886l.03357-.00195c.8324-.04773,1.665-.09436,2.48889-.16284.1355-.01123.26855-.02808.40393-.03986.52527-.04584,1.04663-.10065,1.56836-.15478.05054-.00525.10144-.00971.152-.015l.00024-.00006c.24231-.02557.48767-.04468.72937-.072q.56946-.06446,1.13538-.136c.21423-.02679.42505-.06054.63855-.08874.52221-.069,1.04345-.13971,1.56152-.21692.57544-.08582,1.14868-.175,1.719-.27088.32056-.05389.63746-.11492.9563-.17193.484-.08655.97107-.16712,1.45118-.26087.15307-.03.31005-.05261.46289-.08325.32861-.06592.64843-.14673.97509-.216.14222-.03009.28272-.06329.42456-.09406.09937-.02154.19776-.04443.29712-.06585.48584-.1048.9729-.20777,1.45337-.322.08472-.02015.17163-.03644.25635-.05683l.00037-.00006c.44983-.10827.89026-.23114,1.33606-.34576.07751-.0199.15405-.041.23144-.06116.17285-.04492.34424-.092.51709-.13672.39771-.10284.79639-.20386,1.189-.31433.13269-.03735.26953-.06836.40185-.10626.45752-.131.90235-.28052,1.35535-.41828l.015-.0047.00928-.0028c.19959-.06073.39758-.12378.59741-.18433.35718-.10828.71558-.2146,1.06812-.32965.12207-.03986.24829-.07391.37011-.11426.46033-.15252.907-.32336,1.36207-.48279.56518-.198,1.134-.39093,1.69116-.59942.089-.03327.18127-.06214.27-.09571.17114-.06475.33569-.13787.5061-.20361q1.12408-.43341,2.2251-.89508c.26587-.11145.53271-.2215.79638-.33539.94178-.40674,1.874-.82458,2.78858-1.26172l.04028-.01825c.066-.03161.12879-.06658.19458-.09832.3855-.18586.75867-.38471,1.13916-.57587.26612-.13367.533-.26642.79663-.40271l.00025-.00012.00012-.00006.06055-.03064c.1615-.08209.3258-.16132.48547-.24543.25879-.13635.51489-.2749.77112-.41369q1.04169-.56415,2.05578-1.15534c.14307-.08343.29273-.16034.43506-.2445.05628-.03333.10938-.06958.16553-.103q1.26672-.754,2.48792-1.54883l.00073-.00049c.1803-.11737.35534-.23907.53406-.35778l.00231-.00159c.14222-.09448.27881-.19373.42-.289.50268-.339,1.00427-.67877,1.49438-1.02814q.34388-.24517.68445-.4928l.03235-.0246.04981-.03778c.19274-.14148.37792-.28881.56872-.43188l.00012-.00012c.46387-.348.93164-.69324,1.3833-1.05054.07154-.05664.148-.10962.21924-.1665.01587-.01276.03076-.02643.04675-.03925.647-.51709,1.27161-1.05029,1.89234-1.58612.08887-.07672.18249-.15.27087-.227l.001-.00085c.043-.03742.08447-.07569.12695-.11335q.22558-.2.44947-.40118.76391-.68336,1.4978-1.3866c.02661-.02539.05469-.04986.0813-.07538.04516-.04327.09326-.08465.1383-.128.0575-.05536.11939-.10791.17652-.16345l.00024-.00018c.07947-.07727.15442-.15723.23352-.2348l.02173-.0224c.65015-.63916,1.28674-1.28656,1.90063-1.94758l.00074-.00079c.08069-.08673.15625-.17627.23632-.26337.158-.17218.30665-.34948.46045-.524.25049-.284.50342-.56665.74988-.85291l.00012-.00006c.10767-.12512.21973-.24774.32764-.37274.01465-.017.03-.03351.04443-.0506q.07471-.08844.15039-.17627c.062-.0719.12439-.14374.18482-.21661.06055-.07318.11548-.14942.17566-.2229q.68793-.83853,1.33752-1.69708l.00208-.00269.0282-.03662c.10327-.13513.21-.2685.31115-.40491l.016-.0227q.79359-1.0719,1.52625-2.17322C1328.27679,152.75131,1328.38824,152.571,1328.504,152.39248Zm-56.36426,6.12494c-.238.04883-.48.09-.71973.1355-.527.1001-1.05639.19482-1.59131.27875-.28222.04425-.56652.0841-.85083.12384-.155.0216-.30835.04712-.46386.06744-.3562.04639-.716.08447-1.07544.12372-.28809.03143-.57642.06287-.86658.0896-.50146.0462-1.00671.082-1.51392.114l-.151.00934c-.25219.0152-.50219.035-.75561.04669-.17945.00824-.35938.01477-.53943.02118l-.00025.00006c-.634.02259-1.27026.03919-1.912.03919-1.63794,0-3.25489-.08258-4.85108-.22888h-.00012a52.30471,52.30471,0,0,1-6.09314-.91828c-.02917-.00616-.05774-.01361-.08691-.01983v-.00006c-1.65369-.35431-3.269-.78986-4.84522-1.29371-.2832-.09057-.57055-.17431-.85119-.26953-.94751-.32147-1.87293-.67791-2.787-1.05078q-1.94111-.79175-3.77246-1.73053a44.94348,44.94348,0,0,1-7.304-4.65234,39.45705,39.45705,0,0,1-6.06018-5.91126l-.00085-.001c-.16919-.20539-.34546-.40662-.50952-.61487-.22181-.28168-.429-.57117-.64112-.858-.50427-.68146-.99121-1.37189-1.43957-2.081q-.47772-.75558-.912-1.531a31.3425,31.3425,0,0,1-2.0686-4.50318,29.14363,29.14363,0,0,1-1.48365-5.8255c-.06445-.43853-.12841-.87719-.17236-1.32013-.02991-.301-.04126-.60553-.06152-.90838-.01868-.2793-.04614-.55689-.05664-.83783l-.00171-.02576c-.02442-.67377-.0188-1.34271.00427-2.00842.006-.16956.02075-.33734.02966-.50629.0022-.04242.005-.08465.00745-.12707.0177-.30774.02649-.61713.05408-.92292.01318-.14764.03784-.2929.05346-.44012.02539-.23926.05567-.47711.087-.715q.08532-.64719.20056-1.287c.041-.22894.08045-.458.127-.68554.06128-.30036.13013-.59845.201-.8963l.00013-.00007c.04028-.16955.08288-.33837.12622-.507.0437-.17017.08056-.34229.12744-.51154q.26074-.94281.58252-1.86676c.04382-.12537.096-.2478.1416-.37262.14551-.39893.29016-.79828.45264-1.19122.03723-.08991.08154-.17719.1195-.26679.035-.08227.074-.16308.10974-.24511v-.00013c.0542-.12433.11048-.2478.16626-.37146.10767-.23864.207-.48053.32081-.71667.07666-.15894.1643-.3133.24365-.47113q.16186-.32163.33105-.63983c.07959-.14954.15113-.30243.23316-.45087.13232-.23938.27893-.47229.41772-.70874.113-.19269.223-.38684.34033-.57758.16407-.26684.33631-.52935.50855-.79229.05334-.08161.10791-.16285.16211-.24408.07678-.11512.15112-.23139.22949-.34571.0647-.09423.12378-.19128.18945-.285.01136-.0163.02149-.03333.03284-.04956.37146-.52838.76257-1.046,1.16626-1.55646.11877-.15015.24548-.29559.36682-.44415.3064-.37451.61816-.74555.94165-1.10956.16187-.18237.32861-.36151.49475-.54114q.455-.492.93018-.97015c.17578-.1767.35193-.35309.53161-.52686.34266-.33087.69471-.65442,1.05176-.97436.15991-.14331.31592-.28961.47876-.43067.05176-.04492.10034-.09246.15235-.13714q.71044-.60893,1.45568-1.1886c.03577-.02783.07386-.05365.10975-.08142q.73242-.566,1.49633-1.103c.03028-.0213.06226-.04114.09253-.06238.18836-.13147.38233-.25726.57349-.386.401-.27021.80615-.536,1.21924-.79389.19214-.12.38684-.23706.58154-.35431l.001-.00061c.20947-.12616.4132-.25824.62548-.38116q.84047-.48651,1.71045-.93878c.01587-.00824.03235-.01593.04859-.02393l.00928-.00458.0017-.00085.00245-.00122q.82086-.42545,1.66528-.821c.2439-.11358.49548-.21655.74219-.32611.18676-.08288.37317-.16607.56152-.24664l.00024-.00012c.16626-.071.32788-.14838.49524-.21759q.91224-.37721,1.849-.71741c.05762-.02094.11731-.03894.17517-.05933l.00843-.00286.02954-.01c.11987-.04218.24194-.08075.36218-.12262l.00085-.00031c.43775-.1524.87415-.30676,1.3191-.44672.34814-.10955.70385-.20544,1.05639-.30719.17957-.05188.35767-.10675.53833-.15655l.00147-.00043c.76635-.21124,1.5393-.40991,2.32422-.58374.12487-.02765.25268-.0484.37793-.07507.19116-.04071.38427-.076.57629-.1145q1.259-.25177,2.545-.43946c.152-.02191.30164-.04937.45411-.06988.165-.02216.33178-.03943.49743-.05994q.70477-.08724,1.41614-.15521c.21387-.02014.42847-.038.64331-.0553h.00024c.20728-.01666.41651-.02716.62464-.041.24829-.01654.49573-.03589.745-.04889.19825-.01038.39575-.02271.59473-.03064.64807-.02582,1.29871-.04273,1.95386-.04273.82556,0,1.646.02613,2.46338.06665.25695.01276.51208.03327.76806.04993.56787.03693,1.13343.08142,1.69629.13739q.427.04248.85205.0921.83587.0977,1.66284.22412c.25306.03821.50733.07294.75928.11493.75684.12616,1.509.26605,2.25366.42554.03345.00714.06739.01239.10059.01953.77832.16834,1.54761.359,2.31128.56256.05981.01593.11841.03424.1781.05036.17566.04754.34949.09893.52429.14831.53345.15057,1.06336.30768,1.58862.475q.39369.12532.78333.257c.20129.06781.40613.12866.60608.19891.31018.10895.6134.23.92041.34473.23389.0874.469.17187.70093.26257q1.00323.39231,1.98242.82336l.02881.01215c.043.019.0874.03589.13037.05505.70288.31385,1.39306.64624,2.07495.99.20776.10474.41064.2154.61633.32288.31043.16217.62488.31921.93054.48749.16382.09027.32154.18786.48389.27984q.34644.19611.68787.39771.6751.39742,1.332.81543c.16955.10748.33948.21448.50793.323.03528.02276.07141.04468.10645.06769.04223.02771.08606.05377.12817.0816.30567.202.60132.41412.90039.62274.20923.146.42359.28693.62989.43573l.03442.02393c.04968.0346.10034.06854.14917.10412q.8031.585,1.574,1.19959c.06153.049.11914.10119.18018.15051.04834.039.095.07941.14258.11908q.1809.15069.36133.30176c.26538.221.53588.43756.7948.66376.13147.11492.25537.23577.38513.352q.28546.25551.56445.51568.54877.50949,1.07446,1.03534c.16724.16681.3368.332.50074.50116q.65331.67439,1.26953,1.37274c.053.06.10949.11774.162.178l.00086.00086c.01477.017.03088.03326.04565.05029l.02869.03332q.59052.68125,1.14441,1.384l.02637.032.02343.03131c.0437.05548.083.1131.12622.16882.07007.09027.13575.18305.20484.27381.12561.16485.24048.33514.363.50158.23828.324.48.64637.70654.97638q.19208.27988.37829.56263c.10779.16363.22352.32348.3285.48846.21484.33795.41357.683.616,1.02655.07862.13354.16284.26471.2395.39911.02613.04584.05579.09021.08179.13617.3346.59247.64527,1.19458.94165,1.80212.07849.1612.14929.32514.2251.48731.14722.31469.30054.62719.437.94555.08618.20087.15894.40607.24085.60834.082.2027.16357.4054.24133.6095q.33674.88476.61963,1.78546c.03.09607.06579.19055.09472.28693.00757.02484.01709.04913.02454.074q.25544.85555.45923,1.72455c.02283.09753.03772.1969.05969.29468.04321.1933.07861.38836.118.58258q.16369.8085.28162,1.6264c.03.2096.06189.41889.0874.62934.01587.13006.04.25842.05408.38885.012.11121.01477.22406.02539.33551.04626.48407.08874.96881.11011,1.457.03259.74384.02527,1.4801-.00061,2.21259-.00342.0982-.0105.19561-.015.29364q-.00732.15939-.01623.3186V127.81c-.01331.23175-.01636.46575-.0354.69622-.02893.34894-.07715.69324-.11914,1.03913-.00965.08014-.01905.16034-.02759.24072s-.01636.1607-.02747.24036v.00042c-.04907.35334-.11242.70288-.17492,1.05274v.00006c-.05054.283-.09241.5683-.15162.84888-.0144.068-.03442.13427-.04919.20208l-.00012.00049c-.03467.15814-.07739.31366-.11475.471l-.00036.00165q-.19794.83413-.44593,1.65265l-.00024.0003c-.05786.191-.115.38214-.177.57184v.00043c-.077.23571-.15515.47076-.23828.70434v.00006c-.15625.43885-.31592.87653-.49341,1.30762l-.00635.01416q-.32318.78407-.69226,1.55048c-.06311.131-.13611.258-.2013.38824-.06884.13751-.14062.2735-.21215.40973-.02222.04224-.0437.08484-.06592.12714l-.00049.001c-.10583.20112-.20312.40589-.31348.60486-.16967.30561-.35547.60376-.536.9043l-.00061.00092q-.06848.1137-.135.228c-.03589.06122-.071.12268-.10864.18311-.34155.54907-.697,1.09161-1.07446,1.62262-.04175.05877-.08838.11493-.13062.17346-.09607.13324-.19873.26282-.29712.3949l-.00061.00085q-.52442.70433-1.09,1.38513l-.00037.00037c-.131.15759-.26111.31531-.39526.47095l-.00074.00091q-.61139.70908-1.26525,1.39118c-.08094.08416-.1565.17181-.23853.25537l-.02063.02008-.0011.00116c-.51806.52728-1.062,1.0368-1.61841,1.53735-.158.142-.31884.28137-.47973.42121l-.03369.02966c-.17.14734-.33313.29974-.50635.44458-.28613.23913-.58521.46808-.88013.70019-.13257.10437-.26123.2118-.39551.3147l-.00085.00067q-.91133.69819-1.87561,1.35065c-.1471.09967-.29932.19446-.44824.29242l-.00147.001c-.13855.09112-.277.18219-.417.27191q-.58318.37371-1.1842.72979c-.18946.11268-.37854.22577-.57044.33588l-.001.00049c-.6914.39636-1.39331.78168-2.11633,1.14392l-.03992.019-.00341.00159c-.70923.35437-1.43763.68634-2.17554,1.00653-.2334.10132-.46924.19958-.70557.29736q-.65954.2731-1.33313.52741c-.25378.09588-.50744.19183-.764.28369-.1416.05066-.27905.10705-.4215.15649-.34388.11933-.69617.22571-1.045.33777-.22363.07184-.44458.14789-.67041.21674-.7207.21979-1.449.42743-2.18921.61554l-.041.00952c-.02344.00592-.04761.01062-.07105.01654Q1273.21942,158.29788,1272.13971,158.51742Z" style="fill: #00f4ff"/>
    <path d="M632.42505,129.879l-1.86566,2.87476-2.16138,3.33038-10.33984,15.93225-.05573.08594-.04675.072-9.19464,14.16779-1.51526,2.33478-1.57111,2.42083-.08758.135-.10077.15534-.007.01068-4.54932,7.00989h34.97138l2.637-4.30378.04028-.06579.0481-.07849,8.78088-14.33136H701.434l10.83966,18.77942H747.236l-56.25256-86.2793-3.411-5.23175-3.90534-5.98993-9.75256-14.95831Zm54.11609,7.60407h-30.908l.00006-.00006,17.75043-30.73859,16.573,30.73859.00007.00006h-3.41559Z" style="fill: #00f4ff"/>
    <polygon points="841.422 176.292 841.407 171.221 841.376 160.089 841.361 154.505 816.181 154.505 814.302 154.505 813.322 154.505 812.272 154.505 809.883 154.505 809.883 154.505 809.882 69.914 777.024 69.914 776.954 93.678 776.904 110.729 776.706 178.409 785.956 178.409 787.536 178.409 789.423 178.409 809.845 178.409 809.871 178.409 811.977 178.409 812.903 178.409 813.768 178.409 815.425 178.409 837.625 178.409 838.431 178.409 840.181 178.409 841.05 178.409 841.428 178.409 841.427 178.342 841.422 176.292" style="fill: #00f4ff"/>
    <polygon points="226.694 156.997 226.336 163.944 226.295 164.724 226.082 168.855 226.082 168.855 225.954 171.322 225.954 171.322 225.864 173.07 225.864 173.07 225.61 177.995 225.61 177.995 225.58 178.578 225.58 178.578 227.517 178.578 227.518 178.578 243.394 178.578 243.394 178.578 248.823 178.578 248.823 178.578 256.318 178.578 256.318 178.578 263.78 178.578 268.394 178.565 268.394 178.565 270.605 178.559 289.538 178.506 289.539 178.506 320.763 178.418 320.829 176.881 321.012 172.643 321.171 168.962 321.181 168.733 321.181 168.732 321.391 163.888 321.393 163.846 321.393 163.846 321.461 162.277 321.541 160.414 321.573 159.686 321.573 159.686 321.781 154.853 321.797 154.505 321.796 154.505 320.942 154.505 308.724 154.505 308.724 154.505 306.834 154.505 301.928 154.505 297.722 154.505 297.721 154.505 297.608 154.505 284.173 154.505 284.172 154.505 283.518 154.505 272.812 154.505 259.939 154.505 259.939 154.505 259.939 154.505 260.384 145.361 260.384 145.361 260.651 139.878 260.651 139.878 260.839 136.027 262.902 136.027 262.902 136.027 276.237 136.027 315.219 136.027 322.373 136.027 322.373 136.027 322.595 136.027 322.648 134.804 322.815 130.947 322.89 129.207 322.89 129.207 323.013 126.361 323.074 124.966 323.143 123.352 323.148 123.252 323.148 123.252 323.449 116.279 323.477 115.634 323.54 114.175 323.594 112.94 323.622 112.294 323.622 112.293 323.622 112.293 322.303 112.293 319.765 112.293 316.734 112.293 315.382 112.293 300.29 112.293 300.29 112.293 300.068 112.293 296.442 112.293 293.268 112.293 286.67 112.293 286.67 112.293 282.553 112.293 273.201 112.293 269.919 112.293 269.919 112.293 261.995 112.293 262.166 108.785 262.166 108.785 262.544 101.028 262.544 101.028 262.864 94.464 263.102 94.464 263.102 94.464 279.295 94.464 280.747 94.464 283.999 94.464 286.722 94.464 324.393 94.464 325.454 69.914 325.454 69.914 237.727 69.914 234.749 69.914 231.192 69.914 231.153 70.678 230.726 78.942 230.726 78.942 230.362 86 230.362 86 229.938 94.203 229.938 94.203 228.79 116.416 228.494 122.152 228.494 122.152 228.239 127.088 228.239 127.088 227.94 132.888 227.94 132.888 226.694 156.997 226.694 156.997" style="fill: #00f4ff"/>
    <polygon points="512.752 112.134 512.088 112.134 506.895 112.134 503.134 112.134 502.106 112.134 500.278 112.134 497.716 112.134 497.57 112.134 492.341 112.134 492.341 112.134 492.341 112.134 492.454 108.129 492.457 108.016 492.555 104.547 492.579 103.721 492.789 96.288 492.805 95.719 492.818 95.24 493.533 69.914 462.1 69.914 461.445 69.914 460.666 69.914 460.666 69.914 460.411 78.081 460.383 78.989 460.264 82.8 460.26 82.925 460.094 88.249 460.08 88.721 459.408 110.282 459.375 111.347 459.343 112.373 459.327 112.888 459.314 113.297 459.304 113.612 459.209 116.67 458.695 133.146 458.695 133.146 458.695 133.158 458.449 141.034 458.359 143.931 458.341 144.502 458.329 144.884 458.255 147.281 458.217 148.489 458.211 148.69 458.198 149.093 458.191 149.31 458.092 152.499 458.083 152.778 458.078 152.964 458.077 152.994 458.049 153.887 458.023 154.708 458.023 154.73 457.989 155.82 457.961 156.713 457.929 157.721 457.926 157.838 457.913 158.242 457.904 158.533 457.889 159.025 457.889 159.025 457.853 160.176 457.81 161.562 457.803 161.774 457.791 162.149 457.778 162.575 457.764 163.034 457.762 163.091 457.71 164.752 457.708 164.818 457.704 164.95 457.666 166.172 457.658 166.424 457.632 167.25 457.626 167.458 457.622 167.594 457.615 167.808 457.607 168.077 457.604 168.167 457.604 168.167 457.59 168.606 457.587 168.696 457.561 169.527 457.534 170.392 457.51 171.177 457.489 171.857 457.473 172.365 457.424 173.942 457.409 174.413 457.404 174.562 457.404 174.562 457.37 175.65 457.299 177.946 457.293 178.127 457.279 178.578 458.184 178.578 458.296 178.578 463.075 178.578 465.18 178.578 465.18 178.578 465.18 178.578 465.467 178.578 466.37 178.578 469.358 178.578 470.309 178.578 471.575 178.578 471.575 178.578 473.024 178.578 474.607 178.578 476.277 178.578 477.067 178.578 477.067 178.578 477.067 178.578 477.228 178.578 477.709 178.578 478.092 178.578 478.334 178.578 478.705 178.578 480.167 178.578 480.61 178.578 482.279 178.578 482.746 178.578 482.975 178.578 483.088 178.578 485.942 178.578 486.039 178.578 486.818 178.578 487.537 178.578 488.168 178.578 488.523 178.578 490.465 178.578 490.471 178.378 490.501 177.332 490.501 177.332 490.513 176.884 490.521 176.62 490.521 176.601 490.531 176.253 490.534 176.147 490.56 175.231 490.583 174.42 490.611 173.409 490.632 172.662 490.655 171.85 490.656 171.823 490.661 171.655 490.668 171.401 490.726 169.338 490.75 168.502 490.755 168.305 490.761 168.124 490.766 167.938 490.771 167.756 490.863 164.479 490.873 164.131 490.888 163.613 490.962 160.979 491.164 153.819 491.165 153.808 491.588 138.826 491.666 136.045 491.671 135.858 491.672 135.858 491.818 135.858 492.362 135.858 493.047 135.858 494.401 135.858 495.794 135.858 497.269 135.858 522.143 135.858 523.152 135.858 527.873 135.858 528.005 135.858 530.318 135.858 531.969 135.858 532.897 135.858 536.293 135.858 539.52 135.858 539.52 135.858 539.459 138.413 539.396 141.039 539.379 141.745 539.372 142.034 539.349 142.99 539.308 144.711 539.305 144.809 539.248 147.209 539.223 148.233 539.206 148.951 539.106 153.112 538.795 166.084 538.775 166.911 538.756 167.709 538.746 168.109 538.739 168.427 538.737 168.512 538.733 168.672 538.715 169.441 538.695 170.253 538.679 170.93 538.676 171.048 538.672 171.222 538.495 178.578 549.433 178.578 549.681 178.578 550.809 178.578 551.951 178.578 553.025 178.578 553.246 178.578 553.364 178.578 553.803 178.578 554.355 178.578 555.447 178.578 556.571 178.578 558.092 178.578 571.672 178.578 571.693 177.606 571.77 173.937 571.784 173.304 571.803 172.402 571.847 170.285 571.849 170.2 571.881 168.682 571.899 167.839 571.904 167.584 571.917 166.961 571.966 164.646 572.013 162.393 572.035 161.355 572.044 160.926 572.052 160.564 572.454 141.467 572.454 141.448 572.46 141.166 572.465 140.922 572.558 136.499 572.649 132.171 573.232 104.522 573.235 104.375 573.238 104.199 573.96 69.914 541.102 69.914 541.097 70.112 541.093 70.279 540.342 101.599 540.224 106.504 540.104 111.516 540.097 111.794 540.09 112.112 540.089 112.134 540.089 112.134 540.089 112.134 513.31 112.134 512.752 112.134" style="fill: #00f4ff"/>
    <path d="M1574.65216,69.84347l-.00232.00012q-1.513.062-2.967.1651c-.32214.0224-.63269.053-.95056.07831-.64234.05109-1.28345.10309-1.90894.16608-.36865.03705-.7268.0816-1.0896.12286-.25061.02851-.50464.05445-.75256.0849q-.45722.05622-.90894.11646c-.37622.0506-.74426.10718-1.11413.16247-.51489.077-1.02649.15638-1.52881.2425-.36963.06341-.73376.131-1.09668.19934q-.73059.13768-1.444.28845-.53265.11307-1.05591.23328c-.468.108-.92822.22192-1.38415.33917-.33411.08587-.66834.17169-.9961.26257-.14685.04071-.301.076-.44665.1178-.06116.01752-.11829.0379-.17908.0556-.24719.07178-.48437.15137-.72778.226-.30652.09411-.61585.18585-.91626.28454-.09986.03272-.20508.06116-.3042.09442-.22876.07678-.44519.16321-.67041.24274-.12891.04547-.25586.09241-.38355.13879-.25854.09381-.52234.1836-.77624.28107q-1.26984.48789-2.45947,1.039c-.16907.07788-.33216.16052-.49891.2403l-.07055.034-.07776.03742q-.92322.44631-1.79871.93121c-.17553.09723-.35473.19141-.52746.291q-1.09149.62932-2.1084,1.31952c-.13526.09216-.26331.19036-.39636.28424q-.8379.59014-1.62183,1.225c-.1449.11719-.29077.23371-.433.35321-.01844.0155-.03772.03028-.05616.04584-.5924.5-1.16967,1.01288-1.71521,1.55279-.01977.0196-.03759.0409-.05725.06055-.06567.06537-.12573.13556-.19079.20148-.502.50946-.98047,1.03912-1.4419,1.58362l-.04809.05816c-.12171.14435-.243.28888-.36182.43567-.47778.59-.939,1.1947-1.37134,1.82471-.02417.0354-.05127.06836-.07531.10382-.4513.66388-.86976,1.35706-1.27161,2.06537-.1062.18732-.20874.37793-.31152.56836q-.49842.923-.94422,1.894c-.05786.12646-.121.24811-.17737.37585-.33667.76142-.6455,1.54859-.93408,2.3548-.072.20111-.13843.40741-.20752.61133-.1051.31079-.21777.6145-.31616.93182-.1145.36982-.21362.75428-.31885,1.133-.05371.1933-.11157.38281-.16284.57849q-.33966,1.2951-.60937,2.65784c-.03833.19421-.07.39483-.10621.59112q-.21129,1.146-.374,2.33985c-.03357.245-.06885.488-.09936.736-.11939.97259-.22022,1.96381-.293,2.98322-.0105.14593-.01514.29785-.02466.4447q-.08716,1.35159-.11939,2.75982c-.00683.28626-.01342.57312-.01709.8628-.0017.14044-.0072.277-.00817.41827-.00074.10382-.00574.20325-.00611.30756-.00036.1535.00574.3139.00623.46832.00195.7041.00708,1.4115.02783,2.13519.00684.19257.01562.38007.02283.5716.02111.56469.04236,1.12945.06726,1.68548l.00122.02466.0039.08252c.01758.39069.03736.775.0564,1.16162.01538.31378.02954.63159.04566.94275.01757.33746.03637.6684.05444,1.00293.00244.0434.00488.08691.00708.13025.01892.34521.03711.69391.0564,1.03607l.00134.02429c.00586.1045.01184.20655.01782.31073q.0423.74341.08472,1.47791c.0061.10516.01208.21246.01819.31732.06152,1.0813.11987,2.12482.17407,3.14838.016.30212.0332.61084.04809.90789q.05091,1.01194.09058,1.9834.03717.90693.0625,1.78089c.03369,1.2063.047,2.3634.03149,3.47094s-.06,2.16553-.14221,3.17353a23.3291,23.3291,0,0,1-1.0155,5.44586q-.201.605-.44458,1.17175a11.65262,11.65262,0,0,1-1.708,2.81311l-.00012.00006c-.06458.07862-.12024.1637-.18713.2406-.33716.37616-.69227.73059-1.05762,1.07178-.11841.11047-.24256.21277-.36353.31976-.25415.22461-.511.445-.77612.65436-.14624.11548-.29553.2262-.44482.33716q-.38031.28272-.77186.54706c-.15576.10461-.3114.20831-.46972.30865-.09253.05866-.18152.12336-.27478.18055-.18347.1123-.3728.213-.55921.3197-.14734.08441-.29309.17175-.442.25274-.34571.18805-.69617.36475-1.04932.535-.08667.04181-.17163.08844-.25879.12921q-.66395.3109-1.33948.58179c-.12536.05053-.2517.095-.37744.14367-.255.0987-.50964.2005-.76574.29157-.07276.02588-.14563.0473-.21851.07257-.16675.05792-.333.11139-.5.16614-.2915.0957-.58228.18811-.87329.27465q-.22485.06693-.449.12983c-.58252.16461-1.16186.31591-1.73388.44745-.06641.01525-.13111.02777-.19727.0426-.30224.06781-.60449.13543-.90185.19482-.23511.047-.46424.08649-.69556.12854-.095.01721-.19141.03632-.28564.05274q-.82105.14337-1.59839.24786c-.10682.01453-.21143.02783-.31678.04138-.51965.067-1.02771.12653-1.50732.17237l.047.75756v.00006l1.54931,24.94654.01685-.00019c.63586-.00195,1.29761-.012,1.96924-.02636q.25818-.0056.52-.01251c.69458-.01831,1.40014-.04133,2.126-.07538l.00708-.00025q.81593-.03845,1.655-.09161c.17981-.01148.36463-.0271.54578-.03961.06238-.00434.12561-.00916.18811-.01367.12549-.009.25061-.01783.37659-.02729.75146-.05658,1.51062-.1195,2.28186-.19677l.01294-.00116.01123-.001q.87615-.088,1.76623-.19525c.189-.02283.3805-.05091.57019-.07508q.29865-.03817.59815-.07879c.20508-.02771.4082-.05145.614-.08081q.87873-.12543,1.76477-.2724l.02429-.00379c.13257-.022.266-.05084.39868-.07385.66529-.11542,1.33191-.23657,1.99952-.3703l.00317-.00061q.30139-.06033.60291-.12378l.00329-.00073c.79395-.16638,1.58814-.34253,2.37988-.53919l.00818-.00189.0387-.009.00171-.00043c.68738-.17132,1.37231-.35779,2.05469-.55347l.002-.00054c.207-.05939.41235-.12378.61865-.18543l.00452-.0014c.06323-.01892.12585-.0401.18908-.05921.4181-.12646.83545-.255,1.25037-.3916q.351-.11554.69983-.23614c.31763-.1095.63159-.22718.94629-.34327.15234-.05615.306-.10858.45776-.16595l.00366-.00134c.208-.07868.41724-.15491.624-.23645.08789-.03467.17761-.06543.26538-.10059q.83862-.33654,1.66016-.70575l.03979-.01691.0011-.00048c.64294-.28919,1.2749-.5976,1.89929-.91742l.00171-.00086c.19019-.09741.3761-.20111.56421-.30145l.00342-.00189q.65351-.34845,1.29126-.71961l.00171-.001q.31457-.18412.62475-.37452c.15454-.09466.30347-.19665.45606-.29388.259-.16522.52-.32794.77465-.49921l.00269-.00177c.18042-.12139.36328-.23968.541-.36444.563-.39544,1.116-.80359,1.65063-1.23394l.02124-.01618c.53882-.43451,1.05762-.89227,1.56421-1.36377.15613-.14538.30554-.2984.4585-.44745.22143-.2157.44934-.42419.66369-.64758.12366-.12878.23718-.26825.35828-.39966.05261-.057.10351-.1159.15552-.17346.11132-.12286.2229-.2453.332-.3703.22656-.25952.44165-.53088.658-.80084.0896-.1117.18408-.2182.27234-.3313.13537-.17371.27441-.34363.40576-.52143l.00085-.00115c.13965-.189.2638-.39307.39954-.58582.26989-.38318.54516-.76111.79431-1.16449l.00366-.00562.00049-.00085c.03674-.05951.06665-.12543.1029-.18542.33277-.552.64978-1.119.94642-1.70527.10131-.2005.19336-.40979.29028-.61456.22119-.46722.43213-.9436.62878-1.433.077-.19147.15027-.38617.22327-.58118.01965-.05231.04077-.10339.06006-.156.18323-.49823.35083-1.01019.50842-1.53118.07068-.23377.14636-.46308.21167-.70148.17078-.62341.31506-1.26978.44983-1.92395.02966-.14368.07153-.277.09888-.42261.46435-2.45483.80053-5.0025,1.04077-7.58472.24023-2.58105.385-5.19659.4668-7.78845.01428-.45215.01721-.89728.02783-1.34772v-.00006c.05029-2.13025.07092-4.24371.06177-6.29528-.01124-2.46467-.052-4.84754-.09046-7.09516l-.00085-.05517-.00049-.03241c-.02332-1.3161-.04309-2.55555-.0564-3.72632l-.00049-.03943c-.01318-1.182-.02-2.29456-.01709-3.34509.00074-.27326-.00024-.5578.002-.82227.0083-1.022.03027-1.96893.06469-2.866.02112-.55169.04737-1.08422.08057-1.59155l.00073-.01111c.0072-.10907.01441-.2185.02222-.32556.02881-.39715.06055-.78442.09827-1.15485l.0028-.03271c.00391-.03839.00953-.07245.01355-.11053v-.00007q.06171-.58282.13977-1.12323.07837-.54053.17444-1.03967v-.00006c.09851-.50977.21607-.98163.34583-1.43152.0603-.2091.11865-.42175.18628-.61865a9.73079,9.73079,0,0,1,.52807-1.23474c.03833-.07556.07276-.15619.11231-.22992.09228-.17181.19726-.32849.29834-.49a7.23021,7.23021,0,0,1,.7605-1.03418l.01-.01062c.21923-.24384.4436-.47077.66833-.696.05872-.059.11585-.12408.17481-.182.09716-.09528.19641-.1828.29431-.27491.1936-.18176.38745-.36132.584-.53088.11585-.1.23291-.19452.34973-.29034.18311-.15015.36658-.29718.55176-.43738.10877-.08246.21814-.16217.32752-.24121l.03686-.02716.00342-.00251.01758-.01293c.07739-.05549.15368-.11658.23144-.17041.102-.07068.20532-.13276.30786-.20069.12061-.07989.241-.16.36219-.23614.19555-.12293.39184-.23865.5885-.352.11291-.065.22546-.13282.33862-.19477.20019-.10962.40088-.21038.60156-.31012.03174-.01574.06336-.03338.09509-.049.07691-.03778.15357-.07995.23035-.11645.0575-.02728.115-.04993.17261-.07654.24011-.11121.48022-.221.72021-.31952l.02466-.00879c.47461-.19421.94678-.35388,1.417-.5036.06556-.02087.13013-.03857.19532-.05841.13794-.04211.27612-.08484.41382-.12372q.50023-.14117.99267-.25305c.11328-.02576.23-.06378.34253-.08734.0791-.01654.15405-.02362.23267-.03912.34973-.06891.69323-.12452,1.03357-.174.11633-.0169.23815-.04461.35314-.05944.03956-.00507.07569-.00586.115-.01068.48608-.0597.96337-.10535,1.42236-.13184v-.00006h0Z" style="fill: #00f4ff"/>
    <path d="M429.19342,67.7623q-1.08893-.02958-2.158-.04438t-2.11725-.01483A129.79183,129.79183,0,0,0,403.68274,69.351a94.655,94.655,0,0,0-16.69348,4.28082,73.67065,73.67065,0,0,0-12.58991,5.88709l-.05737.03314c-.02564.01526-.04828.03094-.07385.0462a62.20823,62.20823,0,0,0-7.05024,4.87134c-.144.11536-.27038.22962-.41156.34491-.53277.435-1.06115.87006-1.55322,1.3017-.49859.43756-.97674.88763-1.45434,1.338-.19892.18762-.40216.37256-.59742.56232-.21893.21283-.426.43255-.64025.64807-.43744.43988-.87153.88159-1.28962,1.3327-.22253.24-.43579.48535-.65277.72852l-.053.0592c-.374.42041-.74334.8432-1.10076,1.27271-.2342.28137-.46271.56585-.68982.85113-.17011.21362-.35059.42175-.51667.63751-.16546.215-.31652.43744-.478.65448-.04273.0575-.08411.11573-.12659.17334-.03656.04962-.07257.09943-.10895.14917-.04162.05689-.08337.11377-.12475.17084-.10279.14178-.20887.2818-.31.42444-.25134.35461-.49512.71307-.736,1.073-.22442.33532-.4472.67157-.66253,1.01141-.09088.14343-.19037.28265-.2796.42682-.13843.22363-.26233.45416-.39679.67963-.188.31524-.37445.63116-.55481.95007-.01618.02862-.03357.05664-.04975.08533l-.00329.00555c-.2107.37439-.41205.75305-.61218,1.13245-.18586.35247-.37153.70507-.54828,1.06176-.06543.132-.1388.26038-.20295.393-.1231.25439-.23065.51569-.34912.77216q-.16708.36181-.32837.72613c-.05731.12982-.1192.25757-.17535.38788l-.004.00867c-.04913.11407-.10528.22509-.1535.33953l-.00348.00885c-.08551.20313-.158.41169-.24066.616-.16547.40918-.328.81958-.482,1.23358-.12371.33252-.24157.6673-.35784,1.00281q-.21589.62312-.41565,1.25269c-.02729.08667-.0589.17163-.08576.25842-.02551.08258-.05646.163-.08154.24573-.05219.17206-.0932.34845-.14343.52124-.05579.19177-.10566.3858-.15912.57849-.06452.23273-.13111.4646-.1922.69861-.04126.15814-.09027.31341-.13.47217-.00921.0368-.021.07263-.03009.10943-.03747.15143-.06494.30652-.101.4585-.04114.17358-.07611.34942-.11542.52368-.06213.27569-.12506.55109-.18255.82843-.01392.06732-.03064.13361-.04432.201-.051.2514-.10137.50287-.14843.75567-.009.04816-.01551.09717-.02436.14539-.07879.42987-.14935.86255-.21691,1.29626-.0105.06763-.02363.1344-.03388.20215-.03632.23957-.07532.47821-.10821.719-.07288.53326-.13056,1.07159-.18653,1.61041-.02722.26147-.06158.52063-.08471.78333-.03.33935-.044.68371-.06733,1.02514-.03186.46771-.07281.93262-.09216,1.40418-.02521.61468-.02667,1.21991-.03253,1.827-.00165.17163-.009.34558-.00916.5166-.00018.28443.00367.5672.00782.84992.00183.12683.0086.25171.01129.37817l.0014.046c.0044.19745.01117.394.01764.59058.00714.218.01.43774.01965.6546.00537.11938.00458.24109.01075.36011.00347.0672.00482.13531.00854.20239.00464.08374.01477.16522.01978.24878.02472.41077.06311.816.09716,1.223.01813.21655.031.4353.0517.65076l.00232.02893c.00647.06683.00934.13513.01605.20184.00983.09729.01728.19556.02765.29267.009.0841.02332.16607.03272.25.07837.70153.167,1.39886.27368,2.08874.00689.0445.01062.09033.01764.13477.02484.15759.06006.31085.08636.46783.09613.57355.19983,1.144.31568,1.70935.05371.26184.11169.52191.16961.782.10529.47272.21967.94159.33893,1.40839v.00006l.00085.00354c.00886.03479.01624.07019.02521.10492l.004.0163c.06531.25262.12939.50561.19879.75653.04.14477.08734.28644.12879.43066.05725.19953.11828.3974.17822.59583.06878.228.13251.45825.20477.68481.05225.1637.09894.32977.153.49274.01385.04169.03063.082.04455.12366.03162.09436.06873.18627.101.28039.19806.57874.40033,1.15576.62128,1.72467.01624.04175.02924.08484.04559.12653.05384.13733.11762.27038.17279.40716.09656.23938.20172.475.30237.71265.045.10614.08924.21246.135.31818l.02374.05584v.00006c.06977.16071.13361.324.20533.48389.10406.23212.21161.46283.31964.69324.15.31976.31012.635.46777.95135.07788.15631.15137.31452.23114.47l.00665.01362c.1084.21124.21436.42352.32624.63317.13366.25055.27984.49549.41839.7439.20893.37445.41071.75208.63086,1.12158.0235.03943.04456.08.06818.11933.38556.64282.79315,1.27563,1.21265,1.90319l.01806.02839c.03931.05871.07385.1195.11347.178.08978.13281.19012.26086.28143.393.25763.37274.52417.74152.79388,1.10877.03363.04577.06513.09246.09894.13812l.00006.00006c.02362.03192.04541.06476.06916.09662q.23409.31467.47351.62683c.12255.1593.25329.31482.37823.473.30408.38513.60284.77271.92072,1.15149.031.03693.06.07471.09112.11157.06073.072.12769.14105.189.21277q.65377.76566,1.34478,1.514.1908.20635.38483.41113c.04614.04883.09583.09607.14215.14472.18573.195.37958.38617.56922.57928.30889.31464.60772.634.92706.9436l.01636.01667c.32348.31366.67584.6076,1.009.91473.4718.435.93811.87372,1.429,1.29553.13312.11432.27167.22473.40613.33814.12073.10174.2428.20251.36456.30346.02942.02442.06092.04749.0904.07184q.88851.73362,1.81329,1.44092c.05469.04163.10986.08276.16474.12421.22625.171.45.34369.67956.51214.05566.04084.11517.07874.171.11939q.94738.69012,1.934,1.35034c.09979.06708.19373.13873.29407.20538.13806.09168.26965.18842.40887.2793.0846.05524.17578.10516.26081.1601.18219.11773.37506.22686.559.34314.13806.08728.28045.171.41949.2575.569.35376,1.1308.71332,1.71637,1.05359.08545.04968.16467.10437.25049.15375.19812.114.41.21637.60992.3288q1.13635.63894,2.31061,1.24548c.33985.175.6803.34912,1.0249.52l.008.00378q1.26837.62851,2.58026,1.21777c.24378.10975.48132.22529.72724.333q1.61544.7079,3.2951,1.35492.36347.14091.73047.27826c1.1485.43329,2.31164.85217,3.50018,1.24457.01947.00641.03778.014.05725.02039.06488.02136.1333.03906.19831.0603.96771.3164,1.95782.60858,2.9508.8977.17542.05109.34516.1084.52136.15863l.01423.00434c.23522.06695.46881.13549.70538.201q1.82.50363,3.6925.94689c.24311.0575.48926.11139.73365.16736q1.80807.414,3.6596.77448c.11591.02228.22943.04748.34558.06952.87311.16534,1.76716.303,2.65473.4494.44311.07306.87878.15607,1.32544.22443.14984.02288.29437.05285.44464.07525.13818.02057.28137.03406.41986.0542.30426.04419.61652.077.9223.119.30542.04193.614.0791.921.11884.73761.09552,1.46692.20282,2.21332.28558.184.02038.37067.03668.55518.05627.183.01947.371.0315.5545.05017.75781.07721,1.5227.14313,2.289.20722.3407.0285.67548.06628,1.01782.09216.2439.01843.486.03986.73078.057.03314.00232.06726.00305.10046.00537h.00006c.06714.00464.136.00628.20325.01086.828.056,1.6673.09314,2.50445.13391.47144.023.93616.05732,1.41041.07544.29956.01148.60083.02008.90148.02954,1.39618.04413,2.80158.072,4.22052.0741.07007.00012.13825.00366.20838.00366.15155,0,.30353-.001.45532-.00146.16449-.00049.3288-.00055.49359-.00165q.47506-.00311.95172-.0094t.95484-.01575c.16961-.00335.33978-.00781.50976-.01172h.00012l.07593-.00177c.12421-.00292.24811-.00524.37256-.00854l.001-.02869.06671-1.98565.00635-.18952.03033-.90381.04248-1.26507.00263-.07794v-.00006l.18365-5.46686.017-.50592.03845-1.14386.00537-.16022.02716-.80841.01581-.47046.00122-.03656.04724-1.40649.08942-2.66315.03931-1.1695V160.672l.00537-.16052.017-.50659.04272-1.27307.01422-.42224.00287-.085.00879-.26178.00665-.19928.02454-.73078v-.00006l.02838-.84363.03125-.93011.0332-.98969.01587-.47223V153.797l.00324-.09655.0097-.28846.00775-.23028.00489-.14588c-.105-.00494-.20685-.01342-.31159-.01867-.16565-.00836-.32794-.02051-.49292-.0296-.20721-.01148-.41315-.02448-.6192-.03718-.06921-.00427-.13879-.008-.20783-.01245h-.00012c-.29608-.01886-.59729-.032-.891-.05346-.04571-.00336-.0899-.0083-.13556-.01172-.31762-.02368-.62848-.05487-.94342-.08161-.24859-.02105-.4975-.04138-.74432-.06433-.1969-.01831-.39826-.03192-.594-.05139-.10913-.01086-.21563-.02441-.3244-.03564q-1.00222-.10354-1.986-.22669c-.15967-.0202-.31708-.04278-.47589-.06378-.1178-.01562-.23279-.03406-.3501-.05011l-.09485-.01355c-.03973-.00549-.079-.01141-.11877-.017-.29987-.04181-.6-.08355-.897-.12835-.07386-.01117-.14936-.02057-.223-.03186-.037-.00568-.075-.01032-.112-.01606h-.00018c-.07483-.01159-.15222-.02069-.22687-.03247-.52362-.08276-1.03588-.17682-1.55017-.26886-.12451-.02227-.25134-.04223-.3753-.06506-.036-.00659-.073-.01227-.10895-.01892-.55969-.10394-1.1095-.21729-1.65778-.33228q-.737-.15444-1.46069-.32147c-.22217-.05157-.44232-.1051-.66254-.15851q-1.25664-.30486-2.47106-.6485c-.16346-.04657-.33228-.08831-.49451-.136-.01837-.00537-.03583-.01154-.0542-.017-.05017-.01477-.09827-.03149-.14838-.04645-.61017-.18152-1.21411-.36865-1.80658-.56579-.32617-.10852-.64148-.22638-.96222-.3396-.191-.06745-.38348-.13361-.57251-.2027-.77649-.28375-1.54144-.57727-2.28454-.88892-.12525-.05255-.24622-.10864-.37049-.16192-.16058-.06891-.31652-.14142-.47546-.21161-.34845-.15387-.70184-.30383-1.04248-.464-.439-.20648-.86438-.42371-1.29022-.64057-.11969-.061-.244-.11828-.36267-.18-.13434-.07-.26453-.14307-.39752-.21411q-.58017-.30972-1.144-.63208c-.16809-.09644-.33423-.19434-.49994-.29254-.31054-.18408-.61493-.37281-.91717-.56305-.038-.02393-.07746-.04682-.1153-.0708-.1485-.09418-.29858-.18714-.445-.28278-.47138-.308-.93537-.6214-1.38538-.94482-.3808-.27381-.74561-.55793-1.11-.84235l-.002-.00153c-.06433-.05029-.1322-.09826-.19605-.1488-.20843-.165-.40838-.335-.61126-.50348-.084-.06976-.16644-.14062-.24957-.211-.16376-.13867-.33161-.27478-.49164-.41565-.199-.17511-.39038-.3543-.58356-.53271l-.02283-.02149c-.1701-.15734-.33886-.31542-.50439-.47528-.05176-.05-.10645-.09845-.15778-.14868-.18786-.1839-.36908-.37109-.5509-.5581-.11395-.11719-.225-.23572-.33655-.35413-.09857-.10461-.20068-.2074-.29742-.31293-.06781-.074-.14173-.14508-.20862-.21954-.09387-.10449-.17835-.21338-.27039-.31873l-.03436-.04052c-.19824-.22779-.39416-.45673-.58392-.68842-.07068-.08642-.14814-.16968-.21765-.25659-.08991-.11243-.16993-.229-.25788-.34228q-.27255-.3513-.53308-.70765c-.11584-.15918-.23236-.31793-.3443-.4787-.0318-.04559-.06036-.0924-.0918-.13818-.0205-.02985-.03949-.06024-.05987-.09015-.11249-.165-.22217-.33105-.33057-.49762-.03051-.04693-.06292-.09308-.09314-.14013-.072-.11206-.15173-.2212-.22186-.334-.0368-.0592-.068-.12042-.10431-.17981-.02386-.03906-.045-.079-.0686-.11816-.13092-.2168-.2558-.43561-.37989-.65479-.01739-.03076-.03607-.06115-.05334-.092-.07025-.12524-.14874-.24762-.21674-.37359-.04663-.08643-.08544-.17536-.131-.26215l-.00513-.01013c-.13293-.25342-.25872-.509-.3825-.7652-.10535-.21808-.21063-.43591-.30927-.65594-.01147-.02558-.0213-.05164-.03265-.07721-.05109-.11487-.09735-.23108-.14661-.3465-.05145-.12054-.10364-.24091-.15307-.36194-.08991-.22027-.181-.44006-.26423-.66205-.02514-.067-.046-.135-.07055-.20215-.02631-.07208-.05-.14477-.07562-.217-.03534-.09967-.07044-.1994-.10444-.29937-.01007-.02954-.02087-.05884-.03082-.08844-.07428-.2215-.15112-.4422-.21887-.66516-.04608-.15168-.08337-.30518-.1264-.45752-.02887-.10242-.0575-.2049-.085-.30756l-.01824-.066c-.0456-.17218-.10071-.34235-.14234-.51526-.01172-.04864-.01874-.0982-.03015-.14691-.067-.28613-.121-.57446-.17712-.86249-.01423-.07312-.03144-.14581-.045-.219-.02643-.14313-.05664-.28559-.08038-.42914-.0177-.10706-.02747-.21521-.0437-.32251-.02966-.19653-.05542-.39356-.08-.59082-.02545-.20435-.05774-.40765-.07776-.61273-.00671-.069-.00769-.13874-.01379-.20789-.01782-.20154-.02765-.404-.0401-.6062-.00433-.07007-.01013-.13995-.01386-.21014-.00348-.06684-.01031-.13337-.01324-.20032-.00409-.09241-.01538-.184-.01831-.27649-.00037-.01251.00049-.025.00012-.03754-.001-.03277.00116-.066.00031-.09881-.0033-.12659.00232-.25379.00116-.38056-.00025-.02594.00036-.052.00024-.078-.00043-.07184.00037-.1438.00061-.2157l.00018-.04346c.00141-.2442-.007-.48754.0022-.7323v-.00018a19.61476,19.61476,0,0,1,.22827-2.32788c.07215-.45618.16528-.91119.26917-1.36523.07245-.31672.14764-.63318.23529-.94849a22.83557,22.83557,0,0,1,1.48907-3.88177q.043-.08817.08686-.17634c.02551-.05133.04992-.10278.07586-.154.05335-.10547.10108-.212.15619-.31714q.29077-.55453.61316-1.10192c.4538-.77057.95728-1.52875,1.50281-2.27375.22943-.31329.4638-.62494.7091-.933.61817-.77631,1.29163-1.53333,2.0083-2.27234.564-.58154,1.15278-1.15283,1.77594-1.70776.29358-.26154.61335-.53388.947-.81067a39.41285,39.41285,0,0,1,3.68042-2.69068c.15979-.10382.305-.2066.47-.3106.96-.60505,2.02136-1.21088,3.16314-1.80585a48.28147,48.28147,0,0,1,4.52125-2.071,57.0608,57.0608,0,0,1,10.53955-3.00879,73.9422,73.9422,0,0,1,13.66693-1.20984l.2088.00024q.10446.00027.20923.00079t.2099.00129q.1052.00072.21069.00177l.79468-23.66089q-1.12647-.05924-2.2348-.10358Q430.28254,67.79193,429.19342,67.7623Z" style="fill: #00f4ff"/>
    <path d="M1004.89606,106.26065c-.52246-1.15-1.074-2.29224-1.688-3.41632-.14612-.26734-.312-.52851-.46314-.79425q-.969-1.70425-2.0791-3.36255a59.19511,59.19511,0,0,0-4.44287-5.85187,68.33086,68.33086,0,0,0-9.44946-8.97174,77.15259,77.15259,0,0,0-8.67041-5.90192q-1.51831-.89025-3.08179-1.717-1.56225-.82635-3.16772-1.58856a85.47667,85.47667,0,0,0-9.9751-3.98267q-1.7157-.564-3.46423-1.06073a91.614,91.614,0,0,0-10.74207-2.35955c-1.53955-.243-3.09509-.43476-4.65747-.6023-.11328-.01215-.2273-.02154-.3407-.03332-.79956-.08283-1.59753-.17218-2.40222-.23505q-3.73994-.292-7.545-.29321-3.785,0-7.506.29321-1.85888.14611-3.69726.364-1.838.21781-3.65332.50666t-3.60523.64776c-1.82031.365-3.6123.80121-5.38794,1.27338-1.71533.45617-3.416.94482-5.08422,1.49914a83.22875,83.22875,0,0,0-9.8545,3.98267q-1.58331.76209-3.12353,1.58856-1.54047.82663-3.03552,1.717a74.83717,74.83717,0,0,0-8.52112,5.90192c-.782.62768-1.5376,1.26959-2.27979,1.91833l-.03637.03077c-.07154.06262-.14893.12225-.2201.18512-.162.143-.31128.29235-.47131.4364q-.77637.69818-1.52368,1.41064l-.00782.00733-.02075.02q-.35889.34368-.71106.69042-.741.73123-1.44836,1.47822c-.20142.21179-.40723.42144-.60474.63494q-.86938.94007-1.68615,1.90284c-.069.08111-.14478.15924-.21326.2406l-.01862.021c-.043.05115-.08124.10425-.12408.15546-.06226.07452-.11865.15137-.18042.226q-.67081.81043-1.30536,1.63532c-.04376.05682-.09143.11212-.13489.169-.04162.05445-.08063.10993-.122.16443-.1391.18341-.27362.36847-.41009.55292q-.57789.78112-1.12531,1.57349c-.09387.13635-.18524.27356-.278.41028-.06769.09942-.13581.19873-.20233.29858-.01838.02759-.03754.05493-.05585.08252-.115.17334-.22064.34985-.33337.524-.24518.37872-.49073.75744-.725,1.13983-.13794.22516-.28131.4483-.41547.67474-.15362.25916-.291.52344-.43963.78424-.27765.48712-.5611.97254-.82129,1.46509-.01911.03613-.0412.07123-.06018.10736-.0083.01587-.01813.03125-.02643.04712-.04968.09485-.09107.19214-.14014.28723-.11944.23145-.22571.46661-.34125.69922-.22754.45776-.45916.91437-.67163,1.3764-.05334.116-.102.23328-.15442.34949-.06665.148-.1314.29651-.19659.44495-.06787.15466-.12866.31122-.19489.46637-.17413.408-.34985.81549-.51232,1.22638-.01008.02551-.02173.05053-.0318.076q-.15216.387-.29767.77533l-.01532.04382q-.32877.88184-.61981,1.77246c-.02857.08685-.05866.17334-.08674.26025-.04644.144-.09857.28669-.14361.431-.01251.0401-.02179.08081-.03424.12091-.24542.79377-.47534,1.59082-.67774,2.39331-.00628.02491-.01477.04938-.021.07428-.03186.1272-.05292.25635-.08368.38373q-.25149,1.04113-.45581,2.09088l-.00006.00019-.00025.00128c-.05725.29651-.10614.59424-.15753.89172l-.00043.00269q-.14977.86709-.26745,1.73919c-.04175.31311-.08185.62635-.11713.94037-.06769.60248-.12,1.20691-.16363,1.81256l-.00006.00061-.00025.003c-.0199.27613-.04553.55146-.06036.82819l-.00006.00134c-.02027.37793-.02008.75812-.031,1.13709l-.00134.05029c-.01337.48444-.04157.96729-.03949,1.45337l.0014.03626q.0077,1.52626.11817,3.03418l.00006.00091c.0246.34064.07281.67645.105,1.01556l.00128.012c.01691.17749.04047.35364.05762.53113.04748.49231.09149.98529.15985,1.47308.05633.40185.13653.79828.20349,1.19769.06342.37848.12.75849.19281,1.13477.0423.21856.08124.43774.12671.65552.088.42175.19794.83776.29767,1.25653.07086.29742.14868.593.22162.88983.06506.26489.12469.53125.19775.794l.0003.0011c.11866.42688.25678.84815.38758,1.27155.16717.54138.3324,1.08307.5191,1.61865.149.42767.315.85.47632,1.27393l.00165.00421c.19787.51971.39545,1.03918.61145,1.553l.00073.0017c.17883.4253.37195.84565.563,1.26673l.00171.00366c.22815.50275.458,1.00458.70343,1.50116l.00092.00189c.20739.41962.42663.83472.64617,1.24976.15815.29895.30109.6037.46546.90021.10473.1889.22412.37176.33136.55969.23517.41229.47986.82062.727,1.228.03406.0561.07043.11115.10461.16718.25525.41827.51294.83539.78113,1.24823l.001.00159q.39193.60333.80261,1.19812c.018.02618.03723.05169.05524.07782q.45043.65295.91992,1.29681l.00134.00183q.42866.58512.87323,1.16229c.15857.20533.30457.41681.46625.62055.19189.24176.40112.4743.59741.7138.30982.37806.62244.75452.94306,1.12677.15209.17652.29272.3592.44714.53437.22656.257.47119.5036.70288.75769q.42517.46654.86035.92743c.04895.05188.096.105.14526.15667.40381.42243.81959.83747,1.23755,1.25123l.0011.00109c.31653.31336.63391.626.95764.93494.03589.03436.07032.06976.10645.104.13086.12372.25293.253.385.37586.27441.25519.56641.49853.84619.75006l.01978.01764.07446.06592c.09057.08117.18237.16162.27344.24243v.00006c.12036.10657.2395.21374.36071.31964.06226.05432.12268.11.18518.16419.1001.08691.19605.17675.29688.26318.045.03857.0874.079.13257.11755.30273.25794.616.50806.92444.7619.12036.099.24377.19581.36511.29419.3833.311.762.62549,1.15393.93012.09936.07721.1925.15893.29248.23572.04553.035.09424.06762.13989.10254v.00006l.00305.00219c.16053.12275.32959.23871.49146.36036.19824.14892.40137.29376.60156.441.3971.29206.78784.589,1.19287.87458.01685.01178.03247.02429.04932.03607l.00024.00018c.05884.04138.114.08563.173.12683.06848.04785.141.0921.20971.13977.23694.16443.484.32007.72351.48224.50831.34406,1.015.68921,1.53492,1.023.40551.26032.82129.51105,1.23388.765.46216.28454.9253.56829,1.39612.84466.05676.03333.11145.06873.16846.10193.42908.25043.86706.49231,1.30322.7359.529.29553,1.05884.59009,1.59778.87531.18921.10009.37329.20513.56372.30395.262.136.53406.261.79834.39453.3125.158.62842.312.94409.46649.233.11408.46228.23224.697.34442.19007.09076.37305.18934.56421.27887.27808.13019.56653.248.84668.37549q.83808.38142,1.688.74848.72254.31,1.45532.60693.86023.35055,1.73291.68494c.25342.09692.49951.20337.7544.29821.24438.09089.49682.17023.74243.25916q.88366.3198,1.78015.62146c.28565.09656.56409.20337.85169.2973.22363.07312.45434.13544.67919.20691.60511.19245,1.21558.37641,1.82825.55707.51965.1532,1.03919.30548,1.56409.45013.62146.17127,1.249.3321,1.87768.49115.52686.1333,1.053.26746,1.585.39209.64063.15009,1.28785.28785,1.93543.42517.38147.08094.75647.17408,1.14026.25049.15063.03.3053.05219.45654.08155.66358.12872,1.33423.24292,2.00464.35809.52979.09106,1.05713.18683,1.59106.26929.69312.10705,1.39356.19714,2.09327.28949.52124.06878,1.03942.1444,1.56421.205.73522.08484,1.478.15021,2.21984.21863.49817.046.99268.10107,1.49353.13947.82813.06359,1.66419.10461,2.49964.1474.35412.01812.704.04809,1.05945.06243l.20288.00812c1.03149.03955,2.0708.05377,3.11206.0611.23364.00165.464.01367.698.01367.75854,0,1.50854-.02716,2.26171-.04425.55738-.01263,1.11927-.01172,1.67359-.03357.13684-.00543.27112-.01807.40784-.024.46057-.02008.91589-.0545,1.37414-.08093l.15454-.00909c.43872-.026.87976-.04578,1.31641-.07752.48657-.03528.97009-.07739,1.45386-.11975l.00048-.00006c.52466-.046,1.046-.1001,1.56739-.1543.32153-.03338.64636-.05859.96655-.09515.58374-.06659,1.16089-.14758,1.74011-.22443l.00086-.00012c.51611-.06842,1.032-.13727,1.54443-.21374.75586-.1128,1.50269-.24421,2.25024-.37421.18018-.03131.36267-.0578.54236-.09015.44129-.07941.88611-.15161,1.32434-.23688q1.91674-.37317,3.79468-.81787l.00562-.00122c.06811-.01623.1383-.029.20629-.04541,1.18531-.28552,2.35047-.60419,3.50892-.93371.13293-.03522.26721-.06818.39856-.10608.40454-.11676.80078-.24579,1.2019-.36768.62964-.19128,1.26562-.37329,1.88672-.57715.24731-.08111.48657-.17383.73242-.257l.00244-.00079c.46277-.15643.92029-.32025,1.37818-.48358q1.20006-.42828,2.37695-.8869l.00244-.001c.45166-.17633.90259-.35333,1.34888-.53638.33886-.139.68139-.27307,1.01709-.416.46655-.19843.9209-.411,1.38122-.61682l.00379-.00165c.38647-.17291.77783-.34021,1.16015-.51819.07544-.03522.15406-.067.22937-.10242q1.45734-.68417,2.86731-1.42022l.01074-.00537c.10206-.05292.2085-.10114.31006-.15448l.04-.0199c.13892-.07294.27124-.15277.40943-.22644q1.43811-.76611,2.82776-1.57971l.00085-.00049c.32983-.19373.64844-.39765.97388-.59546.7362-.44733,1.46533-.9007,2.17859-1.36847l.00256-.00171c.3772-.24737.747-.50091,1.11767-.75384.34485-.23529.70069-.46119,1.03968-.70124.30066-.21289.58532-.43841.88147-.655l.00256-.00189c.36426-.26648.7273-.53387,1.0846-.80584.21313-.16236.43664-.31678.64746-.48108.42248-.32947.824-.67432,1.2362-1.01148l.002-.00165c.309-.25268.62353-.50116.92651-.758q1.177-.99812,2.29138-2.03864l.01025-.00934c.10962-.10217.22657-.19952.33533-.30224.01477-.014.03089-.02722.04578-.0412.83227-.78815,1.63244-1.59668,2.41064-2.41828l.00159-.00177c.63855-.67419,1.26318-1.35668,1.86389-2.05242.079-.09137.152-.18586.23023-.27759q.79833-.936,1.55017-1.89661c.188-.24023.36828-.48413.55188-.72662q.57824-.76437,1.12817-1.54254.27978-.39735.55261-.79767c.3667-.5409.71985-1.08783,1.0647-1.63849.14551-.23242.296-.4624.43762-.69653.47229-.78113.927-1.56977,1.35449-2.36927l.01612-.02813c.03589-.067.06555-.13623.10107-.20337q.57385-1.08683,1.09009-2.19556c.12268-.2627.23657-.52832.35425-.79272q.38013-.85336.728-1.71784.175-.43753.34179-.87744c.18372-.48706.35181-.97907.51929-1.47125.03564-.10474.07568-.208.11047-.31293.08655-.26056.17835-.51935.26026-.78131.267-.85394.5155-1.71344.73242-2.58154.01062-.04218.01794-.08515.02844-.12738.00684-.02747.01123-.05555.01782-.083q.2937-1.19916.52088-2.41541c.03454-.18371.06677-.36773.09912-.55194.01648-.0946.02649-.19079.04236-.28552.104-.61688.19751-1.23621.27588-1.85889q.05895-.46846.10839-.939c.06592-.62976.11573-1.26282.155-1.898.01734-.28095.04016-.56073.05225-.84272.03931-.90973.05859-1.82336.04224-2.7431a46.17922,46.17922,0,0,0-1.62793-11.34149A48.96317,48.96317,0,0,0,1004.89606,106.26065Zm-87.79126,50.5758a45.32815,45.32815,0,0,1-12.7052-6.70984c-.31592-.23968-.63526-.47662-.94226-.72381-.2837-.22852-.55494-.46686-.83081-.70166a38.19871,38.19871,0,0,1-3.61377-3.50318v-.00006c-.67969-.75378-1.33155-1.5249-1.93641-2.32226a33.12855,33.12855,0,0,1-2.58007-3.97107c-.09253-.16705-.19324-.33051-.2826-.4989-.01709-.03223-.03149-.06549-.04846-.09778l-.00024-.00037a30.60326,30.60326,0,0,1-1.48938-3.291c-.12671-.33087-.2439-.66492-.35877-.99982l-.00232-.00616v-.00013c-.23523-.68689-.45422-1.379-.63745-2.08184-.11865-.455-.22314-.91388-.3164-1.37586q-.13953-.69286-.24829-1.39392v-.00006c-.03431-.2179-.07837-.43335-.10755-.65247-.109-.818-.16907-1.64679-.20581-2.48022-.01526-.34668-.03772-.692-.04016-1.04114-.002-.279.01416-.555.02026-.83264.00684-.30145.006-.60419.02222-.904.0083-.15546.026-.309.037-.464.01477-.20929.03552-.41748.05481-.62586.0382-.41137.08276-.82122.13867-1.22888v-.00006c.02-.14661.0437-.29242.066-.43848.0282-.18469.05188-.37042.08362-.55432.12231-.70855.26758-1.41162.44189-2.10717.03137-.12555.0708-.24891.104-.374v-.00012c.08056-.30426.16284-.608.25293-.90948.08178-.27332.17089-.54432.26049-.81531l.00074-.00275q.10143-.30651.20971-.61078.28491-.80319.61548-1.59088c.05969-.14264.11353-.28729.17554-.42914.25744-.59.52978-1.17456.82409-1.7503.03125-.0611.06727-.12018.099-.18109l.02271-.04169c.07251-.13922.15137-.27563.22607-.414.12647-.23419.25074-.46936.38306-.701l.00012-.00031c.04236-.07391.07947-.15008.12219-.22375.10523-.18079.22217-.35608.33094-.53516q.13494-.222.27343-.4422l.03553-.05743c.01269-.02087.02539-.04175.03857-.06244.13135-.207.27564-.40759.41162-.6123.20227-.30433.39917-.61127.61206-.91028.053-.07447.1023-.15082.156-.225.0376-.05212.07153-.10626.10962-.1582.39184-.53516.80371-1.05914,1.228-1.57587q.44166-.53769.907-1.06079c.059-.06647.114-.13544.17358-.2016.01709-.01916.03589-.03735.05322-.05652q.564-.62466,1.15918-1.22876c.12476-.1264.25611-.2478.38294-.3728.14392-.14191.291-.28143.43762-.42151.15381-.147.30273-.29767.45947-.44262.16895-.15638.34424-.30756.5166-.46143.09717-.08691.19629-.17218.29468-.2583.155-.13593.30762-.274.46521-.4079.02356-.02008.046-.04108.0697-.061.05469-.04633.10621-.09528.16114-.14136.13745-.11487.28235-.22315.42151-.33649.2727-.22211.5465-.44336.82605-.65942.20654-.15961.4165-.31549.6267-.47174.27942-.20771.56067-.41333.84644-.615.09985-.0705.19531-.14527.2959-.215.11719-.08118.24023-.15649.3584-.23669.02527-.01709.05127-.03351.07666-.0506.19409-.13105.3905-.25971.5874-.38794.072-.047.14246-.0954.21484-.142q.33655-.21653.67749-.42822c.21582-.1333.43579-.262.65454-.39185.08765-.05206.17408-.10541.26209-.15692.22888-.13373.45715-.26782.68909-.39789.31982-.17932.64453-.35241.97021-.52466.22827-.12085.45508-.24334.68628-.36059.1377-.06983.27918-.13452.41785-.20307q.316-.15627.63489-.30859c.21691-.10315.43139-.20966.65063-.30969.15015-.06848.30481-.1308.45605-.19788q.33508-.14841.6731-.292c.03821-.01624.07581-.03333.114-.0495.16944-.07129.33545-.14734.506-.2168.39746-.1618.80261-.3114,1.20666-.463.15381-.05774.30481-.12018.4596-.17639.042-.01526.08264-.03271.12463-.04785l.026-.01c.11145-.04.22632-.07422.33826-.11346.4862-.1706.97485-.33735,1.46948-.4928.22119-.06958.44641-.13147.66931-.198.09473-.0282.19031-.05457.2854-.08228.3064-.08929.61109-.18194.92053-.26544.06275-.0169.1239-.03717.18689-.05389.19007-.05042.38465-.09143.57581-.13965.05432-.01367.10925-.02625.16369-.03973.222-.05518.44446-.10987.66785-.162l.06262-.0152c.06018-.01392.11939-.02978.17957-.04352.785-.17883,1.57568-.34466,2.37671-.4851l.03637-.00556c.06714-.01172.13575-.01971.203-.03113.74939-.12756,1.50622-.2351,2.26819-.32806.20507-.025.41186-.045.61767-.06751l.1438-.01568q.91735-.09723,1.84522-.15991c.23535-.016.47021-.0337.70642-.04627l.05114-.00336c.13746-.0072.2732-.02087.41089-.02691.42627-.01862.85657-.02057,1.28565-.02808.2876-.00506.573-.01886.86194-.01886q2.16924,0,4.29455.186,2.12347.18447,4.19141.54529a48.93058,48.93058,0,0,1,7.98,2.09106,47.65134,47.65134,0,0,1,5.542,2.369q.88659.44778,1.74695.92932a44.332,44.332,0,0,1,6.40784,4.35138q1.47691,1.20731,2.81616,2.52411a38.27428,38.27428,0,0,1,3.67065,4.16638,35.27071,35.27071,0,0,1,2.04358,3.003q.46819.77124.89185,1.56183a29.71268,29.71268,0,0,1,3.62439,13.63812c.01086.73969-.01746,1.472-.064,2.20044-.0022.03424-.00574.06818-.00818.10236q-.0185.25571-.04089.51043v.00122c-.02026.23536-.03052.4729-.05664.70691-.03748.33527-.09387.666-.14331.99842q-.02233.15042-.04321.30127c-.00928.067-.0177.13421-.02881.20074v.00024l-.00025.00061c-.10791.64563-.23242,1.28724-.38452,1.921-.014.05883-.03308.11615-.04761.17486-.03637.14777-.08105.293-.11987.44013l-.00122.00415c-.06543.24743-.12988.49505-.2019.74054-.09034.30847-.19.61395-.29078.91912-.06408.19434-.12854.38855-.19677.58149l-.00049.0014c-.2207.62311-.458,1.24036-.72083,1.84845-.02282.05273-.04162.10693-.06482.15955l-.00061.00152q-.3565.81227-.7611,1.6059c-.05713.11206-.12293.22058-.18165.332-.09252.17566-.19018.34894-.28625.523l-.00134.00262q-.41016.74333-.86219,1.46729c-.09631.1543-.189.31036-.28808.46332l-.00134.00213c-.36841.56854-.75061,1.13037-1.157,1.67957-.02807.03778-.05908.07385-.08728.11157-.08972.12018-.1864.23645-.278.35565q-.50538.65846-1.045,1.29724c-.14636.17267-.296.34345-.44616.51386q-.51361.58282-1.05689,1.14654c-.14258.14826-.282.29859-.42749.44489-.50366.50653-1.021,1.00372-1.55908,1.486-.05737.05139-.11853.09986-.17627.15094-.39014.34552-.78442.68811-1.19177,1.02045-.1001.08166-.20642.15826-.3075.23913-.17773.14216-.35986.28077-.54065.42041q-.53667.41428-1.08972.81421c-.06555.04724-.13257.09333-.19848.1402-.1875.13324-.37329.2674-.56372.398q-.83241.5712-1.7002,1.10925c-.06323.03913-.12366.08106-.18726.11994-.34179.20862-.69409.40631-1.04394.60669-.30957.17736-.61878.35479-.93445.52557-.192.10382-.38818.20239-.5824.30377q-.75.39158-1.52075.75861c-.22314.106-.44653.21155-.67224.31433q-.78278.35641-1.58679.68487c-.043.01764-.08545.03589-.12842.05341-.15442.063-.30542.13049-.46094.192-.66821.26416-1.34472.51709-2.03222.75335-.065.02228-.13208.04108-.19727.06311-.18579.063-.37573.11945-.563.18036q-.86718.28217-1.75219.53516l-.01465.004q-.37482.10647-.75293.20685-.88074.23519-1.77857.43878c-.21386.04876-.42553.1015-.64062.14764-.8053.17267-1.61865.3291-2.44214.464-.13379.02191-.27.03772-.40418.0586q-1.04279.1624-2.10315.2835c-.26281.03-.5271.05542-.7915.08155q-.92431.09127-1.86084.14978c-.25488.01605-.50854.03466-.76465.04712-.86218.04193-1.729.06976-2.60449.06976A51.38868,51.38868,0,0,1,917.1048,156.83645Z" style="fill: #00f4ff"/>
    <polygon points="165.474 159.613 165.474 159.613 165.634 160.535 165.634 160.536 165.679 160.791 166.825 167.388 166.825 167.388 167.847 173.269 167.847 173.269 168.74 178.408 168.74 178.408 168.74 178.409 168.74 178.409 185.848 178.409 185.848 178.409 199.103 178.409 198.827 176.804 198.827 176.804 197.749 170.538 197.708 170.296 197.708 170.296 197.557 169.42 197.557 169.42 196.603 163.875 196.603 163.874 196.264 161.902 196.264 161.902 195.784 159.112 195.784 159.111 194.978 154.428 194.978 154.428 194.825 153.541 193.463 145.623 193.463 145.623 188.676 117.794 188.676 117.794 187.511 111.017 187.511 111.016 186.514 105.223 186.514 105.223 185.351 98.46 180.794 71.967 180.794 71.967 166.048 90.482 162.137 95.392 158.736 99.662 158.736 99.662 154.698 104.732 154.698 104.732 132.272 132.89 128.596 137.505 128.596 137.505 125.412 141.503 125.412 141.503 121.656 146.219 121.656 146.219 69.261 71.888 39.793 178.408 39.793 178.408 39.793 178.409 39.794 178.409 66.793 178.409 82.123 135.122 88.554 144.359 88.554 144.359 94.001 152.183 94.001 152.183 100.277 161.199 118.221 186.975 118.221 186.975 132.136 169.971 136.713 164.379 136.713 164.379 140.571 159.664 140.571 159.664 144.997 154.255 144.997 154.255 145.587 153.534 145.587 153.534 149.292 149.007 149.292 149.007 152.432 145.17 156.055 140.742 161.12 134.553 161.12 134.553 162.568 142.892 162.731 143.826 163.588 148.758 163.588 148.758 164.098 151.696 164.098 151.696 164.459 153.774 164.459 153.774 165.474 159.613" style="fill: #00f4ff"/>
    <polygon points="1452.318 167.78 1452.319 167.78 1454.603 169.385 1455.319 169.888 1455.319 169.888 1479.742 187.047 1482.538 189.012 1482.538 189.012 1483.336 189.572 1484.57 190.439 1484.997 190.739 1486.233 191.608 1486.234 191.608 1487.174 192.269 1487.791 192.702 1487.757 192.127 1487.704 191.249 1487.704 191.249 1487.635 190.092 1487.611 189.69 1487.542 188.539 1487.496 187.777 1487.496 187.777 1487.338 185.125 1485.896 161.046 1485.896 161.046 1485.852 160.314 1485.712 157.969 1485.712 157.969 1485.69 157.599 1485.604 156.168 1485.513 154.64 1485.513 154.64 1485.417 153.04 1485.407 152.881 1485.377 152.381 1485.306 151.187 1485.125 148.166 1484.621 139.75 1484.427 136.517 1484.381 135.743 1484.381 135.743 1484.345 135.137 1484.327 134.847 1484.268 133.858 1484.261 133.737 1484.261 133.737 1484.152 131.924 1484.083 130.766 1483.988 129.179 1483.885 127.45 1483.839 126.685 1483.796 125.975 1483.463 120.405 1482.504 104.386 1482.499 104.302 1482.386 102.425 1482.29 100.823 1482.281 100.669 1482.262 100.339 1482.085 97.382 1482.085 97.382 1481.918 94.595 1481.715 91.208 1480.44 69.914 1480.44 69.914 1475.781 69.914 1471.862 69.914 1447.537 69.914 1448.041 80.227 1448.119 81.82 1448.21 83.689 1449.206 104.047 1449.364 107.283 1449.364 107.283 1449.494 109.946 1449.494 109.946 1449.632 112.771 1449.647 113.086 1449.655 113.234 1449.729 114.764 1449.821 116.638 1449.92 118.656 1450.373 127.927 1450.373 127.927 1450.373 127.927 1442.696 122.593 1442.696 122.593 1441.999 122.109 1439.626 120.46 1439.626 120.46 1437.875 119.243 1436.452 118.254 1436.315 118.159 1436.206 118.083 1436.205 118.083 1436.023 117.956 1433.416 116.145 1430.976 114.45 1428.715 112.878 1428.036 112.407 1410.131 99.965 1408.536 98.857 1407.183 97.917 1398.562 91.926 1398.562 91.926 1394.494 89.1 1394.494 89.1 1391.013 86.68 1386.967 83.869 1353.863 60.866 1355.699 98.642 1355.91 102.98 1356.089 106.667 1356.089 106.667 1356.296 110.923 1356.296 110.924 1356.726 119.762 1356.792 121.128 1356.87 122.73 1357.561 136.954 1357.718 140.176 1357.749 140.819 1357.853 142.95 1357.936 144.665 1357.964 145.233 1357.964 145.233 1358.081 147.653 1358.09 147.822 1358.09 147.822 1358.095 147.923 1358.101 148.05 1358.164 149.361 1358.242 150.967 1358.242 150.967 1358.254 151.201 1358.378 153.763 1358.494 156.138 1358.621 158.762 1358.713 160.642 1358.713 160.642 1358.88 164.077 1359.101 168.634 1359.101 168.634 1359.129 169.215 1359.16 169.841 1359.229 171.255 1359.229 171.256 1359.292 172.554 1359.338 173.501 1359.338 173.501 1359.41 174.984 1359.415 175.083 1359.454 175.892 1359.466 176.129 1359.49 176.625 1359.52 177.257 1359.576 178.409 1364.295 178.409 1387.12 178.409 1392.762 178.409 1392.674 176.695 1392.298 169.412 1392.154 166.613 1392.119 165.944 1392.119 165.944 1392.092 165.419 1392.08 165.168 1392.035 164.312 1392.03 164.207 1391.949 162.638 1391.898 161.635 1391.827 160.261 1391.75 158.765 1391.715 158.102 1391.684 157.488 1391.684 157.488 1391.435 152.665 1391.248 149.03 1391.248 149.03 1391.145 147.041 1390.967 143.581 1390.872 141.751 1390.733 139.04 1390.72 138.793 1390.632 137.093 1390.561 135.706 1390.554 135.572 1390.554 135.572 1390.549 135.465 1390.549 135.465 1390.539 135.286 1390.407 132.725 1390.407 132.725 1390.376 132.124 1390.283 130.31 1390.167 128.056 1390.132 127.376 1389.956 123.966 1389.956 123.966 1393.126 126.193 1393.762 126.64 1395.88 128.129 1398.166 129.734 1400.608 131.45 1400.779 131.57 1400.779 131.57 1400.882 131.642 1400.882 131.642 1401.01 131.732 1402.343 132.669 1403.983 133.821 1406.858 135.841 1406.858 135.841 1407.965 136.619 1414.048 140.892 1414.048 140.892 1417.7 143.458 1422.609 146.907 1422.609 146.907 1423.241 147.351 1423.922 147.83 1425.468 148.915 1426.893 149.917 1427.936 150.65 1429.577 151.803 1429.687 151.88 1430.586 152.511 1430.85 152.697 1431.402 153.085 1431.402 153.085 1432.109 153.581 1435.078 155.667 1442.932 161.186 1445.797 163.199 1446.936 163.999 1447.415 164.335 1447.553 164.432 1449.102 165.52 1449.102 165.52 1450.575 166.555 1451.96 167.528 1452.318 167.78" style="fill: #00f4ff"/>
  </g>
</svg>
