<svg id="Orignal" xmlns="http://www.w3.org/2000/svg" viewBox="0 0 1920 1459.83804">
  <title>Two-Tone</title>
  <g id="Retro">
    <g>
      <path d="M486.45361,775.378l2.49756.76452-.15283-.61157C488.03369,775.47989,487.218,775.42886,486.45361,775.378Z" style="fill: #ff45e5"/>
      <path d="M1872.02417,572.919c-90.41211-106.21362-241.41772-114.49664-286.33716-114.49664h-.06372c-136.16016-176.683-315.13672-236.51178-385.54236-254.03357,65.75452-118.3833,230.71375-128.76892,232.434-128.83264l112.07532-5.7981L1439.52344,30.3182c-83.91333-31.47546-177.12891-38.48413-277.22583-20.835C1083.29028,23.43692,999.95068,52.74606,914.50806,96.646,785.42065,162.91006,692.2688,241.21634,670.79663,259.9487,577.13477,282.50393,529.79419,306.461,369.04,410.89059,216.314,510.15927,46.385,538.3215,44.72827,538.57638L0,545.71249l31.794,32.30377C249.70093,799.55484,463.08374,809.30337,472.06763,809.622l17.07568.57348c23.44727,81.23706,93.4707,86.844,128.89624,78.115C742.09375,872.318,928.71631,750.11172,955.66772,732.144c72.95411-21.59955,128.89624-12.42456,158.14185-3.75928-58.55444,113.03125-37.65576,199.93921-36.69995,203.82569l10.25806,40.58691-38.86646-13.25293-12.16968,39.75854-249.446,13.50757c-322.08154,14.782-414.53272,175.91846-418.35571,182.79969L320.55225,1282.518l81.68335-56.45178c115.00634-79.45325,211.79-68.04822,212.68212-67.98437l1.46534.19116h1.46533c143.55078,1.72033,171.84057,45.04675,174.835,50.46264l4.58765,24.849,26.31445-10.44934c.82812-.3186,80.40893-31.15686,139.15454,17.01209,14.145,11.59607,21.66309,24.403,22.9375,39.18493,2.80347,31.79407-23.44727,62.88709-23.63843,63.142L859.9668,1459.838l132.08178-82.19287c87.354-54.41309,112.77637-124.30884,118.76563-173.36975a232.34494,232.34494,0,0,0-2.48486-70.85156l11.65991-3.18579,25.67724,15.61022,24.84888-31.02941c80.53638-22.2367,154.38257-55.7511,198.6648-77.79651a180.43965,180.43965,0,0,1-10.95923,25.5498l-42.88037,77.22315,75.439-45.87513c94.55371-57.47131,114.1145-140.81115,118.0647-167.63537,93.02466-109.20825,109.46313-233.26227,112.394-272.63837,109.272-71.55249,226.06226-43.13537,227.20935-42.88055L1920,629.3071Zm-259.64185,75.63959c-1.886,32.57141-15.39355,161.48047-112.24108,273.82361-2.75257,21.81616-19.16565,106.02258-114.22913,163.8252l-46.43579,28.23864,26.40356-47.50622c.15308-.30591,11.82569-21.71436,17.17774-47.20044-39.96241,20.79663-124.62744,61.72754-217.95777,87.16272l-21.71435,27.16833-22.2749-13.50769-23.4983,6.47351a220.6733,220.6733,0,0,1,4.07764,76.15259c-5.70874,47.14942-30.22656,114.33106-114.58569,166.83252l-81.25,50.61572,62.84888-72.2279c.25488-.30579,28.95239-34.04956,25.843-69.73023-1.478-17.33056-10.0415-32.16357-26.1997-45.41638-62.84888-51.5332-147.36109-18.75781-148.22754-18.40112l-15.49561,6.16772-3.51709-15.13879c-1.63135-3.619-27.11743-54.59143-183.24585-56.47742l-1.78393-.15283c-.91748-.102-100.72144-12.18237-218.9773,69.47534l-50.25879,34.71216,29.51294-53.521c3.67017-6.67749,93.78931-163.57031,410.88843-178.14843l255.83032-13.81348,11.26489-36.904,38.84082,13.25293c20.08326-13.86451,90.17017-66.87574,114.53492-147.97278-23.6001,14.06836-60.81006,42.8678-95.87891,97.91785l-17.8916,28.08581-8.15552-32.31653c-.9685-3.82287-22.17285-92.209,40.87988-206.69287-26.91333-9.32794-90.73071-24.61969-174.93725.6626-21.969,14.782-211.38233,139.86816-335.3982,155.56775-32.46948,8.15564-97.71411,3.16028-118.96948-73.19641l-1.37622-4.84229-23.60034-.81555c-8.81812-.30579-218.77319-9.88867-434.18262-228.91687L18.68018,551.91507l27.5249-4.43457c1.73315-.30579,173.35718-28.69745,327.80346-129.062C534.82642,313.92514,581.262,290.5798,675.10229,268.15194c17.43238-15.39361,111.52735-95.72607,243.5459-163.51934,84.614-43.47943,167.13843-72.48267,245.228-86.29621C1262.304.9548,1354.00317,7.83609,1436.37451,38.72537l64.68384,24.26282-68.96558,3.568c-1.886.051-181.20678,11.163-245.279,143.946,24.161,5.505,70.64771,18.19714,127.227,44.19305,74.21582,34.15149,180.28943,98.58051,267.14624,212.70764,36.904-.45874,192.57373,3.97589,283.96716,111.32367l29.36023,34.66113-44.04-11.36688C1849.251,601.715,1726.25464,571.5394,1612.38232,648.55862Zm-510.678,318.31311,17.71289-27.84363c24.148-37.91076,49.25171-62.8872,69.832-79.07092C1165.92944,911.37564,1125.34277,948.39419,1101.70435,966.87173Z" style="fill: #ff45e5"/>
    </g>
    <g>
      <path d="M1227.54065,284.36123q-.63556-.21175-1.27087-.42358c-.18335-.04578-.36927-.09521-.55249-.14081C1080.25513,235.628,875.346,276.02359,875.346,276.02359c69.19531-129.215,244.2854-191.911,295.44873-207.83985,9.04761-2.86718,14.27246-4.2052,14.27246-4.2052-8.47461,1.91144-16.75757,4.0141-24.91309,6.24414-.38427.07465-.76733.15442-1.15136.22992-.95459.25788-2.53516.69861-4.70948,1.35389C912.37842,139.90555,818.99707,316.117,818.99707,316.117,1025.69019,233.43985,1227.54065,284.36123,1227.54065,284.36123Z" style="fill: #ff45e5"/>
      <path d="M1070.73,298.10965a146.5565,146.5565,0,0,1,27.4187,22.42242c-5.354-5.81769-14.08105-13.777-27.44995-22.45929Z" style="fill: #ff45e5"/>
      <path d="M1132.98706,330.13437a76.97958,76.97958,0,0,1,9.2771,22.7846s126.05469-36.853,390.55017,125.494C1532.81433,478.413,1325.86646,320.24569,1132.98706,330.13437Z" style="fill: #ff45e5"/>
      <path d="M1041.95264,312.5l-.0022-.002s.10864.17157.30493.49707C1042.10107,312.73825,1041.99927,312.57461,1041.95264,312.5Z" style="fill: #ff45e5"/>
      <path d="M1058.39453,332.20724a81.07038,81.07038,0,0,0-9.62842-13.11981A81.82949,81.82949,0,0,1,1058.39453,332.20724Z" style="fill: #ff45e5"/>
      <path d="M1096.86011,372.62332a126.70534,126.70534,0,0,0-16.97193-60.94312A126.95446,126.95446,0,0,1,1096.86011,372.62332Z" style="fill: #ff45e5"/>
      <path d="M1335.7041,882.11416s-.56079,2.08985-1.937,5.81079A42.20334,42.20334,0,0,0,1335.7041,882.11416Z" style="fill: #ff45e5"/>
      <path d="M960.27417,1135.75113l.01855.00146a369.19122,369.19122,0,0,1,39.76587-31.38525A366.86212,366.86212,0,0,0,960.27417,1135.75113Z" style="fill: #ff45e5"/>
      <path d="M1482.96338,682.7612s-4.74048-12.13147-12.59021-19.11463c0,0,87.62146-87.8764,244.87121-107.042,0,0-136.40209,5.25012-285.955,96.9494C1429.28943,653.554,1469.50659,667.06167,1482.96338,682.7612Z" style="fill: #ff45e5"/>
      <path d="M1732.93115,532.31912c-61.21692-17.55347-129.34179-19.25391-213.98218-5.73651,84.69507-13.50763,152.7754-11.808,214.03382,5.75915,2.3551.67511,4.69861,1.38282,7.03674,2.10614C1737.66479,533.71683,1735.3042,533.00137,1732.93115,532.31912Z" style="fill: #ff45e5"/>
      <path d="M1303.01306,937.97513c18.68836-21.74549,27.33716-40.86329,30.754-50.05018-.24243.60914-.51709,1.26807-.81787,1.96314C1329.10681,899.6376,1320.44629,917.65152,1303.01306,937.97513Z" style="fill: #ff45e5"/>
      <path d="M1574.05115,481.92984C1407.932,258.56918,1166.52686,221.10446,1166.52686,221.10446,1227.6427,62.68234,1431.27734,52.182,1431.27734,52.182c-53.36816-20.03217-107.90857-28.64649-161.93921-28.85035-300.78808-1.1214-587.45654,257.97113-587.45654,257.97113C586.61426,303.78164,540.79,327.127,381.75635,430.448,222.72241,533.769,48.397,561.65085,48.397,561.65085,262.22607,779.099,472.793,786.286,472.793,786.286c-37.71948-11.36682-54.4895-40.11524-54.4895-40.11524,54.4895,21.56128,112.5979,14.37427,112.5979,14.37427-26.96436-4.17969-44.9065-34.76318-44.9065-34.76318,41.9502,22.78467,113.82129,8.97119,113.82129,8.97119-48.52563-1.78418-56.88525-41.33862-56.88525-41.33862,83.84961,32.36743,158.728-2.85443,158.728-2.85443-67.69141-2.2428-49.13746-42.10321-49.13746-42.10321,45.51831,23.957,121.00855,0,121.00855,0-41.33862.61163-53.92871-25.741-53.92871-25.741,129.97949-70.087,257.56323,17.99328,257.56323,17.99328-92.26-7.79882-136.55493,18.554-136.55493,18.554,53.31689-3.619,38.94287,23.957,38.94287,23.957-46.7417,16.77-97.05151,3.61908-97.05151,3.61908,6.57544,14.37414,47.91406,32.9281,47.91406,32.9281-28.13672,9.58282-84.46118-14.9859-84.46118-14.9859,9.58276,22.173,30.53247,41.95032,30.53247,41.95032-45.51831,3.00732-79.66992-21.56128-79.66992-21.56128,3.00756,29.36,26.35278,52.09375,26.35278,52.09375-43.73438,3.61889-82.06543-28.74854-82.06543-28.74854,8.971,31.75586,35.32373,62.8999,35.32373,62.8999-48.52563,1.78406-85.68457-41.95019-85.68457-41.95019.61182,34.76306,18.554,62.8999,18.554,62.8999-43.73414,12.59009-98.22364-29.9718-98.22364-29.9718,23.34546,83.84949,102.45435,62.8999,102.45435,62.8999C740.49976,849.69571,945.40869,710.745,945.40869,710.745c121.00855-37.15887,201.85083,5.40308,201.85083,5.40308-71.00464,117.69519-47.6084,210.261-47.6084,210.261,61.26905-96.08289,128.50147-115.91114,128.50147-115.91114-17.99317,119.53028-132.98682,189.61719-132.98682,189.61719l-31.45-10.75525-9.88843,32.31653-265.97387,14.374c-312.71558,14.37427-398.9607,170.70655-398.9607,170.70655,124.88233-86.24524,229.12061-71.8711,229.12061-71.8711,177.384,2.14087,196.80444,66.468,196.80444,66.468s92.56567-36.85315,162.65283,20.6438c70.08692,57.49683,2.08985,135.68835,2.08985,135.68835,153.93652-95.828,100.31347-240.79345,100.31347-240.79345l43.42847-11.9784,16.77,10.19434,16.76978-20.94971c128.19543-34.15137,243.1892-100.05871,243.1892-100.05871.91748,39.24865-21.5614,79.6698-21.5614,79.6698,102.45447-62.28809,107.80652-157.55555,107.80652-157.55555C1596.47888,791.02627,1598.314,640.6578,1598.314,640.6578c122.63953-87.16278,255.7793-52.70544,255.7793-52.70544C1755.56372,472.19412,1574.05115,481.92984,1574.05115,481.92984ZM630.04272,575.56637s-1.32543-17.53454,6.52442-33.234c0,0-14.11939.40784-31.44995,16.92286,0,0-24.97632-9.63379-100.82349,28.34057,41.79736-53.77582,103.47412-88.488,125.44312-96.38873-2.2937,1.835-16.31128,13.81354-19.21656,30.48151-.051-.00007,31.65381-37.2099,95.57325-36.70014,5.40307.051,11.061.35675,16.92285.96845C723.01636,485.95688,659.65747,518.32437,630.04272,575.56637Zm236.676-91.38836s-9.49341-5.47956-6.1167-12.93427c79.64429,33.57807,147.50122,4.52381,147.50122,4.52381a222.04653,222.04653,0,0,0,14.20606-37.74744,222.00205,222.00205,0,0,1-14.20459,37.69134s-67.84424,29.05426-147.51392-4.53656c1.22339-2.65057,4.07764-5.60693,9.7356-8.61431,21.25537-11.41785,66.16211-9.0221,66.16211-9.0221S743.4563,360.05514,549.81226,481.98105c0,0,51.68579-27.27021,94.80859-27.27021,0,0-77.12134,41.64441-140.02124,101.84278C441.7,616.752,371.61279,631.12619,310.49683,639.2308c0,0,105.46191-28.59552,160.2063-134.771,0,0-68.0481,93.58526-185.69239,99.44708-96.33764,4.74042-120.03979,3.26221-186.355-28.95233-.1018,0-.15283-.051-.25488-.10187,0,0,2.19189-.4588,6.16772-1.32532.15284-.051.30567-.051.45874-.10193l.0835.00287c33.16724-7.43225,182.9978-44.00738,295.874-121.42261,127.62183-87.4176,188.08765-126.98492,307.29956-152.72595,0,0,22.81006-25.80475,65.627-60.97571,41.35107-29.94628,97.166-66.7738,161.96435-100.03326,99.906-51.35468,237.40381-101.94476,375.98511-89.3291-77.66919,10.1308-291.62573,50.845-375.6665,198.21881,0,0,300.24548-67.54627,547.85131,170.98816.09729.09125.19642.17859.29371.27q15.90344,15.29169,31.39892,32.2655l.051.0509c1.47827,1.58014,2.85449,3.05835,4.23071,4.58753q18.42663,20.49087,36.19043,43.47943s-257.61438-159.3396-411.24512-133.29273a43.5808,43.5808,0,0,1-5.96362,32.06165s-3.00733-54.84631-49.13745-92.56586a113.73859,113.73859,0,0,1,8.80884,16.087l.00146.0014c8.60156,18.73236,18.095,50.845,1.65649,80.02661a119.3101,119.3101,0,0,0-3.95043-15.99255l.00122-.01593c-4.79419-15.44519-14.886-39.33746-34.6543-58.54523a169.98745,169.98745,0,0,1,7.28906,30.32855l-.00195-.00647c3.81079,24.46424,4.6167,60.09644-12.37451,92.99677,0,0,2.22436-13.98529-.05616-33.31958l-.00463.01794c-2.54859-21.1026-10.44922-48.52569-32.62232-70.85156,0,0,8.25757,13.60962,12.845,35.57868a99.48717,99.48717,0,0,0-23.906-37.10785s.095.11511.26391.3352a99.05486,99.05486,0,0,1,23.61572,36.80322c5.28809,25.35877,5.60669,61.7403-17.33081,101.30762C1019.44482,482.64883,952.35229,521.32406,866.71875,484.178Zm420.81641,339.267a48.58192,48.58192,0,0,1,3.55786,10.91382l.00146-.00158c2.61255,12.16955,3.31348,33.19567-13.125,56.1333-19.94311,27.84362-57.47156,55.24133-73.40039,66.264.04492-.09692.09766-.208.14356-.30664-.0514.10975-.11023.233-.1604.3407-4.63843,3.21131-7.49292,5.04627-7.49292,5.04627S1229.42676,869.57486,1287.53516,823.445ZM839.78271,1158.73282c-66.96508-44.02735-149.54028-50.845-214.40258-47.022-62.31348,3.63172-108.25244,17.20313-108.25244,17.20313a461.42211,461.42211,0,0,1,61.0393-17.458c145.97217-31.2207,264.80152,15.35535,264.80152,15.35535,40.0769-33.76917,96.84741-35.29834,96.84741-35.29834,46.38476-29.62769,94.87231-42.05213,117.74609-46.63977,8.47437-1.6565,13.44409-2.2937,13.44409-2.2937-2.103.6372-4.07788,1.27429-6.11694,1.91137-83.467,26.50574-119.02026,60.78467-119.02026,60.78467C886.99561,1101.45254,839.84619,1158.73282,839.78271,1158.73282ZM1460.2804,959.84707c-20.3241,54.66968-50.78992,77.85645-53.2865,79.689-.059.05737-.11353.116-.17261.17334.00952-.02246.01746-.04431.02685-.0669l-.03772.02735c.01551-.01514.02967-.0304.04517-.04541,1.19592-2.83716,2.26892-5.61353,3.21521-8.38916a145.07208,145.07208,0,0,0,8.092-47.85034c1.65662-1.27417,3.37671-2.61231,5.03345-4.014,9.16528-7.5741,18.26636-16.35584,25.90735-24.05969l.014-.10267c2.08984-2.141,4.07763-4.23083,5.86157-6.21862,8.05371-8.56336,13.35473-14.782,13.35473-14.782A258.18878,258.18878,0,0,1,1460.2804,959.84707Zm249.56091-393.6087c-146.29077,23.60022-230.90479,132.22235-230.90479,132.22235-25.4353-23.03949-61.98254-30.83832-61.98254-30.83832,116.37,61.065,40.42114,205.31672-38.17822,284.37482-45.77332,45.97705-119.07154,81.199-172.33765,102.60742-38.28015,15.34278-66.213,23.60034-66.213,23.60034l-5.709,10.19434-13.76245-5.70874-45.51831,14.67993a154.705,154.705,0,0,0-23.09057,11.41773c-44.95752,27.27026-48.01587,64.684-48.01587,64.684,19.31836-39.50354,50.30957-47.60816,50.30957-47.60816a175.96483,175.96483,0,0,1,11.21411,48.78064,179.29461,179.29461,0,0,1-1.27442,23.90589,169.23011,169.23011,0,0,1-31.19506,79.77185,143.51957,143.51957,0,0,0-3.21119-17.33069c-.2041-1.01941-.50976-1.98792-.76464-3.00733-.15308-.66272-.35694-1.27429-.50977-1.88586-.15283-.459-.30566-.96863-.45874-1.42725-30.52441-101.46045-160.24048-91.20068-161.60156-91.09009l-.05445.041.02832-.03906-.00586.00049.01172-.00879c33.26416-47.54541,89.80469-44.87207,89.80469-44.87207,48.48731-35.4895,28.28955-27.39759,161.70972-80.85486,111.75683-44.72815,151.96142-77.22315,162.092-86.58923a234.64226,234.64226,0,0,0,25.42065-22.65125,234.68531,234.68531,0,0,1-25.34692,22.57422c1.937-1.83508,2.80347-2.80347,2.80347-2.80347-82.37134,48.67859-138.135,63.66443-169.738,67.79321,2.90552-1.93688,6.77954-4.63854,11.36694-8.05358,42.71485-11.72364,108.77515-38.38233,158.06543-97.35718,79.05811-94.65576-32.36743-158.728-32.36743-158.728-76.71338,22.2749-112.394,68.303-128.14453,98.58057-8.41016,16.23706-11.16187,27.92163-11.39868,28.969-.00586.04273-.01294.08447-.0188.12708l.00073-.04676-.001.00489.00123-.00782c.00146-2.91345.127-5.76477.2539-8.61572a230.8795,230.8795,0,0,1,5.7981-41.415,243.471,243.471,0,0,1,48.23266-97.54834,168.16036,168.16036,0,0,1,18.22266-19.49688,157.35384,157.35384,0,0,1,18.0415,14.03131l.02784-.01758a156.25622,156.25622,0,0,0-18.14624-14.0683c-1.58033-1.01947-3.16041-1.93695-4.74048-2.9054-67.18164-40.21716-167.18946-29.41107-167.18946-29.41107,3.46631-2.59961,6.93238-4.9953,10.50049-7.28906,2.39551-1.52917,4.84229-3.00739,7.28906-4.38361a168.82843,168.82843,0,0,1,17.27955-8.46136c90.782-37.97443,194.96923,14.782,194.96923,14.782-50.30981-41.89929-135.38256-52.09375-135.38256-52.09375,40.47192-18.96173,94.70654-19.21661,123.302-17.7384,11.97851.6626,19.52246,1.58014,19.52246,1.58014l.30591-.153.08813.01014c197.88013-96.83014,337.9148-105.49366,427.238-91.03119,47.71277,7.67724,81.01587,21.92443,100.98755,32.9284.10656.04651.21411.09052.32068.13709a162.22106,162.22106,0,0,1,22.83557,14.884A354.50279,354.50279,0,0,0,1709.84131,566.23837Z" style="fill: #ff45e5"/>
      <path d="M1264.96228,608.69461a142.8851,142.8851,0,0,1,27.46631,7.34375l.01147-.00714A142.10458,142.10458,0,0,0,1264.96228,608.69461Z" style="fill: #ff45e5"/>
    </g>
  </g>
</svg>
