<?xml version="1.0" standalone="no"?>
<!DOCTYPE svg PUBLIC "-//W3C//DTD SVG 20010904//EN"
 "http://www.w3.org/TR/2001/REC-SVG-20010904/DTD/svg10.dtd">
<svg version="1.0" xmlns="http://www.w3.org/2000/svg"
 width="3237.000000pt" height="3237.000000pt" viewBox="0 0 3237.000000 3237.000000"
 preserveAspectRatio="xMidYMid meet">
<metadata>
Created by potrace 1.11, written by Peter Selinger 2001-2013
</metadata>
<g transform="translate(0.000000,3237.000000) scale(0.100000,-0.100000)"
fill="#000000" stroke="none">
<path d="M20949 28486 c-2 -2 -63 -7 -135 -10 -72 -4 -141 -8 -155 -11 -13 -2
-67 -6 -119 -9 -52 -4 -106 -8 -120 -11 -14 -2 -52 -6 -85 -9 -119 -12 -378
-46 -495 -66 -30 -5 -73 -12 -94 -15 -21 -3 -48 -7 -60 -10 -12 -2 -37 -7 -56
-9 -19 -3 -71 -12 -115 -21 -44 -8 -96 -18 -115 -21 -19 -3 -43 -7 -52 -10 -9
-3 -27 -7 -40 -9 -13 -3 -57 -12 -98 -20 -41 -8 -84 -17 -95 -19 -75 -15 -405
-98 -585 -146 -394 -107 -672 -194 -1070 -337 -347 -125 -897 -347 -1125 -453
-49 -23 -160 -74 -245 -112 -175 -80 -782 -381 -909 -451 -46 -26 -85 -47 -87
-47 -7 0 -383 -211 -594 -333 -691 -401 -1377 -849 -2005 -1312 -295 -217
-612 -459 -790 -605 -116 -94 -379 -313 -385 -320 -3 -4 -97 -30 -210 -59
-316 -81 -329 -85 -470 -127 -427 -130 -811 -276 -1200 -456 -93 -43 -425
-210 -506 -254 -38 -20 -118 -64 -179 -97 -166 -90 -510 -288 -595 -342 -19
-12 -111 -68 -205 -124 -93 -57 -199 -121 -235 -143 -551 -342 -696 -433 -700
-438 -3 -3 -21 -15 -40 -27 -19 -11 -233 -147 -475 -303 -556 -357 -867 -546
-1122 -681 -43 -23 -82 -45 -88 -49 -5 -4 -129 -68 -275 -142 -492 -250 -980
-467 -1545 -685 -49 -19 -207 -77 -350 -128 -222 -79 -355 -123 -770 -255
-180 -57 -838 -235 -1015 -274 -41 -10 -173 -37 -200 -42 -14 -3 -34 -8 -45
-11 -11 -3 -29 -7 -40 -9 -11 -1 -63 -12 -115 -23 -107 -23 -134 -28 -204 -36
-28 -4 -52 -8 -55 -10 -3 -2 -30 -6 -60 -10 -30 -4 -63 -9 -75 -11 -12 -2 -32
-6 -46 -8 -14 -3 -43 -8 -65 -11 -22 -3 -78 -12 -125 -20 -47 -7 -105 -17
-130 -20 -25 -4 -54 -8 -65 -10 -11 -2 -40 -7 -65 -10 -25 -4 -47 -9 -49 -11
-4 -4 287 -300 664 -674 214 -213 294 -290 415 -400 19 -18 60 -55 90 -84 30
-28 109 -98 175 -156 66 -58 136 -119 155 -137 34 -30 328 -275 400 -333 168
-135 549 -423 650 -492 14 -10 77 -54 140 -99 169 -119 469 -316 662 -435 165
-102 564 -334 574 -334 3 0 40 -20 84 -45 93 -53 531 -275 640 -324 655 -297
1122 -472 1735 -650 74 -21 343 -90 384 -97 14 -3 28 -7 31 -9 4 -2 22 -7 41
-10 19 -3 50 -10 69 -15 19 -5 49 -11 65 -14 17 -3 82 -17 145 -30 63 -13 135
-27 160 -31 25 -3 83 -12 130 -20 120 -20 217 -34 296 -41 38 -3 80 -8 94 -10
26 -4 196 -13 352 -18 49 -1 89 -4 90 -7 2 -2 20 -56 42 -119 48 -144 155
-367 233 -485 202 -306 473 -521 818 -648 81 -30 239 -72 305 -81 25 -3 55 -8
67 -10 46 -9 193 -18 293 -18 138 1 232 10 360 37 36 7 101 18 145 25 44 6 91
13 105 15 42 7 223 45 260 55 19 5 46 11 60 14 53 10 272 69 410 111 342 104
691 232 1035 380 17 7 70 30 120 50 49 21 124 53 165 72 41 19 89 40 105 48
38 17 149 68 240 110 186 86 770 381 928 468 34 19 94 51 132 72 129 69 200
108 265 145 65 38 82 47 195 110 336 187 943 556 1395 849 192 125 197 128
315 159 116 30 309 76 370 87 152 28 228 41 295 50 25 3 56 8 70 10 14 2 54 7
90 10 36 4 72 8 80 10 91 23 771 24 898 1 9 -2 49 -7 87 -10 39 -4 93 -11 120
-16 28 -5 66 -12 85 -15 175 -29 436 -95 433 -111 -1 -5 -33 -74 -71 -154
-233 -485 -392 -949 -502 -1468 -11 -52 -24 -121 -30 -155 -5 -34 -12 -73 -15
-87 -3 -14 -7 -45 -10 -70 -3 -25 -12 -97 -20 -160 -25 -197 -30 -296 -29
-580 0 -276 4 -371 24 -510 6 -41 12 -88 15 -105 3 -26 15 -89 29 -150 2 -11
14 -58 26 -105 12 -47 23 -92 25 -100 2 -8 29 -113 60 -234 31 -120 54 -220
51 -223 -4 -4 -102 29 -531 178 -60 21 -110 37 -111 36 -1 -1 -23 -72 -49
-157 -26 -85 -53 -175 -60 -200 -8 -25 -30 -99 -50 -165 -20 -66 -40 -126 -44
-134 -8 -16 -9 -16 -186 -26 -66 -3 -154 -8 -195 -10 -41 -2 -127 -7 -190 -10
-63 -3 -142 -8 -175 -10 -33 -2 -112 -7 -175 -10 -151 -7 -310 -15 -385 -20
-33 -2 -116 -6 -185 -10 -168 -8 -268 -14 -375 -20 -49 -3 -130 -8 -180 -10
-49 -2 -135 -7 -190 -10 -239 -13 -285 -16 -380 -20 -55 -3 -138 -7 -185 -10
-47 -3 -128 -8 -180 -10 -232 -12 -290 -15 -365 -20 -81 -5 -226 -13 -370 -20
-44 -2 -125 -7 -180 -10 -55 -3 -145 -7 -200 -10 -55 -3 -129 -7 -165 -10 -36
-2 -108 -7 -160 -10 -229 -13 -277 -16 -310 -20 -19 -3 -66 -7 -105 -10 -38
-3 -90 -7 -115 -10 -25 -3 -72 -7 -105 -10 -106 -9 -160 -15 -405 -46 -91 -11
-217 -29 -280 -39 -63 -10 -135 -22 -160 -25 -25 -3 -52 -8 -60 -10 -8 -2 -33
-6 -55 -10 -59 -8 -144 -24 -280 -50 -66 -13 -133 -26 -150 -29 -16 -3 -57
-12 -91 -20 -34 -8 -72 -17 -85 -19 -13 -3 -63 -14 -111 -26 -48 -11 -98 -23
-110 -25 -33 -6 -291 -74 -368 -96 -367 -107 -583 -178 -855 -280 -803 -304
-1490 -683 -2090 -1154 -49 -39 -101 -81 -115 -92 -465 -395 -816 -791 -1011
-1140 -35 -64 -78 -141 -96 -172 -17 -32 -44 -79 -59 -107 -28 -53 -111 -203
-149 -270 -42 -76 -72 -130 -105 -190 -18 -33 -50 -89 -70 -125 -21 -36 -53
-94 -72 -130 -38 -70 -69 -125 -129 -233 -22 -38 -39 -71 -39 -73 0 -2 -14
-26 -31 -54 -17 -28 -30 -53 -28 -54 3 -3 968 655 1239 845 132 92 361 243
480 316 102 62 151 90 315 183 203 115 640 311 910 408 108 39 317 108 355
118 3 0 12 3 20 6 12 5 135 38 200 53 98 24 242 56 269 61 18 3 43 8 55 10 46
10 123 23 166 29 25 3 52 8 60 10 8 2 40 7 70 10 30 3 75 9 100 12 24 3 56 7
70 8 63 8 294 18 380 18 143 -1 708 -20 830 -28 131 -9 320 -24 365 -30 17 -2
75 -9 130 -14 55 -6 109 -13 120 -15 11 -2 41 -6 66 -10 47 -7 71 -11 124 -21
17 -3 50 -8 75 -11 24 -3 71 -11 105 -19 33 -8 71 -16 85 -19 14 -2 48 -10 75
-16 28 -6 58 -13 67 -15 104 -22 462 -137 523 -169 17 -9 33 -16 37 -16 4 0
47 -19 95 -41 107 -51 244 -133 333 -199 75 -56 191 -174 214 -218 8 -15 24
-79 35 -142 12 -63 23 -126 26 -140 3 -13 7 -40 10 -60 3 -19 9 -47 13 -62 l7
-27 155 61 c262 101 282 109 375 139 98 32 256 73 320 83 22 4 47 8 55 11 8 2
35 6 60 9 25 3 54 8 66 10 72 14 207 21 404 20 261 -1 309 -6 510 -48 303 -63
593 -198 820 -381 369 -296 483 -618 374 -1050 -63 -246 -225 -542 -414 -755
-12 -14 -43 -49 -68 -79 -26 -29 -55 -63 -65 -75 -11 -11 -40 -45 -65 -75 -26
-29 -56 -63 -67 -76 -11 -12 -42 -48 -70 -80 -55 -65 -106 -124 -396 -455 -41
-47 -117 -134 -169 -195 -52 -60 -97 -112 -100 -115 -3 -3 -34 -39 -70 -80
-36 -41 -67 -77 -70 -80 -3 -3 -61 -70 -130 -150 -68 -80 -127 -147 -130 -150
-3 -3 -50 -57 -105 -120 -55 -63 -102 -117 -105 -120 -25 -25 -52 -61 -40 -55
13 8 313 194 748 464 67 42 169 105 227 141 57 36 133 83 167 104 158 99 805
502 820 511 142 82 486 309 622 409 245 183 514 427 702 637 429 478 721 1038
863 1649 35 152 51 245 66 385 4 33 9 71 11 85 2 14 7 77 11 140 16 276 1 607
-37 830 -5 30 -12 74 -15 97 l-5 42 43 12 c23 6 49 12 58 14 9 2 33 9 55 15
39 12 39 12 189 -80 261 -161 277 -170 285 -165 5 3 99 119 210 259 l201 253
102 31 c56 17 179 54 272 82 841 253 2032 728 2838 1131 65 33 123 59 127 57
22 -8 -172 -440 -269 -598 -11 -19 -24 -42 -28 -50 -4 -8 -73 -134 -153 -280
-81 -146 -166 -301 -190 -345 -24 -44 -52 -92 -62 -107 -11 -16 -16 -28 -13
-28 3 0 -2 -12 -13 -27 -11 -16 -36 -59 -57 -98 -20 -38 -50 -93 -66 -122 -16
-29 -29 -54 -29 -57 0 -5 70 37 525 315 88 54 207 127 265 162 86 53 402 245
474 290 128 79 390 260 461 318 600 495 978 979 1263 1619 96 215 219 618 247
810 4 25 8 51 9 58 1 7 18 32 37 55 183 219 324 407 463 612 49 72 94 139 102
150 24 34 174 276 174 281 0 2 17 32 39 67 68 112 289 538 348 672 12 28 34
77 48 110 15 33 37 83 51 112 13 28 24 55 24 59 0 3 11 32 24 63 114 264 275
750 365 1106 30 118 94 402 104 460 3 17 15 80 26 140 11 61 23 130 26 155 3
25 8 52 10 60 2 8 7 40 10 70 3 30 8 66 10 80 7 45 19 166 30 290 4 44 11 69
23 78 9 8 89 56 176 109 288 171 660 339 976 441 120 39 331 100 374 108 21 4
31 6 101 23 22 6 56 13 75 16 19 3 95 17 167 30 73 14 158 27 190 31 31 3 65
7 75 9 11 2 49 7 86 11 36 3 73 7 82 9 125 24 868 24 1025 0 17 -2 53 -7 80
-10 109 -11 287 -39 375 -59 58 -13 183 -45 825 -211 154 -39 328 -84 400
-101 11 -3 16 -2 10 3 -6 4 -44 49 -85 98 -41 50 -77 92 -80 95 -4 3 -61 70
-127 150 -104 125 -275 328 -458 546 -182 216 -461 490 -656 644 -35 28 -73
58 -84 68 -96 79 -389 276 -552 371 -323 187 -681 351 -1033 473 -131 45 -366
119 -455 143 -155 41 -438 109 -495 119 -14 2 -59 11 -100 20 -41 8 -102 20
-135 25 -33 5 -98 16 -145 24 -47 9 -110 18 -140 22 -30 4 -63 8 -73 10 -10 2
-46 6 -80 10 -34 3 -75 8 -92 10 -16 2 -64 7 -105 11 -41 3 -82 8 -90 9 -9 2
-70 6 -135 10 -66 4 -136 8 -155 10 -19 2 -107 5 -195 6 l-161 3 -94 119
c-189 238 -401 485 -610 712 -169 183 -639 643 -810 791 -25 21 -47 41 -50 44
-3 3 -52 46 -110 95 -58 49 -107 92 -110 95 -12 16 -370 296 -510 401 -340
254 -625 445 -1015 682 -11 7 -42 26 -70 43 -125 76 -495 279 -660 362 -132
66 -516 252 -521 252 -2 0 -32 13 -66 29 -325 148 -783 324 -1188 456 -208 68
-512 157 -575 169 -42 8 -105 29 -105 35 0 10 109 187 171 276 257 374 622
724 1039 996 164 107 216 139 224 139 5 0 21 9 37 20 31 23 318 170 414 212
326 145 622 247 1025 354 55 15 288 68 345 79 90 17 388 65 440 70 33 4 71 8
85 10 31 5 142 13 285 20 61 3 146 8 190 10 116 7 255 14 375 20 102 5 259 13
390 20 36 2 126 6 200 10 74 3 155 8 180 10 43 3 321 18 368 19 12 0 19 3 15
7 -5 3 -161 64 -348 134 -374 140 -628 235 -720 270 -259 101 -823 308 -970
357 -293 98 -703 206 -955 251 -14 3 -74 14 -135 25 -60 12 -132 24 -160 28
-27 5 -52 9 -55 9 -3 1 -32 5 -65 9 -33 5 -68 10 -78 12 -10 2 -46 6 -80 9
-34 3 -69 8 -77 10 -8 2 -48 7 -87 10 -40 3 -80 8 -90 9 -10 2 -65 7 -123 11
-58 4 -123 9 -145 12 -46 6 -980 14 -986 9z m279 -151 c-2 -2 -97 -6 -211 -10
-115 -3 -216 -8 -225 -10 -9 -1 -66 -6 -127 -9 -60 -4 -126 -9 -145 -11 -59
-7 -221 -24 -285 -30 -33 -4 -67 -8 -75 -10 -8 -3 -40 -7 -70 -10 -30 -3 -66
-7 -80 -10 -14 -2 -45 -7 -70 -10 -38 -5 -256 -41 -365 -61 -102 -18 -450 -90
-555 -115 -236 -55 -671 -171 -750 -199 -14 -4 -52 -16 -85 -26 -148 -42 -355
-111 -690 -227 -282 -99 -797 -306 -1060 -427 -38 -18 -140 -64 -225 -102
-173 -78 -734 -354 -856 -421 -44 -24 -126 -68 -184 -99 -58 -30 -150 -80
-205 -110 -55 -31 -127 -70 -160 -88 -33 -18 -89 -51 -124 -72 -34 -21 -64
-38 -66 -38 -6 0 -379 -223 -545 -325 -354 -219 -853 -548 -1125 -743 -33 -23
-69 -49 -80 -56 -122 -87 -232 -166 -240 -173 -5 -5 -118 -89 -249 -188 -132
-99 -251 -189 -265 -200 -58 -44 -366 -290 -371 -296 -3 -3 -46 -39 -96 -80
-50 -41 -129 -106 -175 -145 l-84 -71 -130 -32 c-71 -18 -137 -34 -145 -36
-34 -7 -322 -88 -415 -116 -434 -132 -763 -256 -1145 -431 -182 -84 -624 -309
-755 -384 -38 -23 -77 -44 -85 -47 -8 -4 -33 -18 -55 -32 -22 -14 -47 -28 -55
-32 -17 -9 -226 -129 -250 -143 -8 -5 -67 -40 -130 -78 -175 -104 -247 -148
-340 -207 -47 -30 -94 -59 -105 -64 -11 -6 -50 -30 -87 -53 -38 -24 -137 -85
-220 -137 -143 -88 -278 -173 -443 -279 -38 -25 -108 -70 -155 -100 -47 -30
-104 -67 -127 -83 -23 -16 -43 -29 -46 -29 -3 0 -47 -28 -98 -62 -252 -165
-601 -384 -764 -478 -16 -10 -59 -35 -95 -55 -387 -225 -806 -439 -1300 -662
-224 -101 -214 -97 -315 -138 -49 -21 -112 -48 -140 -60 -244 -111 -1169 -444
-1525 -549 -47 -14 -123 -37 -170 -51 -47 -15 -125 -38 -175 -51 -49 -13 -121
-33 -160 -44 -63 -18 -248 -67 -285 -75 -8 -2 -87 -22 -175 -44 -88 -22 -225
-53 -305 -70 -80 -16 -152 -32 -160 -35 -8 -3 -28 -7 -45 -10 -16 -3 -57 -10
-90 -16 -33 -6 -76 -13 -95 -16 -19 -3 -46 -7 -60 -10 -14 -2 -41 -7 -60 -10
-19 -3 -42 -7 -50 -9 -8 -3 -35 -7 -60 -10 -49 -6 -68 -9 -149 -25 -54 -10
-108 -13 -100 -6 2 2 22 6 44 10 22 3 51 8 65 10 14 3 81 14 150 25 112 18
362 63 415 75 65 15 403 88 421 92 11 2 83 20 160 40 76 20 148 38 158 40 11
2 92 24 180 48 89 25 193 54 231 64 39 11 117 34 175 51 58 18 137 41 175 53
39 11 122 38 185 60 63 22 122 41 130 43 109 25 954 337 1185 438 44 19 154
66 245 105 91 39 212 92 270 119 58 28 148 69 200 94 234 107 770 384 940 484
30 18 134 79 230 135 158 93 351 214 590 368 47 30 130 84 185 119 55 35 178
115 273 176 341 222 670 427 682 427 5 0 10 3 12 8 5 11 648 406 798 490 25
14 86 49 135 77 186 109 373 210 675 366 456 234 990 447 1470 584 52 15 106
31 120 36 32 10 228 62 385 100 183 45 187 47 226 82 45 41 102 88 153 130 22
17 86 70 142 117 56 47 119 99 140 115 21 17 61 48 89 70 107 86 324 253 415
320 52 38 97 72 100 75 3 3 28 22 55 41 28 18 52 37 55 40 13 15 461 335 525
375 17 10 35 22 40 27 90 73 761 508 1095 709 205 124 575 337 710 410 36 20
85 47 110 60 25 14 90 49 145 78 55 29 105 56 110 61 12 8 545 275 685 342 91
43 166 78 275 127 28 12 88 40 135 62 413 194 1235 505 1700 643 25 7 90 27
145 43 55 17 176 52 270 77 162 45 182 50 232 61 12 2 34 9 48 14 14 5 25 7
25 4 0 -2 8 0 18 5 9 5 31 11 47 14 17 3 98 21 180 41 144 33 537 112 600 121
17 2 42 6 55 9 14 3 41 8 60 10 19 3 78 12 130 20 52 9 122 18 154 22 33 3 68
7 79 10 11 2 45 6 76 9 31 3 74 8 96 10 22 3 63 7 90 10 28 3 68 7 90 10 22 2
84 7 137 11 53 3 109 7 125 9 15 2 120 7 233 10 113 4 207 9 209 11 2 2 8 1
13 -2 5 -3 8 -7 6 -9z m72 -1 c0 -2 -14 -4 -31 -4 -16 0 -28 4 -25 9 5 8 56 3
56 -5z m70 4 c0 -5 -13 -8 -30 -8 -16 0 -30 3 -30 8 0 4 14 7 30 7 17 0 30 -3
30 -7z m215 2 c77 -1 122 -5 110 -9 -11 -5 -23 -7 -26 -5 -3 2 -60 4 -127 5
-67 0 -122 5 -122 9 0 5 8 7 18 5 9 -2 76 -4 147 -5z m205 -12 c0 -8 -59 -2
-68 7 -4 3 10 5 31 3 20 -1 37 -5 37 -10z m145 -3 c66 -3 131 -8 145 -10 40
-6 193 -18 213 -17 9 0 17 -3 17 -8 0 -4 -12 -7 -27 -5 -52 7 -128 14 -213 20
-47 4 -101 8 -120 10 -19 2 -61 4 -92 4 -34 1 -58 5 -58 12 0 5 3 8 8 6 4 -3
61 -8 127 -12z m525 -50 c8 -2 45 -6 83 -10 37 -4 67 -11 67 -15 0 -4 -19 -4
-42 0 -24 5 -72 11 -108 15 -96 10 -164 26 -80 18 36 -3 72 -7 80 -8z m203
-32 c-7 -2 -21 -2 -30 0 -10 3 -4 5 12 5 17 0 24 -2 18 -5z m60 -10 c-7 -2
-21 -2 -30 0 -10 3 -4 5 12 5 17 0 24 -2 18 -5z m112 -17 c11 -3 -2 -3 -30 0
-27 3 -54 9 -59 14 -8 8 35 1 89 -14z m76 -11 c99 -17 249 -48 245 -52 -2 -3
-51 5 -108 16 -126 25 -148 29 -170 30 -10 1 -18 6 -18 12 0 5 4 8 8 5 5 -3
24 -8 43 -11z m286 -61 c-3 -3 -12 -4 -19 -1 -8 3 -5 6 6 6 11 1 17 -2 13 -5z
m98 -20 c11 -2 36 -9 55 -14 l35 -10 -35 5 c-46 6 -78 13 -115 25 -30 10 -30
10 5 4 19 -3 44 -7 55 -10z m195 -50 c55 -20 22 -16 -45 6 -33 11 -44 17 -25
13 19 -3 50 -11 70 -19z m97 -31 c-7 -7 -57 8 -57 18 0 4 14 3 31 -3 16 -6 28
-12 26 -15z m91 -20 c32 -9 53 -18 47 -19 -5 -2 -37 5 -70 16 -74 23 -55 26
23 3z m114 -32 c13 -5 59 -21 103 -34 72 -23 346 -119 435 -152 19 -8 150 -57
290 -110 140 -53 260 -98 265 -99 6 -2 17 -6 25 -9 8 -3 89 -34 180 -67 200
-74 210 -78 189 -79 -9 -1 -50 12 -90 28 -41 16 -155 59 -254 96 -99 37 -207
77 -240 90 -33 13 -148 55 -255 95 -107 39 -209 78 -226 85 -17 8 -132 48
-255 89 -123 41 -216 75 -207 76 9 0 27 -4 40 -9z m214 -390 c-7 -11 -76 -20
-76 -10 0 4 17 10 38 12 20 2 38 4 40 5 2 1 1 -2 -2 -7z m114 3 c-35 -7 -98
-9 -94 -2 3 5 29 7 57 7 29 -1 45 -3 37 -5z m-217 -21 c-13 -2 -33 -2 -45 0
-13 2 -3 4 22 4 25 0 35 -2 23 -4z m-74 -7 c-7 -6 -220 -38 -225 -33 -3 2 35
11 83 19 88 16 150 22 142 14z m-239 -38 c0 -6 -2 -9 -5 -6 -3 3 -30 0 -60 -7
-30 -7 -55 -10 -55 -6 0 4 24 12 53 18 28 5 55 11 60 11 4 1 7 -3 7 -10z
m-130 -22 c0 -2 -7 -6 -15 -10 -8 -3 -15 -1 -15 4 0 6 7 10 15 10 8 0 15 -2
15 -4z m-65 -16 c-16 -4 -39 -8 -50 -8 -16 0 -15 2 5 8 14 4 36 8 50 8 22 0
22 -1 -5 -8z m-2268 -6 c-3 -3 -12 -4 -19 -1 -8 3 -5 6 6 6 11 1 17 -2 13 -5z
m2192 -7 c-10 -8 -249 -62 -249 -57 0 7 242 68 249 63 2 -2 2 -4 0 -6z m-274
-67 c-11 -5 -29 -9 -40 -9 l-20 0 20 9 c11 5 29 9 40 9 l20 0 -20 -9z m-135
-35 c-41 -13 -138 -42 -215 -65 -156 -46 -520 -180 -638 -235 -43 -19 -80 -35
-83 -35 -18 0 -415 -206 -520 -270 -36 -22 -68 -40 -70 -40 -6 0 -213 -138
-302 -202 -87 -62 -292 -226 -367 -293 -146 -132 -338 -334 -438 -460 -9 -11
-35 -45 -59 -75 -47 -59 -208 -288 -208 -296 0 -2 -22 -39 -48 -82 -60 -95
-175 -323 -232 -459 -24 -57 -45 -101 -47 -99 -7 6 93 234 157 360 173 340
401 653 677 933 160 161 246 240 353 323 25 19 47 37 50 40 13 15 139 107 265
192 180 122 322 206 537 316 152 78 493 232 513 232 4 0 21 6 38 14 105 48
656 225 697 224 8 0 -19 -10 -60 -23z m-2273 -1 c-3 -3 -12 -4 -19 -1 -8 3 -5
6 6 6 11 1 17 -2 13 -5z m-1142 -93 c-9 -7 -198 -66 -245 -76 -8 -2 -121 -38
-250 -80 -340 -112 -739 -266 -1005 -387 -60 -28 -139 -64 -175 -80 -77 -35
-460 -227 -475 -238 -5 -4 -46 -26 -90 -50 -97 -51 -458 -261 -465 -270 -3 -4
-16 -13 -30 -20 -51 -26 -410 -267 -550 -369 -220 -160 -547 -417 -611 -480
-9 -9 -29 -27 -45 -40 -447 -376 -1002 -970 -1365 -1463 -98 -131 -280 -404
-325 -484 -34 -60 -60 -92 -69 -82 -13 12 223 375 379 583 60 80 236 306 246
315 3 3 25 30 50 60 219 270 700 765 953 982 29 25 48 42 137 119 60 52 252
210 330 272 209 165 694 507 718 507 6 0 12 4 14 8 2 7 173 117 268 173 8 4
44 26 80 47 75 45 138 80 230 130 36 19 97 53 135 74 65 37 459 233 550 273
22 10 58 26 80 37 92 44 454 192 640 261 271 101 598 206 855 276 47 12 45 12
35 2z m-1215 -755 c0 -2 -7 -7 -16 -10 -8 -3 -12 -2 -9 4 6 10 25 14 25 6z
m-270 -140 c0 -2 -7 -7 -16 -10 -8 -3 -12 -2 -9 4 6 10 25 14 25 6z m2174
-1486 c146 -36 276 -72 516 -143 193 -58 756 -256 855 -302 17 -7 66 -28 110
-45 44 -17 94 -38 110 -45 17 -8 89 -39 160 -70 72 -31 163 -72 203 -91 41
-19 76 -34 78 -34 7 0 477 -236 574 -287 228 -123 520 -291 520 -300 0 -3 -17
5 -37 18 -68 40 -316 181 -408 231 -115 62 -620 314 -705 352 -491 217 -748
320 -1110 445 -360 123 -735 233 -980 286 -23 5 -66 24 -56 24 5 1 81 -17 170
-39z m-77 -746 c-3 -3 -12 -4 -19 -1 -8 3 -5 6 6 6 11 1 17 -2 13 -5z m-2637
-65 c0 -3 -27 -5 -60 -5 -33 0 -60 2 -60 6 0 3 27 5 60 5 33 0 60 -2 60 -6z
m40 -1 c0 -4 -4 -8 -9 -8 -6 0 -12 4 -15 8 -3 5 1 9 9 9 8 0 15 -4 15 -9z
m440 4 c0 -4 -73 -6 -162 -4 -264 4 -289 8 -55 10 119 0 217 -2 217 -6z m40
-4 c0 -4 -4 -8 -9 -8 -6 0 -12 4 -15 8 -3 5 1 9 9 9 8 0 15 -4 15 -9z m60 2
c11 -8 7 -9 -15 -4 -37 8 -45 14 -19 14 10 0 26 -5 34 -10z m188 -1 c73 0 134
-4 136 -8 3 -4 -8 -6 -22 -5 -15 1 -80 3 -144 3 -76 1 -118 5 -118 12 0 5 4 8
8 5 5 -3 68 -6 140 -7z m-1183 -9 c4 -6 -26 -10 -82 -11 -48 -1 -100 -2 -115
-3 -16 -2 -28 0 -28 4 0 3 44 7 97 9 54 1 99 4 102 7 7 7 20 4 26 -6z m39 -2
c-3 -4 -9 -8 -15 -8 -5 0 -9 4 -9 8 0 5 7 9 15 9 8 0 12 -4 9 -9z m231 6 c-44
-7 -215 -9 -215 -1 0 4 53 6 118 6 64 -1 108 -3 97 -5z m1101 -7 c4 -4 -2 -7
-14 -7 -12 0 -22 4 -22 9 0 10 26 9 36 -2z m129 -6 c-6 -6 -108 -1 -115 5 -2
3 23 4 58 3 34 -1 60 -5 57 -8z m140 -5 c61 -4 119 -9 130 -11 11 -2 41 -4 68
-4 26 -1 47 -5 47 -10 0 -6 -9 -8 -20 -6 -11 2 -57 7 -103 11 -45 4 -93 8
-107 10 -14 1 -51 2 -82 3 -34 1 -58 5 -58 12 0 5 3 8 8 6 4 -3 57 -8 117 -11z
m-1875 1 c-9 -8 -130 -15 -130 -7 0 4 30 8 67 9 37 1 65 0 63 -2z m-145 -12
c-23 -8 -125 -11 -125 -3 0 4 30 8 68 7 37 0 63 -2 57 -4z m-275 -15 c0 -5
-19 -9 -42 -9 l-43 2 40 7 c22 4 41 8 43 9 1 0 2 -3 2 -9z m130 4 c-36 -8
-100 -9 -100 -2 0 5 26 7 58 7 31 -1 50 -3 42 -5z m2685 -32 c-6 -7 -265 20
-265 27 0 3 61 0 135 -8 74 -8 132 -17 130 -19z m-2905 16 c0 -4 -21 -9 -47
-9 -27 -1 -57 -3 -68 -4 -11 -1 -76 -8 -145 -14 -69 -7 -141 -14 -160 -16 -19
-3 -78 -10 -130 -16 -106 -12 -122 -14 -235 -29 -181 -25 -263 -32 -215 -21
19 5 60 12 90 15 30 4 100 13 155 21 55 8 125 17 155 20 30 3 71 8 90 10 99
12 305 33 405 41 39 4 71 7 73 9 6 5 32 1 32 -7z m3068 -34 c29 -4 55 -10 57
-14 2 -4 -17 -4 -43 1 -26 4 -72 10 -102 14 -30 4 -57 9 -60 12 -3 3 18 3 45
-1 28 -3 74 -9 103 -12z m1319 0 c-3 -3 -12 -4 -19 -1 -8 3 -5 6 6 6 11 1 17
-2 13 -5z m-1148 -25 c36 -6 70 -15 74 -19 7 -7 -102 10 -163 24 -37 9 29 5
89 -5z m251 -45 c74 -15 139 -30 143 -34 5 -4 -54 5 -130 20 -168 34 -182 37
-163 39 8 0 76 -11 150 -25z m-4530 -12 c0 -4 -43 -15 -95 -23 -52 -8 -95 -11
-95 -7 0 5 8 8 18 9 9 0 26 2 37 4 11 2 40 7 65 10 24 3 46 8 49 11 7 7 21 5
21 -4z m-201 -36 c-4 -4 -22 -7 -131 -22 -24 -3 -71 -12 -105 -19 -35 -7 -63
-9 -63 -6 0 7 292 60 299 54 2 -2 2 -5 0 -7z m4961 0 c30 -7 99 -23 153 -36
54 -12 96 -24 94 -27 -3 -2 -22 0 -43 6 -22 5 -50 12 -64 15 -55 9 -176 38
-195 46 -31 13 -5 11 55 -4z m287 -72 c-3 -3 -12 -4 -19 -1 -8 3 -5 6 6 6 11
1 17 -2 13 -5z m73 -18 c25 -8 36 -15 25 -15 -21 1 -98 27 -80 28 6 0 30 -6
55 -13z m179 -52 c129 -40 175 -57 126 -48 -39 8 -263 82 -251 83 5 1 61 -15
125 -35z m201 -60 c0 -2 -9 -4 -20 -4 -11 0 -20 4 -20 9 0 5 9 7 20 4 11 -3
20 -7 20 -9z m37 -10 c-3 -3 -12 -4 -19 -1 -8 3 -5 6 6 6 11 1 17 -2 13 -5z
m40 -10 c-3 -3 -12 -4 -19 -1 -8 3 -5 6 6 6 11 1 17 -2 13 -5z m58 -14 c13 -5
14 -9 5 -9 -8 0 -24 4 -35 9 -13 5 -14 9 -5 9 8 0 24 -4 35 -9z m140 -39 c179
-52 277 -83 273 -87 -4 -3 -105 26 -313 90 -44 13 -75 25 -70 25 6 1 55 -12
110 -28z m2340 -61 c3 -5 -10 -1 -29 11 -20 12 -36 23 -36 25 0 7 58 -25 65
-36z m65 -35 c22 -14 40 -28 40 -30 0 -4 -75 39 -89 51 -15 13 16 0 49 -21z
m-2070 -5 c11 -8 7 -9 -15 -4 -37 8 -45 14 -19 14 10 0 26 -5 34 -10z m221
-74 c180 -62 256 -91 214 -82 -16 4 -353 119 -405 139 -8 3 -10 6 -4 6 6 1 94
-28 195 -63z m1974 -3 c11 -7 16 -13 12 -13 -10 0 -87 51 -87 57 0 5 27 -11
75 -44z m150 -96 c12 -13 -2 -4 -72 40 -29 19 -53 36 -53 39 0 6 111 -64 125
-79z m-5610 43 c10 -11 16 -20 13 -20 -3 0 -13 9 -23 20 -10 11 -16 20 -13 20
3 0 13 -9 23 -20z m4150 10 c3 -6 -1 -7 -9 -4 -18 7 -21 14 -7 14 6 0 13 -4
16 -10z m-4115 -60 c6 -11 8 -20 6 -20 -3 0 -10 9 -16 20 -6 11 -8 20 -6 20 3
0 10 -9 16 -20z m3775 -10 c28 -12 38 -18 24 -16 -15 3 -46 15 -70 26 -54 25
-22 18 46 -10z m-3443 -139 c27 -50 68 -144 93 -208 45 -115 106 -328 104
-367 0 -12 -13 29 -28 89 -36 141 -111 353 -137 385 -6 8 -21 36 -33 62 -19
43 -32 67 -96 175 -14 23 -11 22 16 -8 19 -20 55 -78 81 -128z m5608 -92 c18
-16 19 -18 3 -8 -67 43 -330 224 -343 237 -19 18 306 -200 340 -229z m-5910
191 c6 -11 8 -20 6 -20 -3 0 -10 9 -16 20 -6 11 -8 20 -6 20 3 0 10 -9 16 -20z
m3918 -25 c51 -21 91 -39 89 -41 -4 -5 -195 71 -205 81 -8 10 -5 8 116 -40z
m-3863 -71 c20 -37 34 -68 32 -70 -2 -2 -20 28 -41 66 -20 39 -35 70 -33 70 3
0 22 -30 42 -66z m-646 -4 c11 -24 11 -24 -3 -6 -9 11 -16 24 -16 30 0 12 5 7
19 -24z m4652 15 c19 -8 27 -14 19 -14 -14 0 -72 28 -59 29 4 0 22 -7 40 -15z
m193 -80 c265 -116 623 -290 786 -381 36 -20 85 -47 110 -61 25 -13 52 -28 60
-34 8 -5 65 -38 125 -73 329 -192 798 -515 1022 -703 32 -27 58 -41 65 -37 7
4 10 3 5 -1 -4 -5 5 -21 20 -37 29 -31 54 -39 32 -10 -11 14 -9 13 9 -2 12
-11 20 -21 18 -24 -10 -9 24 -33 36 -26 7 4 10 4 6 -1 -10 -11 11 -37 24 -29
5 3 12 -3 15 -15 3 -11 9 -19 13 -16 4 3 11 -2 14 -11 3 -8 11 -12 16 -9 6 4
9 3 8 -2 -2 -4 0 -8 3 -8 13 0 49 -38 49 -52 0 -7 4 -13 9 -13 32 0 574 -547
798 -805 28 -33 62 -72 75 -86 49 -54 201 -239 308 -374 121 -154 135 -171
159 -199 15 -18 15 -18 -6 -7 -12 6 -32 26 -44 43 -13 18 -26 35 -29 38 -3 3
-21 25 -40 50 -19 25 -42 54 -52 65 -129 157 -182 221 -187 225 -4 3 -33 36
-66 75 -33 38 -64 75 -70 81 -5 6 -32 37 -60 69 -289 335 -704 745 -1010 1000
-66 55 -122 102 -125 106 -15 17 -288 221 -435 325 -248 175 -559 371 -814
512 -36 20 -84 46 -106 58 -137 77 -538 271 -743 360 -128 55 -166 74 -150 74
3 0 71 -29 152 -65z m-4804 -9 c0 -6 -7 -1 -15 10 -8 10 -15 23 -15 28 0 6 7
1 15 -10 8 -10 15 -23 15 -28z m5175 -4 c-3 -3 -11 0 -18 7 -9 10 -8 11 6 5
10 -3 15 -9 12 -12z m-4521 -18 c3 -8 2 -12 -4 -9 -6 3 -10 10 -10 16 0 14 7
11 14 -7z m-630 -30 c3 -8 2 -12 -4 -9 -6 3 -10 10 -10 16 0 14 7 11 14 -7z
m6526 -30 c0 -3 -13 4 -30 16 -16 12 -30 24 -30 26 0 3 14 -4 30 -16 17 -12
30 -24 30 -26z m-1255 8 c-3 -3 -11 0 -18 7 -9 10 -8 11 6 5 10 -3 15 -9 12
-12z m-4605 -27 c0 -5 -5 -3 -10 5 -5 8 -10 20 -10 25 0 6 5 3 10 -5 5 -8 10
-19 10 -25z m5930 -32 c0 -8 -38 17 -51 33 -9 11 -2 9 19 -6 17 -13 32 -25 32
-27z m-5881 -93 c0 -8 -11 12 -24 44 -14 33 -25 62 -24 65 1 11 48 -94 48
-109z m-424 -3 c9 -32 18 -66 20 -75 2 -9 12 -55 23 -102 11 -47 23 -105 26
-130 4 -25 9 -56 12 -70 l4 -25 -10 25 c-11 23 -33 112 -44 170 -7 41 -46 192
-61 235 -7 22 -16 49 -20 60 -6 16 -3 15 13 -5 12 -14 28 -51 37 -83z m6336
76 c13 -16 12 -17 -3 -4 -17 13 -22 21 -14 21 2 0 10 -8 17 -17z m-6571 -28
c0 -5 -5 -3 -10 5 -5 8 -10 20 -10 25 0 6 5 3 10 -5 5 -8 10 -19 10 -25z
m1419 -39 c-3 -3 -11 5 -18 17 -13 21 -12 21 5 5 10 -10 16 -20 13 -22z m5226
14 c10 -11 16 -20 13 -20 -3 0 -13 9 -23 20 -10 11 -16 20 -13 20 3 0 13 -9
23 -20z m-6625 -25 c0 -5 -5 -3 -10 5 -5 8 -10 20 -10 25 0 6 5 3 10 -5 5 -8
10 -19 10 -25z m6675 -15 c10 -11 16 -20 13 -20 -3 0 -13 9 -23 20 -10 11 -16
20 -13 20 3 0 13 -9 23 -20z m-5255 -10 c6 -11 8 -20 6 -20 -3 0 -10 9 -16 20
-6 11 -8 20 -6 20 3 0 10 -9 16 -20z m-755 -42 c8 -28 13 -53 11 -56 -3 -2
-10 15 -16 38 -6 23 -14 48 -17 56 -3 8 -3 14 1 14 3 0 12 -23 21 -52z m6101
-20 c4 -7 -9 1 -29 16 -20 16 -37 30 -37 33 0 7 58 -36 66 -49z m-5306 -23 c0
-5 -5 -3 -10 5 -5 8 -10 20 -10 25 0 6 5 3 10 -5 5 -8 10 -19 10 -25z m5345
-5 c10 -11 16 -20 13 -20 -3 0 -13 9 -23 20 -10 11 -16 20 -13 20 3 0 13 -9
23 -20z m-6096 -130 c0 -8 -7 8 -15 35 -7 28 -13 57 -13 65 0 8 7 -7 15 -35 7
-27 13 -57 13 -65z m6142 93 c13 -16 12 -17 -3 -4 -17 13 -22 21 -14 21 2 0
10 -8 17 -17z m-6791 -28 c0 -5 -5 -3 -10 5 -5 8 -10 20 -10 25 0 6 5 3 10 -5
5 -8 10 -19 10 -25z m6840 -7 c0 -6 -6 -5 -15 2 -8 7 -15 14 -15 16 0 2 7 1
15 -2 8 -4 15 -11 15 -16z m35 -28 c10 -11 16 -20 13 -20 -3 0 -13 9 -23 20
-10 11 -16 20 -13 20 3 0 13 -9 23 -20z m-6855 -35 c0 -5 -5 -3 -10 5 -5 8
-10 20 -10 25 0 6 5 3 10 -5 5 -8 10 -19 10 -25z m-493 -53 c74 -162 185 -502
164 -502 -4 0 -18 42 -30 93 -32 124 -92 293 -144 399 -23 47 -36 81 -29 75 8
-6 25 -36 39 -65z m7403 43 c13 -14 21 -25 18 -25 -2 0 -15 11 -28 25 -13 14
-21 25 -18 25 2 0 15 -11 28 -25z m-6261 -79 c2 -45 -6 -27 -12 29 -4 34 -3
42 3 25 4 -14 8 -38 9 -54z m1828 48 c-3 -3 -12 -4 -19 -1 -8 3 -5 6 6 6 11 1
17 -2 13 -5z m4550 -67 c4 -6 -14 6 -40 27 -26 21 -47 40 -47 43 0 7 78 -56
87 -70z m-6142 -2 c4 -36 5 -69 1 -72 -3 -4 -6 9 -6 28 0 19 -4 51 -9 72 -5
20 -5 37 -1 37 5 0 12 -29 15 -65z m2162 -1 c-3 -3 -12 -4 -19 -1 -8 3 -5 6 6
6 11 1 17 -2 13 -5z m4023 -29 c13 -14 21 -25 18 -25 -2 0 -15 11 -28 25 -13
14 -21 25 -18 25 2 0 15 -11 28 -25z m-7043 -7 c-3 -8 -6 -5 -6 6 -1 11 2 17
5 13 3 -3 4 -12 1 -19z m635 -12 c2 -19 0 -32 -4 -30 -8 5 -12 64 -4 64 2 0 6
-15 8 -34z m2495 28 c-3 -3 -12 -4 -19 -1 -8 3 -5 6 6 6 11 1 17 -2 13 -5z
m156 -31 c-7 -2 -19 -2 -25 0 -7 3 -2 5 12 5 14 0 19 -2 13 -5z m3827 -38 c19
-19 32 -35 29 -35 -3 0 -20 16 -39 35 -19 19 -32 35 -29 35 3 0 20 -16 39 -35z
m-7103 -7 c-3 -8 -6 -5 -6 6 -1 11 2 17 5 13 3 -3 4 -12 1 -19z m636 -51 c4
-26 3 -46 -1 -43 -5 3 -9 26 -11 53 -3 59 4 54 12 -10z m2937 33 c8 -5 11 -10
5 -10 -5 0 -17 5 -25 10 -8 5 -10 10 -5 10 6 0 17 -5 25 -10z m-2713 -32 c-3
-7 -5 -2 -5 12 0 14 2 19 5 13 2 -7 2 -19 0 -25z m2770 16 c-3 -3 -12 -4 -19
-1 -8 3 -5 6 6 6 11 1 17 -2 13 -5z m3549 -26 l29 -33 -32 29 c-31 28 -38 36
-30 36 2 0 16 -15 33 -32z m-6319 -60 c-2 -13 -4 -5 -4 17 -1 22 1 32 4 23 2
-10 2 -28 0 -40z m606 -68 c6 -130 -26 -279 -80 -376 -32 -57 -42 -51 -12 8
33 63 48 104 63 183 15 77 18 196 6 249 -4 19 -5 38 -2 41 13 12 22 -27 25
-105z m2372 100 c3 -6 -1 -7 -9 -4 -18 7 -21 14 -7 14 6 0 13 -4 16 -10z
m3411 -32 l29 -33 -32 29 c-18 17 -33 31 -33 33 0 8 8 1 36 -29z m-7229 -10
c-3 -7 -5 -2 -5 12 0 14 2 19 5 13 2 -7 2 -19 0 -25z m3880 26 c-3 -3 -12 -4
-19 -1 -8 3 -5 6 6 6 11 1 17 -2 13 -5z m-3257 -119 c0 -63 -3 -115 -7 -115
-5 0 -7 52 -5 115 2 63 5 115 8 115 2 0 4 -52 4 -115z m3437 69 c-3 -3 -12 -4
-19 -1 -8 3 -5 6 6 6 11 1 17 -2 13 -5z m3248 -34 c21 -22 37 -40 34 -40 -3 0
-23 18 -44 40 -21 22 -37 40 -34 40 3 0 23 -18 44 -40z m-7298 -32 c-3 -7 -5
-2 -5 12 0 14 2 19 5 13 2 -7 2 -19 0 -25z m4180 26 c-3 -3 -12 -4 -19 -1 -8
3 -5 6 6 6 11 1 17 -2 13 -5z m90 -30 c-3 -3 -12 -4 -19 -1 -8 3 -5 6 6 6 11
1 17 -2 13 -5z m3153 -79 c19 -19 32 -35 29 -35 -3 0 -20 16 -39 35 -19 19
-32 35 -29 35 3 0 20 -16 39 -35z m-1019 -12 c13 -16 12 -17 -3 -4 -17 13 -22
21 -14 21 2 0 10 -8 17 -17z m-1786 -31 c-3 -3 -11 0 -18 7 -9 10 -8 11 6 5
10 -3 15 -9 12 -12z m75 -22 c8 -5 11 -10 5 -10 -5 0 -17 5 -25 10 -8 5 -10
10 -5 10 6 0 17 -5 25 -10z m2801 -7 c13 -16 12 -17 -3 -4 -17 13 -22 21 -14
21 2 0 10 -8 17 -17z m-2754 -9 c-3 -3 -12 -4 -19 -1 -8 3 -5 6 6 6 11 1 17
-2 13 -5z m2838 -64 c33 -33 57 -60 54 -60 -2 0 -31 27 -64 60 -33 33 -57 60
-54 60 2 0 31 -27 64 -60z m-7958 28 c-3 -8 -6 -5 -6 6 -1 11 2 17 5 13 3 -3
4 -12 1 -19z m5183 12 c8 -5 11 -10 5 -10 -5 0 -17 5 -25 10 -8 5 -10 10 -5
10 6 0 17 -5 25 -10z m80 -30 c8 -5 11 -10 5 -10 -5 0 -17 5 -25 10 -8 5 -10
10 -5 10 6 0 17 -5 25 -10z m1681 -7 c13 -16 12 -17 -3 -4 -17 13 -22 21 -14
21 2 0 10 -8 17 -17z m-6933 -24 c-3 -8 -7 -3 -11 10 -4 17 -3 21 5 13 5 -5 8
-16 6 -23z m5332 1 c8 -5 11 -10 5 -10 -5 0 -17 5 -25 10 -8 5 -10 10 -5 10 6
0 17 -5 25 -10z m100 -40 c8 -5 11 -10 5 -10 -5 0 -17 5 -25 10 -8 5 -10 10
-5 10 6 0 17 -5 25 -10z m2594 -16 c3 -8 2 -12 -4 -9 -6 3 -10 10 -10 16 0 14
7 11 14 -7z m-2514 -16 c10 -6 7 -7 -10 -2 -14 3 -32 11 -40 16 -10 6 -7 7 10
2 14 -3 32 -11 40 -16z m70 -28 c8 -5 11 -10 5 -10 -5 0 -17 5 -25 10 -8 5
-10 10 -5 10 6 0 17 -5 25 -10z m2511 -27 c13 -16 12 -17 -3 -4 -17 13 -22 21
-14 21 2 0 10 -8 17 -17z m-2444 1 c-3 -3 -12 -4 -19 -1 -8 3 -5 6 6 6 11 1
17 -2 13 -5z m83 -34 c8 -5 11 -10 5 -10 -5 0 -17 5 -25 10 -8 5 -10 10 -5 10
6 0 17 -5 25 -10z m2414 -16 c7 -19 2 -18 -19 6 -16 17 -16 20 -3 15 9 -4 19
-13 22 -21z m-7787 -21 c-3 -10 -5 -4 -5 12 0 17 2 24 5 18 2 -7 2 -21 0 -30z
m5468 -11 c-3 -3 -11 0 -18 7 -9 10 -8 11 6 5 10 -3 15 -9 12 -12z m2555 -214
c-3 -2 -54 49 -115 112 l-110 115 115 -112 c63 -62 112 -114 110 -115z m-8363
190 c-3 -8 -6 -5 -6 6 -1 11 2 17 5 13 3 -3 4 -12 1 -19z m5893 -8 c8 -5 11
-10 5 -10 -5 0 -17 5 -25 10 -8 5 -10 10 -5 10 6 0 17 -5 25 -10z m-5563 -42
c-3 -8 -6 -5 -6 6 -1 11 2 17 5 13 3 -3 4 -12 1 -19z m5633 12 c8 -5 11 -10 5
-10 -5 0 -17 5 -25 10 -8 5 -10 10 -5 10 6 0 17 -5 25 -10z m-5654 -116 c-8
-32 -15 -51 -15 -42 -1 23 22 123 26 111 2 -5 -3 -36 -11 -69z m5809 46 c3 -6
-1 -7 -9 -4 -18 7 -21 14 -7 14 6 0 13 -4 16 -10z m45 -20 c8 -5 11 -10 5 -10
-5 0 -17 5 -25 10 -8 5 -10 10 -5 10 6 0 17 -5 25 -10z m85 -40 c3 -6 -1 -7
-9 -4 -18 7 -21 14 -7 14 6 0 13 -4 16 -10z m40 -20 c3 -6 -1 -7 -9 -4 -18 7
-21 14 -7 14 6 0 13 -4 16 -10z m70 -30 c3 -6 -1 -7 -9 -4 -18 7 -21 14 -7 14
6 0 13 -4 16 -10z m2080 -50 c33 -33 57 -60 54 -60 -2 0 -31 27 -64 60 -33 33
-57 60 -54 60 2 0 31 -27 64 -60z m-2040 30 c3 -6 -1 -7 -9 -4 -18 7 -21 14
-7 14 6 0 13 -4 16 -10z m105 -56 c0 -2 -13 2 -30 11 -16 9 -30 18 -30 21 0 2
14 -2 30 -11 17 -9 30 -18 30 -21z m40 -14 c8 -5 11 -10 5 -10 -5 0 -17 5 -25
10 -8 5 -10 10 -5 10 6 0 17 -5 25 -10z m45 -28 c-3 -3 -11 0 -18 7 -9 10 -8
11 6 5 10 -3 15 -9 12 -12z m1965 -57 c30 -30 52 -55 49 -55 -2 0 -29 25 -59
55 -30 30 -52 55 -49 55 2 0 29 -25 59 -55z m-1865 13 c5 -5 -5 -3 -23 3 -18
6 -35 15 -38 20 -6 10 45 -10 61 -23z m69 -33 c11 -8 16 -15 10 -15 -5 0 -18
7 -28 15 -11 8 -16 15 -10 15 5 0 18 -7 28 -15z m106 -61 c0 -2 -9 0 -20 6
-11 6 -20 13 -20 16 0 2 9 0 20 -6 11 -6 20 -13 20 -16z m1776 -16 l29 -33
-32 29 c-31 28 -38 36 -30 36 2 0 16 -15 33 -32z m-1736 2 c8 -5 11 -10 5 -10
-5 0 -17 5 -25 10 -8 5 -10 10 -5 10 6 0 17 -5 25 -10z m80 -46 c0 -2 -13 2
-30 11 -16 9 -30 18 -30 21 0 2 14 -2 30 -11 17 -9 30 -18 30 -21z m1710 -19
c13 -14 21 -25 18 -25 -2 0 -15 11 -28 25 -13 14 -21 25 -18 25 2 0 15 -11 28
-25z m-1635 -23 c-3 -3 -11 0 -18 7 -9 10 -8 11 6 5 10 -3 15 -9 12 -12z m40
-20 c-3 -3 -11 0 -18 7 -9 10 -8 11 6 5 10 -3 15 -9 12 -12z m1651 -24 l29
-33 -32 29 c-18 17 -33 31 -33 33 0 8 8 1 36 -29z m-1611 4 c-3 -3 -11 0 -18
7 -9 10 -8 11 6 5 10 -3 15 -9 12 -12z m70 -40 c-3 -3 -11 0 -18 7 -9 10 -8
11 6 5 10 -3 15 -9 12 -12z m1595 -27 c13 -14 21 -25 18 -25 -2 0 -15 11 -28
25 -13 14 -21 25 -18 25 2 0 15 -11 28 -25z m-1520 -11 c0 -2 -9 0 -20 6 -11
6 -20 13 -20 16 0 2 9 0 20 -6 11 -6 20 -13 20 -16z m79 -40 c14 -12 -19 -1
-35 12 -18 14 -18 14 6 3 14 -6 27 -13 29 -15z m1587 -129 c25 -33 32 -44 14
-25 -17 19 -51 62 -76 95 -25 33 -32 44 -14 25 17 -19 51 -62 76 -95z m-1466
59 c0 -2 -9 0 -20 6 -11 6 -20 13 -20 16 0 2 9 0 20 -6 11 -6 20 -13 20 -16z
m110 -60 c0 -2 -13 2 -30 11 -16 9 -30 18 -30 21 0 2 14 -2 30 -11 17 -9 30
-18 30 -21z m-9364 7 c19 -6 -21 -9 -121 -10 -211 -2 -384 -13 -495 -31 -30
-5 -75 -11 -100 -14 -177 -22 -402 -111 -485 -192 -25 -24 -41 -36 -36 -26 41
76 253 187 411 215 24 5 59 11 125 22 111 19 154 24 270 31 55 4 101 7 102 8
8 6 306 3 329 -3z m9455 -58 c13 -17 13 -17 -6 -3 -11 8 -22 16 -24 17 -2 2 0
3 6 3 6 0 17 -8 24 -17z m44 -23 c3 -6 -1 -7 -9 -4 -18 7 -21 14 -7 14 6 0 13
-4 16 -10z m1290 -10 c10 -11 16 -20 13 -20 -3 0 -13 9 -23 20 -10 11 -16 20
-13 20 3 0 13 -9 23 -20z m-1235 -26 c0 -2 -9 0 -20 6 -11 6 -20 13 -20 16 0
2 9 0 20 -6 11 -6 20 -13 20 -16z m1301 -56 c31 -43 17 -34 -21 15 -19 23 -26
36 -17 28 10 -8 27 -27 38 -43z m-1211 6 c0 -2 -13 2 -30 11 -16 9 -30 18 -30
21 0 2 14 -2 30 -11 17 -9 30 -18 30 -21z m85 -49 l20 -16 -20 10 c-11 5 -29
17 -40 26 l-20 16 20 -10 c11 -5 29 -17 40 -26z m1664 -30 c63 -4 192 -13 261
-20 19 -2 69 -6 110 -10 41 -4 82 -8 90 -10 8 -1 44 -6 80 -11 36 -4 67 -8 70
-9 3 -1 32 -5 65 -9 33 -5 67 -10 75 -11 21 -4 99 -16 135 -21 28 -4 46 -7
105 -19 45 -10 185 -35 193 -35 4 0 7 -4 7 -9 0 -5 -16 -5 -37 0 -131 30 -539
95 -718 114 -27 3 -65 7 -84 10 -19 2 -73 7 -120 10 -47 4 -102 8 -121 10 -43
5 -289 15 -468 19 -73 2 -136 6 -139 10 -7 6 350 0 496 -9z m-1519 -61 c0 -2
-9 0 -20 6 -11 6 -20 13 -20 16 0 2 9 0 20 -6 11 -6 20 -13 20 -16z m-11115
-3 c3 -5 2 -12 -3 -15 -5 -3 -9 1 -9 9 0 17 3 19 12 6z m11206 -48 c13 -17 13
-17 -6 -3 -11 8 -22 16 -24 17 -2 2 0 3 6 3 6 0 17 -8 24 -17z m2914 -117
c184 -45 420 -114 575 -170 69 -24 145 -51 170 -60 25 -9 54 -20 65 -26 11 -5
65 -28 120 -50 152 -62 187 -78 359 -164 479 -237 878 -517 1249 -876 76 -73
136 -135 134 -137 -3 -2 -47 38 -99 89 -135 134 -191 185 -299 274 -98 82
-107 89 -224 177 -386 291 -955 586 -1455 753 -41 14 -84 30 -95 34 -11 5 -58
20 -105 34 -47 14 -132 39 -190 56 -58 18 -192 52 -297 78 -106 25 -193 49
-193 53 0 4 33 -1 73 -11 39 -11 135 -35 212 -54z m-11988 -22 c-3 -3 -12 -4
-19 -1 -8 3 -5 6 6 6 11 1 17 -2 13 -5z m-200 -40 c-3 -3 -12 -4 -19 -1 -8 3
-5 6 6 6 11 1 17 -2 13 -5z m-200 -30 c-3 -3 -12 -4 -19 -1 -8 3 -5 6 6 6 11
1 17 -2 13 -5z m-130 -10 c-3 -3 -12 -4 -19 -1 -8 3 -5 6 6 6 11 1 17 -2 13
-5z m-260 -10 c-3 -3 -12 -4 -19 -1 -8 3 -5 6 6 6 11 1 17 -2 13 -5z m46 -1
c-7 -2 -19 -2 -25 0 -7 3 -2 5 12 5 14 0 19 -2 13 -5z m-6373 -317 c0 -2 -7
-7 -16 -10 -8 -3 -12 -2 -9 4 6 10 25 14 25 6z m-1620 -10 c0 -2 -8 -10 -17
-17 -16 -13 -17 -12 -4 4 13 16 21 21 21 13z m-30 -39 c0 -2 -17 -19 -37 -38
l-38 -34 34 38 c33 34 41 42 41 34z m1520 -40 c0 -2 -10 -12 -22 -23 l-23 -19
19 23 c18 21 26 27 26 19z m-1590 -40 c0 -2 -15 -16 -32 -33 l-33 -29 29 33
c28 30 36 37 36 29z m1540 -1 c0 -2 -8 -10 -17 -17 -16 -13 -17 -12 -4 4 13
16 21 21 21 13z m-40 -30 c0 -2 -8 -10 -17 -17 -16 -13 -17 -12 -4 4 13 16 21
21 21 13z m-40 -29 c0 -2 -10 -12 -22 -23 l-23 -19 19 23 c18 21 26 27 26 19z
m-1655 -147 c-66 -66 -122 -120 -125 -120 -2 0 49 54 115 120 66 66 122 120
125 120 2 0 -49 -54 -115 -120z m1605 106 c0 -2 -8 -10 -17 -17 -16 -13 -17
-12 -4 4 13 16 21 21 21 13z m-40 -30 c0 -2 -8 -10 -17 -17 -16 -13 -17 -12
-4 4 13 16 21 21 21 13z m-41 -39 c-2 -1 -15 -11 -29 -22 l-25 -20 19 23 c11
12 24 22 29 22 6 0 8 -1 6 -3z m-79 -61 c0 -2 -8 -10 -17 -17 -16 -13 -17 -12
-4 4 13 16 21 21 21 13z m-40 -29 c0 -2 -12 -14 -27 -28 l-28 -24 24 28 c23
25 31 32 31 24z m-70 -60 c0 -2 -10 -12 -22 -23 l-23 -19 19 23 c18 21 26 27
26 19z m-1490 -30 c0 -2 -17 -19 -37 -38 l-38 -34 34 38 c33 34 41 42 41 34z
m1439 -19 c-2 -2 -20 -16 -39 -33 l-35 -30 29 33 c17 17 34 32 40 32 5 0 7 -1
5 -2z m-1520 -60 c-2 -2 -20 -16 -39 -33 l-35 -30 29 33 c17 17 34 32 40 32 5
0 7 -1 5 -2z m1441 -1 c0 -2 -17 -19 -37 -38 l-38 -34 34 38 c33 34 41 42 41
34z m-1520 -60 c0 -2 -10 -12 -22 -23 l-23 -19 19 23 c18 21 26 27 26 19z
m1400 -52 c-24 -25 -47 -45 -51 -45 -8 0 83 89 91 90 2 0 -16 -20 -40 -45z
m-1450 12 c0 -2 -12 -14 -27 -28 l-28 -24 24 28 c23 25 31 32 31 24z m-60 -51
c0 -2 -8 -10 -17 -17 -16 -13 -17 -12 -4 4 13 16 21 21 21 13z m1440 -19 c0
-1 -28 -29 -62 -62 l-63 -60 60 63 c55 58 65 67 65 59z m-1480 -10 c0 -2 -10
-12 -22 -23 l-23 -19 19 23 c18 21 26 27 26 19z m-105 -83 c-16 -14 -50 -38
-75 -55 -47 -31 -26 -11 50 47 52 39 69 45 25 8z m21753 -41 c-10 -2 -26 -2
-35 0 -10 3 -2 5 17 5 19 0 27 -2 18 -5z m-20318 -6 c0 -2 -19 -21 -42 -42
l-43 -40 40 43 c36 39 45 47 45 39z m20155 -6 c-11 -9 -110 -22 -100 -13 3 4
27 9 53 13 26 3 49 7 52 8 2 0 0 -3 -5 -8z m63 2 c-10 -2 -26 -2 -35 0 -10 3
-2 5 17 5 19 0 27 -2 18 -5z m-203 -23 c-16 -4 -43 -8 -60 -8 -29 1 -29 1 5 8
19 4 46 7 60 8 22 0 22 -1 -5 -8z m-101 -8 c2 -4 -12 -8 -32 -9 -36 -1 -36 -1
-7 7 17 4 31 8 32 9 1 0 4 -3 7 -7z m-129 -22 c-3 -5 -18 -9 -33 -9 l-27 1 30
8 c17 4 31 8 33 9 2 0 0 -3 -3 -9z m48 3 c-7 -2 -19 -2 -25 0 -7 3 -2 5 12 5
14 0 19 -2 13 -5z m-113 -17 c0 -2 -13 -6 -29 -8 -17 -2 -28 -1 -25 4 5 8 54
12 54 4z m-21340 -11 c0 -2 -10 -9 -22 -15 -22 -11 -22 -10 -4 4 21 17 26 19
26 11z m21263 -2 c-7 -2 -21 -2 -30 0 -10 3 -4 5 12 5 17 0 24 -2 18 -5z
m-19781 -46 c-79 -71 -101 -85 -32 -19 36 33 68 61 72 62 4 0 -14 -19 -40 -43z
m19728 39 c0 -2 -9 -6 -20 -9 -11 -3 -20 -1 -20 4 0 5 9 9 20 9 11 0 20 -2 20
-4z m-51 -10 c-2 -2 -22 -6 -44 -9 -28 -5 -34 -4 -20 3 19 8 73 14 64 6z
m-21219 -21 c-7 -8 -17 -15 -23 -15 -6 0 -2 7 9 15 25 19 30 19 14 0z m21075
-5 c-3 -5 -16 -10 -28 -9 -20 1 -20 2 3 9 14 4 26 8 28 9 2 1 0 -3 -3 -9z m48
3 c-7 -2 -19 -2 -25 0 -7 3 -2 5 12 5 14 0 19 -2 13 -5z m-148 -22 c-6 -5 -28
-12 -50 -15 l-40 -6 45 14 c57 18 56 18 45 7z m42 3 c-3 -3 -12 -4 -19 -1 -8
3 -5 6 6 6 11 1 17 -2 13 -5z m-137 -28 c0 -2 -9 -6 -20 -9 -11 -3 -18 -1 -14
4 5 9 34 13 34 5z m-65 -16 c-11 -5 -29 -8 -40 -8 -16 0 -15 2 5 8 34 11 60
11 35 0z m-135 -31 c-41 -11 -79 -18 -84 -16 -12 4 112 35 139 35 11 0 -14 -8
-55 -19z m3898 -42 c23 -29 54 -65 70 -82 21 -23 204 -236 344 -400 9 -11 29
-33 43 -50 70 -80 106 -125 102 -125 -21 0 -47 25 -119 113 -173 213 -424 514
-467 560 -24 26 -38 45 -30 42 8 -4 33 -30 57 -58z m-24728 48 c0 -2 -10 -9
-22 -15 -22 -11 -22 -10 -4 4 21 17 26 19 26 11z m1590 2 c0 -2 -10 -12 -22
-23 l-23 -19 19 23 c18 21 26 27 26 19z m-1645 -37 c-3 -5 -12 -10 -18 -10 -7
0 -6 4 3 10 19 12 23 12 15 0z m20770 0 c-11 -5 -29 -8 -40 -8 -16 0 -15 2 5
8 34 11 60 11 35 0z m-19175 -3 c0 -2 -10 -12 -22 -23 l-23 -19 19 23 c18 21
26 27 26 19z m19095 -17 c-11 -5 -27 -9 -35 -9 -9 0 -8 4 5 9 11 5 27 9 35 9
9 0 8 -4 -5 -9z m-20755 -14 c0 -2 -7 -7 -16 -10 -8 -3 -12 -2 -9 4 6 10 25
14 25 6z m20655 -12 c-27 -7 -54 -13 -60 -13 -17 2 69 27 90 27 11 0 -2 -6
-30 -14z m-19045 3 c0 -2 -12 -14 -27 -28 l-28 -24 24 28 c23 25 31 32 31 24z
m18961 -24 c-42 -17 -262 -80 -255 -73 11 10 232 78 254 78 12 0 12 -1 1 -5z
m-20651 -8 c0 -2 -10 -9 -22 -15 -22 -11 -22 -10 -4 4 21 17 26 19 26 11z
m1600 -39 c0 -2 -22 -20 -50 -40 -27 -20 -50 -34 -50 -31 0 4 91 74 98 75 1 0
2 -2 2 -4z m-1710 -16 c0 -5 -5 -10 -11 -10 -5 0 -7 5 -4 10 3 6 8 10 11 10 2
0 4 -4 4 -10z m20490 -14 c0 -6 -103 -36 -108 -31 -2 2 18 10 44 19 54 16 64
18 64 12z m-20560 -20 c0 -2 -7 -7 -16 -10 -8 -3 -12 -2 -9 4 6 10 25 14 25 6z
m-50 -26 c-8 -5 -22 -9 -30 -9 -10 0 -8 3 5 9 27 12 43 12 25 0z m20441 -11
c-30 -10 -56 -17 -58 -15 -5 5 77 34 97 34 8 1 -9 -8 -39 -19z m-20516 -19
c-3 -5 -12 -10 -18 -10 -7 0 -6 4 3 10 19 12 23 12 15 0z m1765 6 c0 -2 -8
-10 -17 -17 -16 -13 -17 -12 -4 4 13 16 21 21 21 13z m18616 -32 c-38 -13 -71
-22 -73 -20 -5 5 107 44 127 44 8 0 -16 -10 -54 -24z m-18656 1 c0 -2 -10 -9
-22 -15 -22 -11 -22 -10 -4 4 21 17 26 19 26 11z m-1810 -9 c0 -2 -7 -7 -16
-10 -8 -3 -12 -2 -9 4 6 10 25 14 25 6z m25195 -6 c3 -6 -1 -7 -9 -4 -18 7
-21 14 -7 14 6 0 13 -4 16 -10z m-25240 -10 c-3 -5 -12 -10 -18 -10 -7 0 -6 4
3 10 19 12 23 12 15 0z m1805 -4 c0 -2 -12 -11 -27 -20 l-28 -17 24 20 c23 21
31 25 31 17z m18590 -5 c0 -5 -11 -12 -24 -15 -13 -3 -32 -8 -43 -11 -10 -3 0
3 22 14 49 24 45 23 45 12z m-20453 -17 c-3 -3 -12 -4 -19 -1 -8 3 -5 6 6 6
11 1 17 -2 13 -5z m1803 -19 c0 -2 -10 -9 -22 -15 -22 -11 -22 -10 -4 4 21 17
26 19 26 11z m18548 0 c-9 -9 -131 -55 -135 -51 -2 2 24 15 59 29 63 25 86 32
76 22z m-18598 -30 c0 -2 -10 -9 -22 -15 -22 -11 -22 -10 -4 4 21 17 26 19 26
11z m20877 -21 c-3 -3 -12 -4 -19 -1 -8 3 -5 6 6 6 11 1 17 -2 13 -5z m-2456
-19 c-18 -8 -36 -15 -40 -15 -13 1 45 29 59 29 8 0 0 -6 -19 -14z m-20454 -1
c-3 -3 -12 -4 -19 -1 -8 3 -5 6 6 6 11 1 17 -2 13 -5z m1952 -7 c-2 -1 -13 -9
-24 -17 -19 -14 -19 -14 -6 3 7 9 18 17 24 17 6 0 8 -1 6 -3z m6221 -7 c0 -6
-30 -9 -72 -8 l-73 2 70 6 c39 4 71 7 73 8 1 1 2 -2 2 -8z m35 0 c-3 -5 -12
-10 -18 -10 -7 0 -6 4 3 10 19 12 23 12 15 0z m39 2 c3 -5 -1 -9 -9 -9 -8 0
-12 4 -9 9 3 4 7 8 9 8 2 0 6 -4 9 -8z m41 -10 c-3 -3 -11 0 -18 7 -9 10 -8
11 6 5 10 -3 15 -9 12 -12z m46 0 c-7 -2 -18 1 -23 6 -8 8 -4 9 13 5 13 -4 18
-8 10 -11z m-8414 2 c-3 -3 -12 -4 -19 -1 -8 3 -5 6 6 6 11 1 17 -2 13 -5z
m8103 -2 c0 -5 -7 -9 -15 -9 -8 0 -12 4 -9 9 3 4 9 8 15 8 5 0 9 -4 9 -8z
m373 1 c-7 -2 -21 -2 -30 0 -10 3 -4 5 12 5 17 0 24 -2 18 -5z m90 0 c-13 -2
-35 -2 -50 0 -16 2 -5 4 22 4 28 0 40 -2 28 -4z m106 -8 c3 -3 -7 -4 -23 -1
-16 3 -31 8 -35 11 -3 3 7 4 23 1 16 -3 31 -8 35 -11z m11727 -21 c-49 -19
-91 -33 -93 -31 -5 5 148 65 167 65 8 1 -25 -15 -74 -34z m-12441 16 c-3 -5
-21 -9 -38 -9 l-32 2 35 7 c19 4 36 8 38 9 2 0 0 -3 -3 -9z m88 3 c-13 -2 -35
-2 -50 0 -16 2 -5 4 22 4 28 0 40 -2 28 -4z m680 0 c-7 -2 -21 -2 -30 0 -10 3
-4 5 12 5 17 0 24 -2 18 -5z m-853 -12 c0 -4 -28 -12 -62 -15 -255 -29 -671
-144 -938 -261 -57 -25 -105 -43 -108 -40 -3 2 6 9 19 14 14 5 45 18 69 29
142 64 343 132 560 190 68 19 258 57 400 80 30 5 56 10 58 11 1 0 2 -3 2 -8z
m943 2 c-7 -2 -21 -2 -30 0 -10 3 -4 5 12 5 17 0 24 -2 18 -5z m42 -3 c3 -6
-1 -7 -9 -4 -18 7 -21 14 -7 14 6 0 13 -4 16 -10z m-8978 -6 c-3 -3 -12 -4
-19 -1 -8 3 -5 6 6 6 11 1 17 -2 13 -5z m2078 -4 c-3 -5 -12 -10 -18 -10 -7 0
-6 4 3 10 19 12 23 12 15 0z m6942 4 c-3 -3 -12 -4 -19 -1 -8 3 -5 6 6 6 11 1
17 -2 13 -5z m-9070 -10 c-3 -3 -12 -4 -19 -1 -8 3 -5 6 6 6 11 1 17 -2 13 -5z
m9146 -1 c-7 -2 -21 -2 -30 0 -10 3 -4 5 12 5 17 0 24 -2 18 -5z m32 -3 c3 -5
1 -10 -4 -10 -6 0 -11 5 -11 10 0 6 2 10 4 10 3 0 8 -4 11 -10z m42 -6 c-3 -3
-12 -4 -19 -1 -8 3 -5 6 6 6 11 1 17 -2 13 -5z m13638 -4 c-3 -5 -12 -10 -18
-10 -7 0 -6 4 3 10 19 12 23 12 15 0z m-13598 -6 c-3 -3 -12 -4 -19 -1 -8 3
-5 6 6 6 11 1 17 -2 13 -5z m-7197 -8 c0 -2 -7 -7 -16 -10 -8 -3 -12 -2 -9 4
6 10 25 14 25 6z m18370 -16 c-19 -11 -42 -19 -50 -19 -8 0 3 8 25 18 52 25
70 26 25 1z m-18415 -10 c-3 -5 -12 -10 -18 -10 -7 0 -6 4 3 10 19 12 23 12
15 0z m7412 4 c-3 -3 -12 -4 -19 -1 -8 3 -5 6 6 6 11 1 17 -2 13 -5z m13318
-3 c-13 -11 -77 -32 -82 -27 -2 2 15 11 39 19 53 19 54 19 43 8z m-23122 -8
c-7 -2 -19 -2 -25 0 -7 3 -2 5 12 5 14 0 19 -2 13 -5z m9867 -3 c8 -5 11 -10
5 -10 -5 0 -17 5 -25 10 -8 5 -10 10 -5 10 6 0 17 -5 25 -10z m-7510 -4 c0 -2
-7 -7 -16 -10 -8 -3 -12 -2 -9 4 6 10 25 14 25 6z m18340 -21 c-25 -13 -49
-24 -55 -24 -5 0 10 11 35 24 25 13 50 24 55 24 6 0 -10 -11 -35 -24z m-18380
1 c0 -2 -7 -7 -16 -10 -8 -3 -12 -2 -9 4 6 10 25 14 25 6z m20700 -6 c-8 -5
-19 -10 -25 -10 -5 0 -3 5 5 10 8 5 20 10 25 10 6 0 3 -5 -5 -10z m-60 -25
c-14 -8 -29 -14 -35 -14 -5 0 1 6 15 14 14 8 30 14 35 14 6 0 -1 -6 -15 -14z
m-20710 -5 c0 -5 -5 -10 -11 -10 -5 0 -7 5 -4 10 3 6 8 10 11 10 2 0 4 -4 4
-10z m7847 4 c-3 -3 -12 -4 -19 -1 -8 3 -5 6 6 6 11 1 17 -2 13 -5z m10533 2
c0 -2 -13 -9 -30 -15 -35 -12 -41 -5 -7 9 25 10 37 12 37 6z m2250 -33 c-387
-179 -619 -307 -885 -489 l-95 -65 -1 -62 c-1 -34 -2 -75 -4 -92 -1 -16 -6
-70 -9 -119 -4 -49 -9 -96 -11 -105 -1 -9 -6 -43 -9 -76 -26 -228 -103 -648
-157 -860 -12 -44 -23 -91 -25 -105 -3 -14 -7 -32 -10 -40 -3 -8 -8 -24 -10
-35 -26 -135 -248 -808 -317 -965 -9 -19 -30 -71 -48 -115 -77 -194 -272 -597
-369 -766 -22 -38 -59 -102 -81 -141 -114 -200 -291 -470 -438 -668 -101 -137
-276 -359 -299 -380 -41 -37 -96 -115 -98 -139 -3 -25 -12 -84 -19 -126 -1
-11 -6 -38 -10 -60 -3 -22 -10 -53 -15 -70 -4 -16 -11 -48 -15 -70 -12 -71
-95 -324 -151 -464 -123 -302 -290 -590 -498 -861 -172 -224 -375 -432 -611
-627 -145 -119 -463 -343 -488 -343 -7 0 -7 3 -2 8 20 17 115 82 120 82 11 0
260 183 362 267 112 90 411 383 498 487 390 462 673 1033 779 1571 14 72 28
155 32 185 7 56 16 71 135 209 215 253 484 637 699 1001 141 239 351 662 452
910 16 41 36 89 43 105 56 129 206 557 246 705 7 25 13 47 14 50 1 3 7 25 15
50 7 25 15 50 16 55 21 73 116 458 120 485 3 19 9 51 14 70 5 19 20 98 34 175
14 77 28 149 30 160 5 27 15 100 21 155 3 25 7 56 10 70 2 14 7 50 10 80 3 30
8 71 10 90 6 50 16 173 20 259 2 40 5 74 7 75 2 1 48 31 103 68 131 86 196
127 291 181 44 25 97 55 119 67 115 66 479 239 500 239 6 0 -6 -8 -25 -16z
m-20690 -3 c-8 -5 -19 -10 -25 -10 -5 0 -3 5 5 10 8 5 20 10 25 10 6 0 3 -5
-5 -10z m18360 1 c-8 -5 -26 -11 -40 -15 -21 -5 -20 -3 5 9 32 15 60 20 35 6z
m-18450 -36 c0 -2 -13 -11 -30 -20 -38 -19 -40 -11 -2 9 31 17 32 18 32 11z
m18330 -15 c-19 -11 -39 -19 -45 -19 -5 0 6 8 25 19 19 11 40 19 45 19 6 0 -6
-8 -25 -19z m-10025 -18 c-3 -3 -11 0 -18 7 -9 10 -8 11 6 5 10 -3 15 -9 12
-12z m9945 -17 c-14 -8 -29 -14 -35 -14 -5 0 1 6 15 14 14 8 30 14 35 14 6 0
-1 -6 -15 -14z m-18390 -15 c-8 -5 -19 -10 -25 -10 -5 0 -3 5 5 10 8 5 20 10
25 10 6 0 3 -5 -5 -10z m18285 -32 c-68 -35 -133 -63 -124 -54 10 10 163 85
174 85 6 0 -17 -14 -50 -31z m-18375 -2 c0 -2 -7 -7 -16 -10 -8 -3 -12 -2 -9
4 6 10 25 14 25 6z m5430 -20 c0 -2 -44 -25 -97 -52 -54 -26 -101 -53 -105
-58 -5 -8 -8 -7 -8 1 0 6 44 34 98 62 92 47 112 56 112 47z m-5550 -26 c-8 -5
-19 -10 -25 -10 -5 0 -3 5 5 10 8 5 20 10 25 10 6 0 3 -5 -5 -10z m18359 -14
c-2 -2 -15 -9 -29 -15 -24 -11 -24 -11 -6 3 16 13 49 24 35 12z m-99 -51 c-25
-13 -49 -24 -55 -24 -5 0 10 11 35 24 25 13 50 24 55 24 6 0 -10 -11 -35 -24z
m-18515 -15 c-3 -5 -12 -10 -18 -10 -7 0 -6 4 3 10 19 12 23 12 15 0z m12173
3 c-10 -2 -26 -2 -35 0 -10 3 -2 5 17 5 19 0 27 -2 18 -5z m125 -23 c5 -4 -15
-3 -45 2 -29 5 -55 12 -58 15 -8 9 94 -8 103 -17z m6147 5 c0 -2 -18 -14 -40
-25 -22 -11 -40 -18 -40 -15 0 2 17 13 38 24 42 23 42 23 42 16z m-6096 -14
c4 -5 -3 -7 -14 -4 -23 6 -26 13 -6 13 8 0 17 -4 20 -9z m100 -21 c5 -5 -8 -5
-30 1 -57 15 -64 20 -19 13 22 -3 44 -10 49 -14z m95 -16 c12 -11 -9 -10 -44
2 l-40 13 40 -6 c22 -3 42 -7 44 -9z m5810 2 c-10 -9 -129 -66 -129 -61 0 6
111 64 124 65 5 0 7 -2 5 -4z m-18622 -12 c-3 -3 -12 -4 -19 -1 -8 3 -5 6 6 6
11 1 17 -2 13 -5z m12850 0 c-3 -3 -12 -4 -19 -1 -8 3 -5 6 6 6 11 1 17 -2 13
-5z m172 -39 c74 -19 137 -37 140 -41 7 -7 -10 -3 -179 42 -69 18 -118 33
-110 33 8 0 75 -15 149 -34z m-13134 15 c-3 -5 -14 -10 -23 -9 -14 0 -13 2 3
9 27 11 27 11 20 0z m-75 -14 c0 -2 -7 -7 -16 -10 -8 -3 -12 -2 -9 4 6 10 25
14 25 6z m-73 -22 c-3 -3 -12 -4 -19 -1 -8 3 -5 6 6 6 11 1 17 -2 13 -5z
m18738 -3 c-15 -13 -251 -135 -240 -124 10 10 235 132 245 133 2 0 0 -4 -5 -9z
m-18838 -17 c-3 -3 -12 -4 -19 -1 -8 3 -5 6 6 6 11 1 17 -2 13 -5z m13736 -60
c64 -20 115 -39 113 -41 -3 -3 -31 4 -63 15 -32 12 -98 33 -148 47 -49 15 -94
31 -100 36 -5 5 11 3 35 -5 25 -8 98 -31 163 -52z m-13836 40 c-3 -3 -12 -4
-19 -1 -8 3 -5 6 6 6 11 1 17 -2 13 -5z m-50 -10 c-3 -3 -12 -4 -19 -1 -8 3
-5 6 6 6 11 1 17 -2 13 -5z m-64 -11 c-7 -2 -19 -2 -25 0 -7 3 -2 5 12 5 14 0
19 -2 13 -5z m-200 -30 c-7 -2 -19 -2 -25 0 -7 3 -2 5 12 5 14 0 19 -2 13 -5z
m-116 -19 c-3 -3 -12 -4 -19 -1 -8 3 -5 6 6 6 11 1 17 -2 13 -5z m14514 -55
c44 -18 78 -34 76 -36 -4 -3 -157 55 -166 63 -11 10 16 2 90 -27z m4594 22
c-15 -15 -212 -124 -198 -110 11 11 192 117 203 118 2 1 0 -3 -5 -8z m-4455
-76 c33 -19 21 -19 -21 0 -19 8 -27 14 -19 14 8 0 26 -6 40 -14z m74 -30 c20
-8 36 -18 36 -20 0 -5 -70 22 -79 30 -8 9 6 5 43 -10z m4124 -45 c-27 -17 -51
-30 -55 -30 -11 0 80 59 92 59 6 0 -11 -13 -37 -29z m-13243 -71 c-13 -51 -16
-95 -13 -158 3 -47 2 -75 -2 -61 -14 45 -11 154 7 227 9 40 19 71 21 68 2 -2
-4 -36 -13 -76z m9254 55 c54 -26 70 -42 24 -22 -35 16 -90 48 -81 48 3 0 29
-11 57 -26z m-7238 5 c-31 -12 -195 -54 -296 -74 -109 -23 -112 -24 -180 -35
-33 -6 -71 -13 -85 -15 -17 -4 -20 -3 -10 3 8 5 47 14 85 20 79 13 74 12 210
41 55 12 138 32 185 45 88 24 133 32 91 15z m14175 -16 c-3 -16 -8 -68 -11
-118 -3 -49 -8 -106 -10 -125 -6 -54 -35 -272 -40 -300 -2 -14 -7 -43 -10 -65
-34 -235 -137 -695 -215 -960 -11 -38 -27 -93 -35 -120 -47 -170 -253 -738
-290 -803 -21 -35 -20 -32 68 193 68 174 181 503 223 650 10 33 19 65 20 70
34 113 126 483 148 595 3 14 14 75 26 135 11 61 23 124 26 140 3 17 7 41 9 55
2 22 12 87 20 131 2 9 6 40 10 69 4 29 8 60 10 69 6 32 17 153 30 311 4 47 9
88 12 93 9 15 13 6 9 -20z m-3021 -13 c-3 -6 -21 -17 -38 -26 -36 -19 -31 -9
10 17 34 21 36 22 28 9z m-3830 -20 c3 -6 -1 -7 -9 -4 -18 7 -21 14 -7 14 6 0
13 -4 16 -10z m70 -35 c52 -32 40 -32 -16 0 -24 14 -39 25 -34 25 6 0 28 -11
50 -25z m-9068 -21 c-3 -3 -12 -4 -19 -1 -8 3 -5 6 6 6 11 1 17 -2 13 -5z m44
-12 c-7 -2 -18 1 -23 6 -8 8 -4 9 13 5 13 -4 18 -8 10 -11z m9129 -28 c0 -2
-13 2 -30 11 -16 9 -30 18 -30 21 0 2 14 -2 30 -11 17 -9 30 -18 30 -21z
m-9056 17 c4 -5 -3 -7 -14 -4 -23 6 -26 13 -6 13 8 0 17 -4 20 -9z m931 0 c-6
-6 -46 -12 -90 -15 l-80 -5 70 10 c39 5 75 11 80 13 19 8 29 6 20 -3z m-822
-18 c-7 -2 -19 -2 -25 0 -7 3 -2 5 12 5 14 0 19 -2 13 -5z m647 -3 c0 -5 -5
-10 -11 -10 -5 0 -7 5 -4 10 3 6 8 10 11 10 2 0 4 -4 4 -10z m-557 -7 c-7 -2
-21 -2 -30 0 -10 3 -4 5 12 5 17 0 24 -2 18 -5z m37 -3 c0 -5 -2 -10 -4 -10
-3 0 -8 5 -11 10 -3 6 -1 10 4 10 6 0 11 -4 11 -10z m380 2 c0 -5 -7 -9 -15
-9 -8 0 -12 4 -9 9 3 4 9 8 15 8 5 0 9 -4 9 -8z m93 1 c-13 -2 -33 -2 -45 0
-13 2 -3 4 22 4 25 0 35 -2 23 -4z m8401 -14 c20 -12 36 -23 36 -25 0 -5 -44
18 -70 35 -27 19 -2 11 34 -10z m-8666 4 c-26 -2 -71 -2 -100 0 -29 2 -8 3 47
3 55 0 79 -1 53 -3z m115 0 c-13 -2 -33 -2 -45 0 -13 2 -3 4 22 4 25 0 35 -2
23 -4z m2217 3 c0 -2 -7 -6 -15 -10 -8 -3 -15 -1 -15 4 0 6 7 10 15 10 8 0 15
-2 15 -4z m118 -3 c-16 -2 -40 -2 -55 0 -16 2 -3 4 27 4 30 0 43 -2 28 -4z
m59 1 c-3 -3 -12 -4 -19 -1 -8 3 -5 6 6 6 11 1 17 -2 13 -5z m43 2 c0 -11 -19
-15 -25 -6 -3 5 1 10 9 10 9 0 16 -2 16 -4z m117 -22 c-3 -3 -12 -4 -19 -1 -8
3 -5 6 6 6 11 1 17 -2 13 -5z m6089 -45 c3 -6 -5 -3 -20 6 -14 10 -26 19 -26
22 0 7 39 -17 46 -28z m87 -58 c7 -8 -7 -2 -30 14 -24 15 -43 30 -43 32 0 7
61 -31 73 -46z m83 -63 c4 -7 -9 1 -29 16 -20 16 -37 30 -37 33 0 7 58 -36 66
-49z m-9816 9 c0 -5 -4 -5 -10 -2 -5 3 -10 14 -10 23 0 15 2 15 10 2 5 -8 10
-19 10 -23z m12940 7 c0 -2 -9 0 -20 6 -11 6 -20 13 -20 16 0 2 9 0 20 -6 11
-6 20 -13 20 -16z m-3089 -41 c13 -16 12 -17 -3 -4 -17 13 -22 21 -14 21 2 0
10 -8 17 -17z m3189 -19 c0 -2 -9 0 -20 6 -11 6 -20 13 -20 16 0 2 9 0 20 -6
11 -6 20 -13 20 -16z m-13010 -9 c14 -19 14 -19 -2 -6 -10 7 -18 18 -18 24 0
6 1 8 3 6 1 -2 9 -13 17 -24z m13066 -26 c3 -6 -5 -3 -20 6 -14 10 -26 19 -26
22 0 7 39 -17 46 -28z m-13025 -26 c13 -16 12 -17 -3 -4 -10 7 -18 15 -18 17
0 8 8 3 21 -13z m6253 -44 c-2 -3 -43 -7 -90 -8 -48 -1 -92 -5 -98 -8 -7 -4
-8 -2 -1 5 8 9 69 15 177 17 9 1 15 -2 12 -6z m86 7 c0 -7 -61 -13 -65 -6 -2
3 12 7 31 8 19 2 34 1 34 -2z m50 0 c0 -2 -9 -6 -20 -9 -11 -3 -20 -1 -20 4 0
5 9 9 20 9 11 0 20 -2 20 -4z m270 -3 c0 -5 -39 -7 -87 -5 -163 5 -179 8 -45
10 72 1 132 -1 132 -5z m95 -3 c-4 -7 -65 -1 -65 6 0 3 15 4 34 2 19 -1 33 -5
31 -8z m148 -8 c-14 -9 -133 -3 -133 6 0 4 32 5 72 4 39 -2 67 -7 61 -10z
m-853 -2 c0 -5 -17 -9 -37 -9 l-38 2 35 7 c19 4 36 8 38 9 1 0 2 -3 2 -9z
m900 -2 c0 -4 -4 -8 -9 -8 -6 0 -12 4 -15 8 -3 5 1 9 9 9 8 0 15 -4 15 -9z
m6205 -8 c10 -11 16 -20 13 -20 -3 0 -13 9 -23 20 -10 11 -16 20 -13 20 3 0
13 -9 23 -20z m-6101 2 c2 -4 -12 -6 -32 -4 -62 6 -69 10 -20 11 26 0 49 -3
52 -7z m106 -10 c0 -4 -17 -6 -37 -4 -59 5 -63 10 -10 11 26 1 47 -3 47 -7z
m70 -8 c0 -2 -13 -4 -30 -4 -16 0 -30 4 -30 8 0 5 14 7 30 4 17 -2 30 -6 30
-8z m90 -10 c0 -2 -16 -4 -35 -4 -19 0 -35 4 -35 8 0 4 16 6 35 4 19 -2 35 -6
35 -8z m127 -21 c-7 -6 -117 9 -117 17 0 3 27 2 60 -3 33 -5 59 -12 57 -14z
m243 -44 c0 -4 -12 -4 -28 0 -15 5 -66 14 -115 21 -48 7 -87 16 -87 20 0 3 52
-3 115 -14 63 -11 115 -23 115 -27z m5531 34 c13 -17 13 -17 -6 -3 -11 8 -22
16 -24 17 -2 2 0 3 6 3 6 0 17 -8 24 -17z m124 -113 c49 -49 87 -90 85 -90 -3
0 -46 41 -95 90 -49 50 -87 90 -85 90 3 0 46 -40 95 -90z m-5529 55 c194 -44
359 -95 567 -177 43 -17 76 -32 74 -34 -2 -2 -31 7 -65 21 -164 67 -416 145
-594 185 -54 12 -98 24 -98 26 0 6 -3 6 116 -21z m-7071 -74 c-25 -21 -410
-149 -421 -139 -2 2 47 19 109 37 61 18 157 50 212 71 109 43 113 44 100 31z
m-2658 -53 c-3 -8 -6 -5 -6 6 -1 11 2 17 5 13 3 -3 4 -12 1 -19z m8218 -18 c3
-5 1 -10 -4 -10 -6 0 -11 5 -11 10 0 6 2 10 4 10 3 0 8 -4 11 -10z m45 -4 c-7
-7 -13 -7 -20 0 -6 6 -3 10 10 10 13 0 16 -4 10 -10z m64 5 c3 -4 -4 -7 -14
-6 -27 2 -33 10 -10 12 11 1 22 -2 24 -6z m139 2 c-13 -2 -35 -2 -50 0 -16 2
-5 4 22 4 28 0 40 -2 28 -4z m60 0 c-7 -2 -19 -2 -25 0 -7 3 -2 5 12 5 14 0
19 -2 13 -5z m44 1 c-3 -3 -12 -4 -19 -1 -8 3 -5 6 6 6 11 1 17 -2 13 -5z m68
-4 c3 -5 1 -10 -4 -10 -6 0 -11 5 -11 10 0 6 2 10 4 10 3 0 8 -4 11 -10z
m-465 -3 c-3 -3 -48 -8 -100 -12 -52 -3 -108 -8 -125 -11 -19 -3 -25 -1 -17 4
7 5 38 10 70 11 31 1 58 3 59 5 2 1 29 4 60 5 32 1 55 0 53 -2z m573 -4 c-13
-2 -33 -2 -45 0 -13 2 -3 4 22 4 25 0 35 -2 23 -4z m57 -3 c0 -5 -2 -10 -4
-10 -3 0 -8 5 -11 10 -3 6 -1 10 4 10 6 0 11 -4 11 -10z m83 -7 c-7 -2 -21 -2
-30 0 -10 3 -4 5 12 5 17 0 24 -2 18 -5z m6478 -10 c13 -16 12 -17 -3 -4 -17
13 -22 21 -14 21 2 0 10 -8 17 -17z m-7596 -16 c-33 -5 -95 -14 -137 -21 -43
-7 -78 -9 -78 -6 0 4 55 15 122 24 67 9 123 18 126 21 3 2 10 1 16 -3 6 -4
-16 -11 -49 -15z m145 19 c0 -2 -18 -6 -39 -8 -22 -2 -37 0 -35 4 5 8 74 11
74 4z m1093 -3 c-7 -2 -21 -2 -30 0 -10 3 -4 5 12 5 17 0 24 -2 18 -5z m-8796
-9 c-3 -3 -12 -4 -19 -1 -8 3 -5 6 6 6 11 1 17 -2 13 -5z m9000 -20 c-3 -3
-12 -4 -19 -1 -8 3 -5 6 6 6 11 1 17 -2 13 -5z m6188 -14 c10 -11 16 -20 13
-20 -3 0 -13 9 -23 20 -10 11 -16 20 -13 20 3 0 13 -9 23 -20z m-15024 -18
c-7 -2 -18 1 -23 6 -8 8 -4 9 13 5 13 -4 18 -8 10 -11z m1779 -3 c-41 -10 -79
-17 -85 -15 -12 4 111 34 140 34 11 0 -14 -9 -55 -19z m5330 5 c-36 -7 -121
-26 -190 -40 -127 -27 -335 -80 -447 -114 -54 -17 -202 -102 -211 -122 -2 -5
-7 -8 -12 -8 -5 0 -127 -76 -272 -168 -326 -209 -718 -446 -988 -599 -19 -11
-86 -50 -149 -87 -62 -36 -115 -66 -117 -66 -1 0 -40 -22 -86 -48 -46 -26 -90
-51 -98 -55 -8 -4 -33 -18 -55 -30 -22 -13 -85 -47 -140 -77 -55 -29 -154 -82
-220 -118 -140 -75 -690 -349 -885 -441 -319 -150 -1001 -436 -1090 -456 -8
-2 -40 -13 -70 -25 -30 -11 -98 -35 -150 -51 -52 -17 -128 -42 -169 -56 -41
-14 -82 -27 -90 -29 -9 -2 -41 -10 -71 -18 -30 -9 -59 -16 -65 -16 -18 1 20
19 50 24 26 5 241 70 275 83 8 4 17 7 20 8 270 81 895 334 1350 546 148 69
776 383 900 450 207 111 367 198 405 219 22 13 60 34 85 48 25 14 75 42 112
63 36 22 71 39 77 39 6 0 11 5 11 10 0 6 4 10 10 10 5 0 47 22 92 49 46 27
155 90 243 142 88 51 195 114 237 141 43 26 80 48 82 48 4 0 248 151 272 167
5 5 18 13 27 18 28 16 383 243 512 327 66 43 125 78 132 78 7 0 33 7 59 16 25
9 54 17 63 19 9 2 59 15 111 29 94 25 260 64 312 72 15 3 55 11 90 19 35 7 74
13 88 13 14 0 -4 -6 -40 -14z m2995 -26 c47 -23 83 -43 81 -45 -2 -2 -43 17
-92 41 -49 25 -86 45 -81 46 4 0 46 -19 92 -42z m-1108 26 c-3 -3 -12 -4 -19
-1 -8 3 -5 6 6 6 11 1 17 -2 13 -5z m-8950 -10 c-3 -3 -12 -4 -19 -1 -8 3 -5
6 6 6 11 1 17 -2 13 -5z m40 -10 c-3 -3 -12 -4 -19 -1 -8 3 -5 6 6 6 11 1 17
-2 13 -5z m14974 -11 c13 -16 12 -17 -3 -4 -17 13 -22 21 -14 21 2 0 10 -8 17
-17z m-14918 0 c-7 -2 -19 -2 -25 0 -7 3 -2 5 12 5 14 0 19 -2 13 -5z m1502
-5 c-82 -19 -184 -35 -179 -26 3 4 17 8 32 9 15 0 52 7 82 14 30 7 66 12 80
13 15 0 10 -4 -15 -10z m-1458 -4 c-3 -3 -12 -4 -19 -1 -8 3 -5 6 6 6 11 1 17
-2 13 -5z m61 -11 c-10 -2 -26 -2 -35 0 -10 3 -2 5 17 5 19 0 27 -2 18 -5z
m55 -10 c-7 -2 -19 -2 -25 0 -7 3 -2 5 12 5 14 0 19 -2 13 -5z m54 -9 c-3 -3
-12 -4 -19 -1 -8 3 -5 6 6 6 11 1 17 -2 13 -5z m1038 -4 c-3 -5 -18 -9 -33 -9
l-27 1 30 8 c17 4 31 8 33 9 2 0 0 -3 -3 -9z m48 3 c-7 -2 -19 -2 -25 0 -7 3
-2 5 12 5 14 0 19 -2 13 -5z m-1010 -10 c-7 -2 -21 -2 -30 0 -10 3 -4 5 12 5
17 0 24 -2 18 -5z m42 -11 c-3 -3 -11 0 -18 7 -9 10 -8 11 6 5 10 -3 15 -9 12
-12z m850 8 c-3 -5 -25 -9 -48 -8 l-42 1 45 7 c25 4 46 8 48 8 2 1 0 -2 -3 -8z
m8951 -37 c-4 -4 -76 37 -76 44 0 2 18 -6 40 -18 22 -12 38 -24 36 -26z
m-9753 30 c-7 -2 -19 -2 -25 0 -7 3 -2 5 12 5 14 0 19 -2 13 -5z m707 3 c0 -2
-7 -7 -16 -10 -8 -3 -12 -2 -9 4 6 10 25 14 25 6z m-617 -13 c-7 -2 -21 -2
-30 0 -10 3 -4 5 12 5 17 0 24 -2 18 -5z m51 -5 c-3 -4 -11 -5 -19 -1 -21 7
-19 12 4 10 11 0 18 -5 15 -9z m60 1 c3 -3 -5 -5 -19 -5 -13 0 -22 3 -19 7 4
8 30 6 38 -2z m346 1 c0 -5 -8 -10 -17 -10 -15 0 -16 2 -3 10 19 12 20 12 20
0z m30 0 c0 -5 -5 -10 -11 -10 -5 0 -7 5 -4 10 3 6 8 10 11 10 2 0 4 -4 4 -10z
m78 3 c-10 -2 -26 -2 -35 0 -10 3 -2 5 17 5 19 0 27 -2 18 -5z m8247 -11 c-3
-3 -11 0 -18 7 -9 10 -8 11 6 5 10 -3 15 -9 12 -12z m-8612 1 c-13 -2 -35 -2
-50 0 -16 2 -5 4 22 4 28 0 40 -2 28 -4z m160 0 c-23 -2 -64 -2 -90 0 -26 2
-7 3 42 3 50 0 71 -1 48 -3z m9432 -81 c-4 -4 -96 45 -110 60 -5 6 18 -5 52
-23 34 -18 60 -35 58 -37z m4863 -247 c-3 -3 -9 2 -12 12 -6 14 -5 15 5 6 7
-7 10 -15 7 -18z m-5837 -8 c-10 -9 -11 -8 -5 6 3 10 9 15 12 12 3 -3 0 -11
-7 -18z m-10666 -25 c-3 -3 -11 0 -18 7 -9 10 -8 11 6 5 10 -3 15 -9 12 -12z
m10648 -7 c-3 -9 -8 -14 -10 -11 -3 3 -2 9 2 15 9 16 15 13 8 -4z m-38 -75
c-9 -16 -18 -30 -21 -30 -2 0 2 14 11 30 9 17 18 30 21 30 2 0 -2 -13 -11 -30z
m-10348 -6 c-3 -3 -12 -4 -19 -1 -8 3 -5 6 6 6 11 1 17 -2 13 -5z m80 -20 c-3
-3 -12 -4 -19 -1 -8 3 -5 6 6 6 11 1 17 -2 13 -5z m1438 -3 c-3 -2 -16 -6 -28
-8 -12 -2 -49 -8 -82 -13 -33 -5 -69 -9 -80 -9 -11 1 23 9 75 18 105 18 122
20 115 12z m-1388 -7 c-3 -3 -12 -4 -19 -1 -8 3 -5 6 6 6 11 1 17 -2 13 -5z
m46 -11 c-7 -2 -19 -2 -25 0 -7 3 -2 5 12 5 14 0 19 -2 13 -5z m10133 -30 c-8
-15 -15 -25 -16 -21 0 12 23 58 27 54 3 -2 -2 -17 -11 -33z m-9006 17 c0 -5
-2 -10 -4 -10 -3 0 -8 5 -11 10 -3 6 -1 10 4 10 6 0 11 -4 11 -10z m-955 -10
c3 -6 -1 -7 -9 -4 -18 7 -21 14 -7 14 6 0 13 -4 16 -10z m913 3 c-10 -2 -26
-2 -35 0 -10 3 -2 5 17 5 19 0 27 -2 18 -5z m-855 -10 c-7 -2 -21 -2 -30 0
-10 3 -4 5 12 5 17 0 24 -2 18 -5z m662 -3 c-3 -5 -36 -9 -73 -8 l-67 2 70 6
c39 4 71 7 73 8 2 1 0 -2 -3 -8z m95 6 c0 -2 -18 -6 -39 -8 -22 -2 -37 0 -35
4 5 8 74 11 74 4z m-637 -13 c-13 -2 -33 -2 -45 0 -13 2 -3 4 22 4 25 0 35 -2
23 -4z m92 -2 c-8 -7 -45 -9 -50 -1 -2 3 9 6 25 6 17 0 27 -2 25 -5z m75 -7
c0 -2 -11 -3 -24 -2 -14 1 -23 5 -20 9 4 7 44 0 44 -7z m164 8 c3 -5 -1 -9 -9
-9 -8 0 -12 4 -9 9 3 4 7 8 9 8 2 0 6 -4 9 -8z m66 4 c0 -3 -4 -8 -10 -11 -5
-3 -10 -1 -10 4 0 6 5 11 10 11 6 0 10 -2 10 -4z m-187 -13 c-7 -2 -19 -2 -25
0 -7 3 -2 5 12 5 14 0 19 -2 13 -5z m60 0 c-7 -2 -21 -2 -30 0 -10 3 -4 5 12
5 17 0 24 -2 18 -5z m9480 -48 c-3 -9 -8 -14 -10 -11 -3 3 -2 9 2 15 9 16 15
13 8 -4z m-20 -40 c-3 -9 -8 -14 -10 -11 -3 3 -2 9 2 15 9 16 15 13 8 -4z
m-11578 -93 c-3 -3 -11 0 -18 7 -9 10 -8 11 6 5 10 -3 15 -9 12 -12z m11526
-15 c-10 -9 -11 -8 -5 6 3 10 9 15 12 12 3 -3 0 -11 -7 -18z m-11354 -33 c-3
-3 -12 -4 -19 -1 -8 3 -5 6 6 6 11 1 17 -2 13 -5z m200 -50 c-3 -3 -12 -4 -19
-1 -8 3 -5 6 6 6 11 1 17 -2 13 -5z m11104 -31 c-12 -20 -14 -14 -5 12 4 9 9
14 11 11 3 -2 0 -13 -6 -23z m2119 23 c0 -2 -7 -7 -16 -10 -8 -3 -12 -2 -9 4
6 10 25 14 25 6z m-45 -16 c-3 -5 -12 -10 -18 -10 -7 0 -6 4 3 10 19 12 23 12
15 0z m-12942 -17 c-7 -2 -21 -2 -30 0 -10 3 -4 5 12 5 17 0 24 -2 18 -5z m92
-21 c-3 -3 -11 0 -18 7 -9 10 -8 11 6 5 10 -3 15 -9 12 -12z m12792 12 c-3 -3
-12 -4 -19 -1 -8 3 -5 6 6 6 11 1 17 -2 13 -5z m-14772 -14 c3 -6 -1 -7 -9 -4
-18 7 -21 14 -7 14 6 0 13 -4 16 -10z m2022 4 c-3 -3 -12 -4 -19 -1 -8 3 -5 6
6 6 11 1 17 -2 13 -5z m12708 -4 c-3 -5 -14 -10 -23 -9 -14 0 -13 2 3 9 27 11
27 11 20 0z m-12642 -7 c-7 -2 -19 -2 -25 0 -7 3 -2 5 12 5 14 0 19 -2 13 -5z
m44 1 c-3 -3 -12 -4 -19 -1 -8 3 -5 6 6 6 11 1 17 -2 13 -5z m106 -11 c-13 -2
-33 -2 -45 0 -13 2 -3 4 22 4 25 0 35 -2 23 -4z m57 1 c0 -8 -19 -13 -24 -6
-3 5 1 9 9 9 8 0 15 -2 15 -3z m634 -6 c-3 -4 -9 -8 -15 -8 -5 0 -9 4 -9 8 0
5 7 9 15 9 8 0 12 -4 9 -9z m49 5 c-7 -2 -19 -2 -25 0 -7 3 -2 5 12 5 14 0 19
-2 13 -5z m-616 -9 c-3 -3 -12 -4 -19 -1 -8 3 -5 6 6 6 11 1 17 -2 13 -5z
m137 -5 c3 -3 -10 -5 -29 -4 -18 0 -36 3 -39 6 -3 3 10 5 29 4 18 0 36 -3 39
-6z m40 3 c3 -5 -1 -9 -9 -9 -8 0 -12 4 -9 9 3 4 7 8 9 8 2 0 6 -4 9 -8z m56
-7 c0 -2 -9 -3 -19 -2 -11 0 -18 5 -15 9 4 6 34 0 34 -7z m164 6 c-7 -8 -54
-9 -49 -1 2 3 15 6 29 6 14 0 23 -2 20 -5z m119 2 c-13 -2 -33 -2 -45 0 -13 2
-3 4 22 4 25 0 35 -2 23 -4z m11757 -13 c-19 -11 -39 -19 -45 -19 -5 0 6 8 25
19 19 11 40 19 45 19 6 0 -6 -8 -25 -19z m-73 -31 c-28 -16 -93 -42 -84 -33 9
10 79 42 92 43 6 0 2 -4 -8 -10z m-14190 -45 c-3 -3 -12 -4 -19 -1 -8 3 -5 6
6 6 11 1 17 -2 13 -5z m13978 -58 c-234 -122 -477 -282 -619 -406 -16 -14 -52
-45 -80 -70 -101 -88 -283 -278 -369 -385 -108 -135 -193 -261 -286 -425 -39
-69 -71 -120 -71 -115 0 14 145 265 197 340 268 392 607 708 1028 960 101 61
297 165 310 165 6 0 -44 -29 -110 -64z m-13848 18 c-3 -3 -12 -4 -19 -1 -8 3
-5 6 6 6 11 1 17 -2 13 -5z m110 -30 c-3 -3 -12 -4 -19 -1 -8 3 -5 6 6 6 11 1
17 -2 13 -5z m110 -30 c-3 -3 -12 -4 -19 -1 -8 3 -5 6 6 6 11 1 17 -2 13 -5z
m3376 -40 c37 -44 30 -44 -13 1 -19 19 -30 35 -24 34 5 0 22 -16 37 -35z
m-3296 20 c-3 -3 -12 -4 -19 -1 -8 3 -5 6 6 6 11 1 17 -2 13 -5z m40 -10 c-3
-3 -12 -4 -19 -1 -8 3 -5 6 6 6 11 1 17 -2 13 -5z m11794 -21 c-12 -20 -14
-14 -5 12 4 9 9 14 11 11 3 -2 0 -13 -6 -23z m-11744 11 c-3 -3 -12 -4 -19 -1
-8 3 -5 6 6 6 11 1 17 -2 13 -5z m160 -40 c-3 -3 -12 -4 -19 -1 -8 3 -5 6 6 6
11 1 17 -2 13 -5z m146 -31 c-7 -2 -19 -2 -25 0 -7 3 -2 5 12 5 14 0 19 -2 13
-5z m44 -9 c-3 -3 -12 -4 -19 -1 -8 3 -5 6 6 6 11 1 17 -2 13 -5z m40 -10 c-3
-3 -12 -4 -19 -1 -8 3 -5 6 6 6 11 1 17 -2 13 -5z m128 -24 c3 -6 -1 -7 -9 -4
-18 7 -21 14 -7 14 6 0 13 -4 16 -10z m42 -6 c-3 -3 -12 -4 -19 -1 -8 3 -5 6
6 6 11 1 17 -2 13 -5z m2794 -11 c13 -16 12 -17 -3 -4 -17 13 -22 21 -14 21 2
0 10 -8 17 -17z m-2728 0 c-7 -2 -19 -2 -25 0 -7 3 -2 5 12 5 14 0 19 -2 13
-5z m64 -9 c-3 -3 -12 -4 -19 -1 -8 3 -5 6 6 6 11 1 17 -2 13 -5z m48 -12 c-3
-3 -11 0 -18 7 -9 10 -8 11 6 5 10 -3 15 -9 12 -12z m50 -2 c13 -6 15 -9 5 -9
-8 0 -22 4 -30 9 -18 12 -2 12 25 0z m58 -7 c-7 -2 -19 -2 -25 0 -7 3 -2 5 12
5 14 0 19 -2 13 -5z m70 -10 c-7 -2 -19 -2 -25 0 -7 3 -2 5 12 5 14 0 19 -2
13 -5z m42 -11 c-3 -3 -11 0 -18 7 -9 10 -8 11 6 5 10 -3 15 -9 12 -12z m42 2
c-3 -3 -12 -4 -19 -1 -8 3 -5 6 6 6 11 1 17 -2 13 -5z m106 -11 c-7 -2 -19 -2
-25 0 -7 3 -2 5 12 5 14 0 19 -2 13 -5z m18539 -374 c-51 -117 -103 -222 -88
-179 13 38 139 320 143 317 1 -2 -23 -64 -55 -138z m-5802 -37 c0 -4 -28 -18
-62 -31 -449 -174 -998 -582 -1439 -1072 -98 -108 -221 -255 -288 -344 -29
-38 -63 -83 -77 -100 -13 -16 -64 -88 -112 -158 -157 -230 -172 -251 -172
-237 0 22 293 448 355 516 5 7 26 31 45 55 164 203 253 303 425 474 404 403
828 701 1235 869 98 41 90 38 90 28z m5689 -211 c-12 -23 -24 -39 -26 -38 -2
2 7 22 19 45 13 22 24 39 26 37 2 -2 -6 -22 -19 -44z m-4689 -14 c0 -2 -12
-14 -27 -28 l-28 -24 24 28 c23 25 31 32 31 24z m4651 -60 c-10 -9 -11 -8 -5
6 3 10 9 15 12 12 3 -3 0 -11 -7 -18z m-4721 0 c0 -2 -12 -14 -27 -28 l-28
-24 24 28 c23 25 31 32 31 24z m4707 -24 c-2 -5 -12 -25 -21 -46 -10 -21 -20
-37 -22 -34 -5 5 35 87 43 87 2 0 2 -3 0 -7z m-4767 -26 c0 -1 -53 -54 -117
-117 l-118 -115 115 118 c107 109 120 122 120 114z m4698 -112 c-6 -14 -13
-23 -15 -21 -5 5 15 46 22 46 3 0 -1 -11 -7 -25z m-64 -117 c-25 -46 -49 -87
-55 -93 -6 -5 6 22 27 60 43 82 63 115 68 115 2 0 -16 -37 -40 -82z m-4864
-11 c0 -2 -15 -16 -32 -33 l-33 -29 29 33 c28 30 36 37 36 29z m-60 -70 c0 -2
-17 -19 -37 -38 l-38 -34 34 38 c33 34 41 42 41 34z m4853 -42 c-3 -9 -8 -14
-10 -11 -3 3 -2 9 2 15 9 16 15 13 8 -4z m-23 -45 c-6 -11 -13 -20 -16 -20 -2
0 0 9 6 20 6 11 13 20 16 20 2 0 0 -9 -6 -20z m-4930 -30 c-17 -22 -37 -43
-43 -47 -6 -4 6 14 27 40 21 26 40 47 43 47 3 0 -10 -18 -27 -40z m-2299 7
c-10 -9 -11 -8 -5 6 3 10 9 15 12 12 3 -3 0 -11 -7 -18z m-7821 -16 c0 -11
-197 -64 -280 -76 -26 -4 -22 -1 15 10 28 8 59 17 70 19 41 8 180 48 184 52 7
6 11 5 11 -5z m15020 -11 c-6 -11 -13 -20 -16 -20 -2 0 0 9 6 20 6 11 13 20
16 20 2 0 0 -9 -6 -20z m-7229 -37 c-12 -20 -14 -14 -5 12 4 9 9 14 11 11 3
-2 0 -13 -6 -23z m2260 -31 c-11 -16 -28 -35 -38 -43 -9 -8 -2 5 17 29 38 48
52 57 21 14z m4923 -7 c-9 -14 -18 -25 -21 -25 -5 0 5 18 20 38 17 22 18 13 1
-13z m-15295 1 c-2 -2 -22 -7 -44 -10 -22 -4 -64 -13 -92 -20 -29 -8 -55 -11
-58 -7 -2 4 26 13 63 20 37 7 78 15 92 18 13 2 27 6 29 9 2 2 7 2 9 -1 3 -3 3
-7 1 -9z m8094 -6 c-3 -11 -10 -23 -16 -27 -5 -3 -8 -2 -5 3 3 5 8 17 11 27 9
24 16 22 10 -3z m1171 -52 c-90 -184 -176 -333 -285 -499 -95 -145 -181 -258
-334 -444 -95 -116 -407 -434 -520 -530 -32 -27 -70 -61 -85 -75 -21 -21 -134
-112 -189 -154 -8 -6 3 16 24 49 60 94 145 228 158 250 100 165 413 616 446
645 3 3 33 39 66 80 33 41 71 89 86 105 138 158 214 238 349 370 99 96 301
275 313 275 4 0 -9 -33 -29 -72z m-9598 -3 c-164 -30 -191 -33 -301 -39 l-90
-5 75 8 c140 16 195 23 201 27 3 1 28 6 55 10 27 3 67 10 89 14 22 4 54 8 70
8 17 0 -28 -10 -99 -23z m8407 0 c-3 -9 -8 -14 -10 -11 -3 3 -2 9 2 15 9 16
15 13 8 -4z m7177 -14 c-5 -11 -15 -23 -21 -27 -6 -3 -3 5 6 20 20 30 30 35
15 7z m-16177 -18 c-7 -2 -19 -2 -25 0 -7 3 -2 5 12 5 14 0 19 -2 13 -5z
m11196 -38 c-18 -25 -34 -45 -36 -45 -6 0 6 19 35 58 37 49 38 38 1 -13z
m-11046 28 c-13 -2 -35 -2 -50 0 -16 2 -5 4 22 4 28 0 40 -2 28 -4z m10985
-113 c-22 -30 -35 -41 -22 -17 9 16 36 47 41 47 2 0 -6 -13 -19 -30z m-2193
-12 c-3 -17 -10 -38 -16 -47 -8 -12 -8 -11 -3 8 6 24 12 50 13 64 1 4 3 7 6 7
3 0 3 -14 0 -32z m2148 -59 c-10 -17 -24 -36 -32 -42 -8 -7 -2 7 14 31 32 49
45 57 18 11z m4957 12 c-5 -11 -15 -23 -21 -27 -6 -3 -3 5 6 20 20 30 30 35
15 7z m-5015 -98 c-34 -53 -45 -67 -45 -60 0 10 51 87 57 87 3 0 -3 -12 -12
-27z m4958 12 c-3 -9 -8 -14 -10 -11 -3 3 -2 9 2 15 9 16 15 13 8 -4z m-5024
-120 c-12 -19 -23 -35 -25 -35 -6 0 14 40 29 58 18 23 16 12 -4 -23z m4951 11
c0 -2 -8 -10 -17 -17 -16 -13 -17 -12 -4 4 13 16 21 21 21 13z m-30 -40 c0 -2
-8 -10 -17 -17 -16 -13 -17 -12 -4 4 13 16 21 21 21 13z m-4170 -10 c0 -2 -8
-10 -17 -17 -16 -13 -17 -12 -4 4 13 16 21 21 21 13z m-803 -48 c-13 -24 -30
-54 -36 -66 -7 -13 -15 -22 -17 -19 -5 5 65 127 73 127 3 0 -6 -19 -20 -42z
m1684 -31 c-10 -9 -11 -8 -5 6 3 10 9 15 12 12 3 -3 0 -11 -7 -18z m3229 9 c0
-2 -8 -10 -17 -17 -16 -13 -17 -12 -4 4 13 16 21 21 21 13z m-3271 -87 c-43
-71 -150 -220 -202 -282 -123 -145 -351 -373 -447 -445 -19 -15 -48 -39 -64
-54 -17 -15 -34 -24 -40 -21 -6 4 -4 9 4 11 49 17 402 350 515 487 27 33 59
70 71 83 11 12 58 81 105 151 84 129 119 170 58 70z m-1709 -9 c-6 -11 -13
-20 -16 -20 -2 0 0 9 6 20 6 11 13 20 16 20 2 0 0 -9 -6 -20z m4920 16 c0 -2
-8 -10 -17 -17 -16 -13 -17 -12 -4 4 13 16 21 21 21 13z m-4965 -96 c-14 -27
-28 -50 -30 -50 -3 0 6 23 20 50 14 28 28 50 30 50 3 0 -6 -22 -20 -50z m3255
-44 c0 -2 -8 -10 -17 -17 -16 -13 -17 -12 -4 4 13 16 21 21 21 13z m-3302 -41
c-6 -14 -13 -23 -15 -21 -5 5 15 46 22 46 3 0 -1 -11 -7 -25z m-30 -60 c-6
-14 -13 -23 -15 -21 -5 5 15 46 22 46 3 0 -1 -11 -7 -25z m3242 -19 c0 -2 -8
-10 -17 -17 -16 -13 -17 -12 -4 4 13 16 21 21 21 13z m-65 -74 l-28 -27 24 31
c13 17 26 30 28 27 3 -2 -8 -16 -24 -31z m-3215 20 c0 -5 -7 -17 -15 -28 -14
-18 -14 -17 -4 9 12 27 19 34 19 19z m4796 -41 c-3 -5 -8 -29 -11 -52 -7 -59
-42 -227 -65 -314 -42 -155 -127 -408 -129 -380 -1 6 8 35 20 65 50 130 114
362 139 497 6 35 13 74 16 88 2 14 6 38 8 54 3 28 13 51 22 51 3 0 3 -4 0 -9z
m-4843 -56 c-3 -9 -8 -14 -10 -11 -3 3 -2 9 2 15 9 16 15 13 8 -4z m3207 12
c0 -2 -10 -12 -22 -23 l-23 -19 19 23 c18 21 26 27 26 19z m-3227 -52 c-3 -9
-8 -14 -10 -11 -3 3 -2 9 2 15 9 16 15 13 8 -4z m3177 -8 c0 -2 -15 -16 -32
-33 l-33 -29 29 33 c28 30 36 37 36 29z m-3197 -32 c-3 -9 -8 -14 -10 -11 -3
3 -2 9 2 15 9 16 15 13 8 -4z m3137 -38 c0 -2 -12 -14 -27 -28 l-28 -24 24 28
c23 25 31 32 31 24z m-3172 -42 c-6 -14 -13 -23 -15 -21 -5 5 15 46 22 46 3 0
-1 -11 -7 -25z m2963 -184 c-154 -161 -191 -198 -191 -190 0 6 343 359 348
359 2 0 -68 -76 -157 -169z m1359 135 c0 -2 -8 -10 -17 -17 -16 -13 -17 -12
-4 4 13 16 21 21 21 13z m-4379 -79 c-10 -9 -11 -8 -5 6 3 10 9 15 12 12 3 -3
0 -11 -7 -18z m-28 -62 c-3 -9 -8 -14 -10 -11 -3 3 -2 9 2 15 9 16 15 13 8 -4z
m1317 -67 c0 -5 -7 -7 -16 -4 -8 3 -24 1 -35 -4 -10 -6 -19 -8 -19 -6 0 9 55
34 62 29 5 -2 8 -9 8 -15z m-1359 -35 c-12 -20 -14 -14 -5 12 4 9 9 14 11 11
3 -2 0 -13 -6 -23z m1279 12 c0 -2 -10 -9 -22 -15 -22 -11 -22 -10 -4 4 21 17
26 19 26 11z m50 1 c0 -2 -8 -10 -17 -17 -16 -13 -17 -12 -4 4 13 16 21 21 21
13z m-105 -36 c-3 -5 -12 -10 -18 -10 -7 0 -6 4 3 10 19 12 23 12 15 0z m2969
-12 c-12 -22 -47 -58 -56 -58 -5 0 6 15 24 34 36 38 43 43 32 24z m-3014 -13
c-7 -8 -17 -15 -23 -15 -6 0 -2 7 9 15 25 19 30 19 14 0z m70 -9 c0 -2 -8 -10
-17 -17 -16 -13 -17 -12 -4 4 13 16 21 21 21 13z m-130 -21 c0 -2 -10 -9 -22
-15 -22 -11 -22 -10 -4 4 21 17 26 19 26 11z m90 -9 c0 -2 -8 -10 -17 -17 -16
-13 -17 -12 -4 4 13 16 21 21 21 13z m1669 -13 c-21 -25 -73 -72 -81 -73 -7 0
84 89 91 90 2 0 -3 -8 -10 -17z m-1809 -8 c0 -2 -13 -11 -30 -20 -38 -19 -40
-11 -2 9 31 17 32 18 32 11z m3055 -3 c-53 -42 -60 -46 -33 -19 16 15 31 27
35 27 4 0 3 -3 -2 -8z m-2985 -25 c0 -2 -10 -12 -22 -23 l-23 -19 19 23 c18
21 26 27 26 19z m-169 -27 c-13 -11 -28 -20 -35 -20 -6 0 3 9 19 19 39 25 46
25 16 1z m-51 -25 c0 -2 -10 -9 -22 -15 -22 -11 -22 -10 -4 4 21 17 26 19 26
11z m1833 -28 c-21 -18 -60 -50 -88 -71 l-50 -38 45 38 c24 22 60 54 80 71 19
18 38 33 43 33 4 0 -10 -15 -30 -33z m1287 30 c0 -2 -12 -14 -27 -28 l-28 -24
24 28 c23 25 31 32 31 24z m-3010 -31 c0 -2 -8 -10 -17 -17 -16 -13 -17 -12
-4 4 13 16 21 21 21 13z m-185 -16 c-3 -5 -12 -10 -18 -10 -7 0 -6 4 3 10 19
12 23 12 15 0z m-35 -14 c0 -2 -7 -7 -16 -10 -8 -3 -12 -2 -9 4 6 10 25 14 25
6z m160 -10 c0 -2 -8 -10 -17 -17 -16 -13 -17 -12 -4 4 13 16 21 21 21 13z
m3849 -55 c-12 -28 -24 -50 -26 -48 -2 2 6 27 18 56 12 28 24 50 26 48 2 -2
-6 -27 -18 -56z m-4049 44 c0 -6 -297 -155 -307 -154 -6 0 293 156 305 158 1
1 2 -1 2 -4z m-3165 -66 c22 -10 29 -16 16 -13 -37 10 -88 33 -71 33 8 0 33
-9 55 -20z m3265 6 c0 -2 -10 -9 -22 -15 -22 -11 -22 -10 -4 4 21 17 26 19 26
11z m1704 -33 c-23 -20 -63 -52 -90 -70 -38 -26 -41 -27 -14 -5 19 15 57 47
85 70 62 52 74 55 19 5z m-4884 -2 c18 -12 2 -12 -25 0 -13 6 -15 9 -5 9 8 0
22 -4 30 -9z m7086 -47 c-8 -15 -15 -25 -16 -21 0 12 23 58 27 54 3 -2 -2 -17
-11 -33z m-6926 -8 c19 -7 28 -14 20 -14 -8 0 -28 6 -45 14 -39 17 -21 18 25
0z m2600 -10 c0 -6 -76 -45 -87 -45 -4 1 12 12 37 25 50 27 50 27 50 20z
m-2530 -15 c8 -5 11 -10 5 -10 -5 0 -17 5 -25 10 -8 5 -10 10 -5 10 6 0 17 -5
25 -10z m6831 -23 c-10 -9 -11 -8 -5 6 3 10 9 15 12 12 3 -3 0 -11 -7 -18z
m-4121 -12 c-7 -8 -17 -15 -23 -15 -6 0 -2 7 9 15 25 19 30 19 14 0z m1770
-16 c-54 -46 -413 -284 -552 -366 -5 -2 -8 -2 -8 1 0 2 28 21 63 42 87 52 456
298 492 328 17 14 32 25 35 25 3 0 -11 -13 -30 -30z m-4370 11 c8 -5 11 -10 5
-10 -5 0 -17 5 -25 10 -8 5 -10 10 -5 10 6 0 17 -5 25 -10z m2320 5 c0 -5 -69
-35 -79 -34 -5 0 68 38 77 39 1 0 2 -2 2 -5z m4375 -44 c-21 -43 -29 -39 -8 4
9 19 18 33 21 31 2 -2 -4 -18 -13 -35z m-6620 14 c39 -17 21 -18 -25 0 -19 7
-28 14 -20 14 8 0 29 -6 45 -14z m2141 -20 c-11 -8 -25 -15 -30 -15 -6 1 0 7
14 15 32 19 40 18 16 0z m-2079 -1 c-3 -3 -12 -4 -19 -1 -8 3 -5 6 6 6 11 1
17 -2 13 -5z m2368 -4 c-3 -5 -12 -10 -18 -10 -7 0 -6 4 3 10 19 12 23 12 15
0z m-335 -15 c0 -5 -69 -35 -79 -34 -5 0 68 38 77 39 1 0 2 -2 2 -5z m-91 -40
c-9 -8 -79 -35 -79 -30 0 3 15 11 33 19 32 15 54 20 46 11z m321 0 c0 -2 -10
-9 -22 -15 -22 -11 -22 -10 -4 4 21 17 26 19 26 11z m4245 -35 c-9 -16 -18
-30 -21 -30 -2 0 2 14 11 30 9 17 18 30 21 30 2 0 -2 -13 -11 -30z m-4665 -10
c-8 -5 -19 -10 -25 -10 -5 0 -3 5 5 10 8 5 20 10 25 10 6 0 3 -5 -5 -10z m330
-5 c0 -2 -10 -9 -22 -15 -22 -11 -22 -10 -4 4 21 17 26 19 26 11z m-415 -30
c-27 -13 -54 -24 -60 -24 -5 1 13 11 40 24 28 13 55 24 60 24 6 -1 -12 -11
-40 -24z m360 -5 c-3 -5 -12 -10 -18 -10 -7 0 -6 4 3 10 19 12 23 12 15 0z
m-49 -25 c-11 -8 -25 -15 -30 -15 -6 1 0 7 14 15 32 19 40 18 16 0z m4392 -10
c-6 -14 -13 -23 -15 -21 -5 5 15 46 22 46 3 0 -1 -11 -7 -25z m-4788 5 c-8 -5
-19 -10 -25 -10 -5 0 -3 5 5 10 8 5 20 10 25 10 6 0 3 -5 -5 -10z m3495 -10
c-10 -11 -21 -20 -25 -20 -4 0 -45 -21 -91 -47 -227 -126 -808 -417 -1129
-565 -113 -52 -155 -71 -160 -73 -12 -4 -60 -25 -125 -55 -100 -46 -345 -152
-450 -194 -49 -20 -97 -40 -106 -45 -49 -28 -722 -281 -930 -351 -68 -23 -131
-44 -139 -47 -8 -4 -17 -7 -20 -8 -3 -1 -12 -4 -20 -8 -26 -10 -449 -144 -485
-154 -16 -4 -138 -38 -269 -76 -135 -38 -105 -12 -300 -261 -55 -69 -103 -126
-109 -126 -10 0 4 19 162 221 58 74 105 135 106 136 2 3 313 92 380 109 6 1
69 21 140 44 72 23 144 46 160 50 57 15 682 232 745 259 14 5 115 45 225 86
207 79 525 209 678 276 112 50 259 115 317 141 25 11 63 29 85 38 304 135 971
468 1270 634 55 31 102 56 104 56 2 0 -4 -9 -14 -20z m-3545 -10 c-8 -5 -19
-10 -25 -10 -5 0 -3 5 5 10 8 5 20 10 25 10 6 0 3 -5 -5 -10z m-80 -30 c-8 -5
-19 -10 -25 -10 -5 0 -3 5 5 10 8 5 20 10 25 10 6 0 3 -5 -5 -10z m430 6 c0
-2 -7 -7 -16 -10 -8 -3 -12 -2 -9 4 6 10 25 14 25 6z m-480 -26 c-8 -5 -19
-10 -25 -10 -5 0 -3 5 5 10 8 5 20 10 25 10 6 0 3 -5 -5 -10z m440 6 c0 -3
-14 -11 -30 -20 -17 -8 -28 -10 -24 -5 3 6 16 14 28 19 26 11 26 11 26 6z
m4480 -26 c-6 -11 -13 -20 -16 -20 -2 0 0 9 6 20 6 11 13 20 16 20 2 0 0 -9
-6 -20z m-4980 0 c-8 -5 -19 -10 -25 -10 -5 0 -3 5 5 10 8 5 20 10 25 10 6 0
3 -5 -5 -10z m-43 -16 c-3 -3 -12 -4 -19 -1 -8 3 -5 6 6 6 11 1 17 -2 13 -5z
m-37 -8 c0 -2 -7 -7 -16 -10 -8 -3 -12 -2 -9 4 6 10 25 14 25 6z m-45 -16 c-3
-5 -12 -10 -18 -10 -7 0 -6 4 3 10 19 12 23 12 15 0z m505 6 c0 -2 -7 -7 -16
-10 -8 -3 -12 -2 -9 4 6 10 25 14 25 6z m-565 -26 c-3 -5 -12 -10 -18 -10 -7
0 -6 4 3 10 19 12 23 12 15 0z m5125 -10 c-6 -11 -13 -20 -16 -20 -2 0 0 9 6
20 6 11 13 20 16 20 2 0 0 -9 -6 -20z m-5185 -10 c-3 -5 -12 -10 -18 -10 -7 0
-6 4 3 10 19 12 23 12 15 0z m545 6 c0 -2 -7 -7 -16 -10 -8 -3 -12 -2 -9 4 6
10 25 14 25 6z m1917 -11 c-25 -18 -251 -147 -397 -225 -134 -72 -618 -310
-628 -310 -4 1 121 65 278 143 327 164 469 238 636 336 117 69 148 84 111 56z
m2691 -35 c-7 -10 -14 -17 -17 -15 -4 4 18 35 25 35 2 0 -1 -9 -8 -20z m-5273
0 c-3 -5 -12 -10 -18 -10 -7 0 -6 4 3 10 19 12 23 12 15 0z m585 6 c0 -2 -7
-7 -16 -10 -8 -3 -12 -2 -9 4 6 10 25 14 25 6z m-60 -31 c-14 -8 -29 -14 -35
-14 -5 0 1 6 15 14 14 8 30 14 35 14 6 0 -1 -6 -15 -14z m-603 -1 c-3 -3 -12
-4 -19 -1 -8 3 -5 6 6 6 11 1 17 -2 13 -5z m-37 -8 c0 -2 -9 -6 -20 -9 -11 -3
-18 -1 -14 4 5 9 34 13 34 5z m585 -16 c-3 -5 -12 -10 -18 -10 -7 0 -6 4 3 10
19 12 23 12 15 0z m-690 -10 c-3 -5 -12 -10 -18 -10 -7 0 -6 4 3 10 19 12 23
12 15 0z m650 -10 c-3 -5 -12 -10 -18 -10 -7 0 -6 4 3 10 19 12 23 12 15 0z
m-60 -30 c-3 -5 -12 -10 -18 -10 -7 0 -6 4 3 10 19 12 23 12 15 0z m4845 6 c0
-2 -8 -10 -17 -17 -16 -13 -17 -12 -4 4 13 16 21 21 21 13z m-8843 -22 c-3 -3
-12 -4 -19 -1 -8 3 -5 6 6 6 11 1 17 -2 13 -5z m3873 -39 c-14 -8 -29 -14 -35
-14 -5 0 1 6 15 14 14 8 30 14 35 14 6 0 -1 -6 -15 -14z m-90 -39 c0 -2 -7 -7
-16 -10 -8 -3 -12 -2 -9 4 6 10 25 14 25 6z m-5423 -12 c-3 -3 -12 -4 -19 -1
-8 3 -5 6 6 6 11 1 17 -2 13 -5z m5323 -29 c0 -2 -10 -9 -22 -15 -22 -11 -22
-10 -4 4 21 17 26 19 26 11z m-6213 -21 c-3 -3 -12 -4 -19 -1 -8 3 -5 6 6 6
11 1 17 -2 13 -5z m6153 -14 c-8 -5 -19 -10 -25 -10 -5 0 -3 5 5 10 8 5 20 10
25 10 6 0 3 -5 -5 -10z m-75 -30 c-3 -5 -12 -10 -18 -10 -7 0 -6 4 3 10 19 12
23 12 15 0z m-70 -30 c-3 -5 -12 -10 -18 -10 -7 0 -6 4 3 10 19 12 23 12 15 0z
m-45 -20 c-8 -5 -19 -10 -25 -10 -5 0 -3 5 5 10 8 5 20 10 25 10 6 0 3 -5 -5
-10z m-80 -35 c-14 -8 -29 -14 -35 -14 -5 0 1 6 15 14 14 8 30 14 35 14 6 0
-1 -6 -15 -14z m-74 -30 c-11 -8 -25 -15 -30 -15 -6 1 0 7 14 15 32 19 40 18
16 0z m-61 -25 c-3 -5 -12 -10 -18 -10 -7 0 -6 4 3 10 19 12 23 12 15 0z
m-145 -60 c-8 -5 -19 -10 -25 -10 -5 0 -3 5 5 10 8 5 20 10 25 10 6 0 3 -5 -5
-10z m2050 -30 c-30 -16 -59 -29 -65 -29 -5 0 15 13 45 29 30 16 60 29 65 29
6 0 -15 -13 -45 -29z m-2124 1 c-6 -9 -46 -22 -46 -15 0 3 10 9 23 14 29 11
29 11 23 1z m-121 -51 c-3 -5 -12 -10 -18 -10 -7 0 -6 4 3 10 19 12 23 12 15
0z m2135 0 c0 -5 -8 -10 -17 -10 -15 0 -16 2 -3 10 19 12 20 12 20 0z m-2190
-20 c-8 -5 -19 -10 -25 -10 -5 0 -3 5 5 10 8 5 20 10 25 10 6 0 3 -5 -5 -10z
m2135 -4 c-11 -7 -31 -16 -45 -20 -19 -5 -16 -2 10 13 40 23 65 28 35 7z
m-2815 -5 c-16 -9 -90 -27 -150 -36 -19 -3 -51 -10 -70 -15 -19 -5 -69 -16
-110 -25 -493 -108 -1158 -363 -1577 -606 -48 -29 -101 -59 -118 -69 -16 -9
-52 -31 -80 -47 -43 -26 -63 -32 -142 -37 -50 -3 -98 -8 -105 -10 -7 -3 -35
-7 -63 -10 -27 -3 -62 -8 -77 -11 -16 -3 -38 -7 -50 -9 -280 -50 -606 -160
-838 -282 -94 -50 -297 -176 -310 -193 -3 -4 -25 -22 -49 -41 l-44 -34 -116
38 c-64 21 -136 45 -160 53 -69 22 -293 85 -321 90 -14 2 -59 13 -100 23 -41
10 -86 21 -100 24 -14 3 -68 14 -120 26 -109 24 -356 69 -415 76 -22 2 -50 7
-62 9 -12 3 -46 8 -75 11 -29 3 -55 7 -58 9 -3 2 -37 6 -75 10 -39 3 -77 8
-85 10 -8 2 -53 7 -100 11 -47 3 -88 8 -91 10 -3 2 -48 6 -100 9 -52 4 -116 8
-144 10 -322 25 -910 25 -1190 0 -27 -2 -83 -7 -123 -10 -68 -4 -152 -12 -212
-19 -14 -2 -52 -6 -85 -10 -160 -19 -488 -71 -600 -96 -22 -5 -54 -11 -71 -14
-56 -10 -288 -64 -409 -96 -66 -17 -127 -32 -136 -34 -9 -3 -90 -27 -180 -54
-90 -28 -183 -55 -207 -62 -24 -6 -51 -14 -60 -17 -9 -3 -14 -3 -11 0 13 15
258 95 474 153 101 28 320 84 350 90 11 2 29 6 40 9 107 25 343 72 410 81 28
3 52 7 55 9 3 2 57 10 120 19 151 22 176 25 233 31 26 3 60 7 75 9 15 3 57 7
94 11 37 3 93 7 125 10 132 12 175 14 318 22 247 12 746 6 975 -12 30 -2 89
-6 130 -9 82 -6 150 -13 220 -22 25 -4 52 -6 60 -6 14 0 208 -25 255 -32 11
-2 40 -7 65 -10 106 -16 235 -38 240 -41 3 -2 29 -6 59 -10 30 -4 62 -9 73
-11 10 -2 28 -6 41 -9 12 -3 33 -7 47 -10 209 -38 685 -167 880 -237 53 -19
68 -22 80 -12 73 61 138 108 210 154 84 54 298 166 355 187 120 45 232 85 245
89 8 2 53 15 99 29 46 14 94 27 107 29 13 3 32 7 42 10 9 3 28 7 42 10 14 2
59 11 100 19 41 9 98 19 125 22 28 4 61 8 75 11 27 4 166 17 190 17 8 0 69 33
135 72 261 156 546 297 810 400 39 15 84 33 100 40 89 39 543 184 626 200 11
2 29 7 39 10 10 3 27 8 37 10 10 2 50 11 88 20 39 9 79 19 90 21 11 2 72 15
135 28 131 27 141 29 120 17z m630 -11 c-8 -5 -19 -10 -25 -10 -5 0 -3 5 5 10
8 5 20 10 25 10 6 0 3 -5 -5 -10z m-41 -15 c-9 -8 -79 -35 -79 -30 0 3 15 11
33 19 32 15 54 20 46 11z m2146 -4 c-6 -5 -21 -11 -35 -15 -21 -5 -20 -3 5 9
35 17 42 18 30 6z m-85 -36 c-14 -8 -29 -14 -35 -14 -5 0 1 6 15 14 14 8 30
14 35 14 6 0 -1 -6 -15 -14z m-2190 -15 c-8 -5 -19 -10 -25 -10 -5 0 -3 5 5
10 8 5 20 10 25 10 6 0 3 -5 -5 -10z m-50 -20 c-8 -5 -19 -10 -25 -10 -5 0 -3
5 5 10 8 5 20 10 25 10 6 0 3 -5 -5 -10z m2135 -9 c-6 -5 -21 -11 -35 -15 -21
-5 -20 -3 5 9 35 17 42 18 30 6z m-2185 -11 c-8 -5 -19 -10 -25 -10 -5 0 -3 5
5 10 8 5 20 10 25 10 6 0 3 -5 -5 -10z m-114 -45 c-11 -8 -25 -15 -30 -15 -6
1 0 7 14 15 32 19 40 18 16 0z m-76 -29 c0 -2 -7 -7 -16 -10 -8 -3 -12 -2 -9
4 6 10 25 14 25 6z m2140 -10 c0 -2 -7 -7 -16 -10 -8 -3 -12 -2 -9 4 6 10 25
14 25 6z m-2180 -10 c0 -2 -7 -7 -16 -10 -8 -3 -12 -2 -9 4 6 10 25 14 25 6z
m-45 -16 c-3 -5 -12 -10 -18 -10 -7 0 -6 4 3 10 19 12 23 12 15 0z m-65 -30
c-8 -5 -19 -10 -25 -10 -5 0 -3 5 5 10 8 5 20 10 25 10 6 0 3 -5 -5 -10z m-40
-14 c0 -2 -9 -6 -20 -9 -11 -3 -18 -1 -14 4 5 9 34 13 34 5z m-80 -30 c0 -2
-7 -7 -16 -10 -8 -3 -12 -2 -9 4 6 10 25 14 25 6z m-40 -20 c0 -2 -9 -6 -20
-9 -11 -3 -18 -1 -14 4 5 9 34 13 34 5z m-70 -26 c-8 -5 -19 -10 -25 -10 -5 0
-3 5 5 10 8 5 20 10 25 10 6 0 3 -5 -5 -10z m-40 -14 c0 -2 -7 -7 -16 -10 -8
-3 -12 -2 -9 4 6 10 25 14 25 6z m-134 -55 c-6 -9 -46 -22 -46 -15 0 3 10 9
23 14 29 11 29 11 23 1z m-71 -31 c-3 -5 -12 -10 -18 -10 -7 0 -6 4 3 10 19
12 23 12 15 0z m-65 -30 c-8 -5 -19 -10 -25 -10 -5 0 -3 5 5 10 8 5 20 10 25
10 6 0 3 -5 -5 -10z m-40 -14 c0 -2 -7 -7 -16 -10 -8 -3 -12 -2 -9 4 6 10 25
14 25 6z m-60 -26 c-8 -5 -19 -10 -25 -10 -5 0 -3 5 5 10 8 5 20 10 25 10 6 0
3 -5 -5 -10z m-45 -20 c-3 -5 -12 -10 -18 -10 -7 0 -6 4 3 10 19 12 23 12 15
0z m-45 -20 c-8 -5 -19 -10 -25 -10 -5 0 -3 5 5 10 8 5 20 10 25 10 6 0 3 -5
-5 -10z m-40 -14 c0 -2 -7 -7 -16 -10 -8 -3 -12 -2 -9 4 6 10 25 14 25 6z
m1984 -25 c-11 -10 -40 -53 -64 -95 -24 -41 -45 -74 -47 -72 -3 2 6 21 19 43
13 21 30 51 38 66 16 32 55 77 66 77 4 0 -1 -8 -12 -19z m-2068 -16 c-11 -8
-25 -15 -30 -15 -6 1 0 7 14 15 32 19 40 18 16 0z m-71 -35 c-3 -5 -12 -10
-18 -10 -7 0 -6 4 3 10 19 12 23 12 15 0z m-105 -45 c0 -2 -13 -11 -30 -20
-38 -19 -40 -11 -2 9 31 17 32 18 32 11z m-120 -69 c0 -2 -7 -7 -16 -10 -8 -3
-12 -2 -9 4 6 10 25 14 25 6z m-40 -20 c0 -2 -7 -7 -16 -10 -8 -3 -12 -2 -9 4
6 10 25 14 25 6z m1275 -146 c-3 -5 -12 -10 -18 -10 -7 0 -6 4 3 10 19 12 23
12 15 0z m-36 -14 c-9 -9 -199 -94 -199 -90 0 6 181 93 194 94 5 0 7 -2 5 -4z
m-1529 -30 c0 -2 -8 -10 -17 -17 -16 -13 -17 -12 -4 4 13 16 21 21 21 13z
m-40 -30 c0 -2 -8 -10 -17 -17 -16 -13 -17 -12 -4 4 13 16 21 21 21 13z m-40
-30 c0 -2 -8 -10 -17 -17 -16 -13 -17 -12 -4 4 13 16 21 21 21 13z m1395 -16
c-3 -5 -12 -10 -18 -10 -7 0 -6 4 3 10 19 12 23 12 15 0z m1085 1 c-8 -5 -76
-25 -150 -46 -74 -20 -164 -45 -200 -55 -36 -11 -132 -38 -215 -61 -82 -23
-151 -42 -152 -43 -2 -1 2 -18 8 -37 36 -118 53 -187 77 -319 25 -129 30 -159
37 -235 4 -33 8 -70 10 -82 2 -13 -1 -23 -6 -23 -5 0 -9 17 -10 38 0 20 -2 44
-3 52 -2 8 -6 35 -9 60 -3 25 -9 65 -12 90 -10 71 -63 309 -85 380 -11 36 -20
70 -20 75 0 9 29 19 140 50 216 59 462 128 486 136 17 5 41 12 54 14 12 2 25
7 28 10 3 3 12 5 21 5 14 -1 14 -2 1 -9z m-1120 -16 c0 -2 -13 -11 -30 -20
-38 -19 -40 -11 -2 9 31 17 32 18 32 11z m-1430 -19 c0 -2 -8 -10 -17 -17 -16
-13 -17 -12 -4 4 13 16 21 21 21 13z m1359 -19 c-2 -2 -20 -14 -39 -26 l-35
-23 30 26 c17 14 34 26 39 26 5 0 7 -1 5 -3z m-1399 -10 c0 -2 -10 -12 -22
-23 l-23 -19 19 23 c18 21 26 27 26 19z m-50 -41 c0 -2 -8 -10 -17 -17 -16
-13 -17 -12 -4 4 13 16 21 21 21 13z m1365 -4 c-25 -22 -115 -83 -115 -78 0 6
110 86 119 86 3 0 1 -4 -4 -8z m-1445 -57 c-7 -8 -17 -15 -23 -15 -6 0 -2 7 9
15 25 19 30 19 14 0z m1320 -28 c0 -2 -10 -12 -22 -23 l-23 -19 19 23 c18 21
26 27 26 19z m-1486 -35 c3 -5 -1 -9 -9 -9 -8 0 -12 4 -9 9 3 4 7 8 9 8 2 0 6
-4 9 -8z m36 -2 c0 -5 -5 -10 -11 -10 -5 0 -7 5 -4 10 3 6 8 10 11 10 2 0 4
-4 4 -10z m-87 -7 c-13 -2 -33 -2 -45 0 -13 2 -3 4 22 4 25 0 35 -2 23 -4z
m1379 -102 c-62 -60 -112 -114 -112 -119 0 -5 -7 -13 -16 -16 -25 -10 54 80
145 164 47 44 88 80 90 80 3 0 -46 -49 -107 -109z m-1527 89 c-3 -5 -21 -9
-38 -9 l-32 2 35 7 c19 4 36 8 38 9 2 0 0 -3 -3 -9z m63 3 c-10 -2 -26 -2 -35
0 -10 3 -2 5 17 5 19 0 27 -2 18 -5z m-145 -20 c-7 -2 -19 -2 -25 0 -7 3 -2 5
12 5 14 0 19 -2 13 -5z m-50 -10 c-7 -2 -19 -2 -25 0 -7 3 -2 5 12 5 14 0 19
-2 13 -5z m-46 -9 c-3 -3 -12 -4 -19 -1 -8 3 -5 6 6 6 11 1 17 -2 13 -5z m-70
-20 c-3 -3 -12 -4 -19 -1 -8 3 -5 6 6 6 11 1 17 -2 13 -5z m-40 -10 c-3 -3
-12 -4 -19 -1 -8 3 -5 6 6 6 11 1 17 -2 13 -5z m-47 -14 c-8 -5 -19 -10 -25
-10 -5 0 -3 5 5 10 8 5 20 10 25 10 6 0 3 -5 -5 -10z m-60 -20 c-8 -5 -19 -10
-25 -10 -5 0 -3 5 5 10 8 5 20 10 25 10 6 0 3 -5 -5 -10z m2339 -49 c6 -19 9
-36 7 -38 -2 -2 -11 17 -20 44 -9 26 -12 43 -7 38 4 -6 13 -25 20 -44z m1591
45 c0 -2 -8 -10 -17 -17 -16 -13 -17 -12 -4 4 13 16 21 21 21 13z m-3980 -16
c-8 -5 -19 -10 -25 -10 -5 0 -3 5 5 10 8 5 20 10 25 10 6 0 3 -5 -5 -10z
m3129 -112 c11 -62 23 -122 25 -133 2 -11 12 -90 22 -175 26 -225 25 -624 -2
-845 -8 -62 -23 -158 -29 -185 -2 -8 -4 -23 -4 -33 -1 -10 -6 -15 -11 -12 -6
4 -8 10 -5 14 7 13 33 187 40 271 4 41 9 89 11 105 6 34 6 444 0 520 -6 79
-17 182 -20 202 -2 10 -7 46 -11 78 -4 33 -9 69 -12 80 -2 11 -10 56 -19 100
-8 44 -17 90 -19 103 -3 12 -1 22 4 22 5 0 18 -51 30 -112z m-3204 82 c-3 -5
-12 -10 -18 -10 -7 0 -6 4 3 10 19 12 23 12 15 0z m-35 -14 c0 -2 -7 -7 -16
-10 -8 -3 -12 -2 -9 4 6 10 25 14 25 6z m-45 -26 c-3 -5 -12 -10 -18 -10 -7 0
-6 4 3 10 19 12 23 12 15 0z m4065 -4 c0 -2 -8 -10 -17 -17 -16 -13 -17 -12
-4 4 13 16 21 21 21 13z m-1480 -80 c-1 -6 -7 4 -15 23 -8 18 -15 38 -15 45 1
6 7 -4 15 -23 8 -18 15 -38 15 -45z m-7870 29 c0 -1 -37 -2 -82 -2 l-83 0 70
6 c62 5 95 4 95 -4z m94 3 c-3 -4 -11 -5 -19 -1 -21 7 -19 12 4 10 11 0 18 -5
15 -9z m46 2 c0 -5 -2 -10 -4 -10 -3 0 -8 5 -11 10 -3 6 -1 10 4 10 6 0 11 -4
11 -10z m30 0 c0 -5 -2 -10 -4 -10 -3 0 -8 5 -11 10 -3 6 -1 10 4 10 6 0 11
-4 11 -10z m84 -1 c3 -3 -4 -5 -14 -6 -11 -1 -20 2 -20 7 0 8 25 8 34 -1z
m114 -6 c-10 -2 -26 -2 -35 0 -10 3 -2 5 17 5 19 0 27 -2 18 -5z m4812 2 c0
-2 -10 -9 -22 -15 -22 -11 -22 -10 -4 4 21 17 26 19 26 11z m2037 -67 c-121
-166 -193 -321 -247 -537 -6 -23 -13 -41 -15 -39 -5 5 36 162 58 224 27 75
105 223 158 302 76 111 83 121 92 122 4 0 -17 -33 -46 -72z m-7512 46 c-71 -8
-139 -13 -150 -11 -27 4 157 24 225 24 30 1 -3 -6 -75 -13z m908 9 c-29 -2
-78 -2 -110 0 -32 2 -8 3 52 3 61 0 87 -1 58 -3z m116 -3 c-6 -5 -18 -6 -26
-3 -19 8 -16 11 13 11 17 0 22 -3 13 -8z m169 -7 c-15 -2 -42 -2 -60 0 -18 2
-6 4 27 4 33 0 48 -2 33 -4z m145 -10 c-7 -2 -19 -2 -25 0 -7 3 -2 5 12 5 14
0 19 -2 13 -5z m-1593 -19 c-47 -7 -134 -23 -195 -35 -129 -25 -182 -33 -175
-26 4 4 87 22 205 44 85 15 193 31 220 31 17 0 -8 -7 -55 -14z m1697 10 c-3
-3 -12 -4 -19 -1 -8 3 -5 6 6 6 11 1 17 -2 13 -5z m40 0 c-3 -3 -12 -4 -19 -1
-8 3 -5 6 6 6 11 1 17 -2 13 -5z m3923 2 c0 -2 -8 -10 -17 -17 -16 -13 -17
-12 -4 4 13 16 21 21 21 13z m-3797 -13 c-7 -2 -19 -2 -25 0 -7 3 -2 5 12 5
14 0 19 -2 13 -5z m6587 -74 c12 -45 23 -90 25 -101 2 -11 6 -27 9 -36 9 -28
18 -97 12 -92 -3 3 -8 21 -11 40 -3 19 -8 43 -11 52 -3 9 -7 26 -9 38 -2 11
-13 54 -25 96 -21 79 -22 84 -16 84 2 0 14 -36 26 -81z m-6497 64 c-7 -2 -21
-2 -30 0 -10 3 -4 5 12 5 17 0 24 -2 18 -5z m170 -20 c-7 -2 -19 -2 -25 0 -7
3 -2 5 12 5 14 0 19 -2 13 -5z m150 -20 c-7 -2 -19 -2 -25 0 -7 3 -2 5 12 5
14 0 19 -2 13 -5z m3287 -7 c0 -2 -8 -10 -17 -17 -16 -13 -17 -12 -4 4 13 16
21 21 21 13z m-5940 -10 c0 -3 -26 -10 -57 -17 -32 -7 -62 -13 -68 -15 -51
-11 -196 -49 -265 -70 -47 -14 -116 -35 -155 -47 -117 -35 -481 -170 -631
-235 -173 -74 -458 -213 -596 -291 -57 -31 -110 -60 -118 -64 -8 -4 -31 -17
-50 -28 -190 -114 -265 -161 -387 -242 -77 -52 -139 -89 -137 -83 10 26 421
285 674 425 232 128 769 376 860 396 8 2 49 17 91 34 42 16 141 50 220 76 79
25 160 51 179 57 19 6 116 33 215 59 168 44 225 55 225 45z m5880 -50 c0 -2
-7 -7 -16 -10 -8 -3 -12 -2 -9 4 6 10 25 14 25 6z m-2623 -52 c-3 -3 -12 -4
-19 -1 -8 3 -5 6 6 6 11 1 17 -2 13 -5z m5633 -156 c0 -7 6 -50 14 -95 7 -45
9 -80 5 -77 -5 3 -9 17 -9 32 0 15 -6 55 -14 90 -7 34 -9 62 -4 62 4 0 8 -6 8
-12z m432 -90 c8 -106 9 -408 1 -408 -4 0 -8 73 -9 163 0 89 -3 192 -6 230 -2
37 -1 67 3 67 4 0 9 -24 11 -52z m-400 -123 c3 -14 2 -28 -2 -30 -4 -3 -10 9
-12 25 -5 36 8 40 14 5z m8 -61 c0 -8 -5 -12 -10 -9 -6 4 -8 11 -5 16 9 14 15
11 15 -7z m0 -69 c0 -25 -3 -45 -8 -45 -4 0 -6 20 -4 45 2 25 6 45 8 45 2 0 4
-20 4 -45z m-2 -80 c1 -14 -2 -25 -7 -25 -6 0 -8 36 -2 48 4 7 7 -1 9 -23z
m-3 -67 c-2 -13 -6 -61 -10 -108 -10 -141 -17 -185 -28 -195 -6 -7 -8 -7 -4 0
3 6 8 42 11 80 4 39 9 84 11 100 3 17 5 56 6 88 1 31 6 57 10 57 4 0 6 -10 4
-22z m399 -69 c-9 -140 -17 -208 -49 -389 -33 -184 -41 -215 -110 -440 -26
-84 -75 -213 -88 -228 -6 -8 -11 -17 -10 -18 4 -7 -9 -39 -65 -154 -166 -345
-391 -657 -688 -954 -71 -71 -169 -163 -219 -205 -49 -41 -92 -78 -95 -81 -26
-31 -477 -350 -495 -350 -13 0 22 27 115 90 767 513 1276 1144 1528 1895 37
109 59 184 67 225 2 8 10 42 18 75 15 58 23 103 52 280 3 17 7 54 11 83 3 29
7 65 9 80 2 15 4 53 4 85 1 31 5 57 10 57 5 0 7 -23 5 -51z m-3584 -5 c0 -2
-9 -4 -20 -4 -11 0 -20 4 -20 9 0 5 9 7 20 4 11 -3 20 -7 20 -9z m70 10 c0 -8
-19 -13 -24 -6 -3 5 1 9 9 9 8 0 15 -2 15 -3z m65 -4 c3 -6 -1 -7 -9 -4 -18 7
-21 14 -7 14 6 0 13 -4 16 -10z m30 0 c3 -5 1 -10 -4 -10 -6 0 -11 5 -11 10 0
6 2 10 4 10 3 0 8 -4 11 -10z m75 -6 c0 -2 -7 -4 -15 -4 -8 0 -15 4 -15 10 0
5 7 7 15 4 8 -4 15 -8 15 -10z m-290 3 c-3 -2 -52 -7 -109 -11 -58 -4 -108 -9
-113 -12 -4 -3 -8 -1 -8 5 0 5 21 11 48 13 106 7 186 9 182 5z m358 -4 c-10
-2 -28 -2 -40 0 -13 2 -5 4 17 4 22 1 32 -1 23 -4z m-648 -24 c-223 -34 -401
-74 -567 -127 -68 -22 -123 -36 -123 -31 0 4 19 13 43 20 23 6 83 24 132 39
158 49 454 109 535 108 26 0 20 -3 -20 -9z m897 -5 c-3 -3 -12 -4 -19 -1 -8 3
-5 6 6 6 11 1 17 -2 13 -5z m70 -10 c-3 -3 -12 -4 -19 -1 -8 3 -5 6 6 6 11 1
17 -2 13 -5z m2520 -226 c-3 -8 -6 -5 -6 6 -1 11 2 17 5 13 3 -3 4 -12 1 -19z
m-15 -80 c-8 -8 -9 -4 -5 13 4 13 8 18 11 10 2 -7 -1 -18 -6 -23z m-15 -70
c-3 -8 -6 -5 -6 6 -1 11 2 17 5 13 3 -3 4 -12 1 -19z m-10 -50 c-3 -8 -6 -5
-6 6 -1 11 2 17 5 13 3 -3 4 -12 1 -19z m646 -40 c-63 -270 -110 -423 -196
-628 -50 -120 -118 -263 -123 -258 -2 3 16 45 40 94 24 49 60 132 80 184 21
52 41 104 46 115 35 78 113 354 140 493 7 34 16 62 20 62 4 0 1 -28 -7 -62z
m-832 -501 c-10 -9 -11 -8 -5 6 3 10 9 15 12 12 3 -3 0 -11 -7 -18z m-20 -40
c-10 -9 -11 -8 -5 6 3 10 9 15 12 12 3 -3 0 -11 -7 -18z m-11 -25 c0 -5 -7
-17 -15 -28 -14 -18 -14 -17 -4 9 12 27 19 34 19 19z m-40 -80 c0 -5 -7 -17
-15 -28 -14 -18 -14 -17 -4 9 12 27 19 34 19 19z m-40 -72 c-6 -11 -13 -20
-16 -20 -2 0 0 9 6 20 6 11 13 20 16 20 2 0 0 -9 -6 -20z m-36 -62 c-20 -37
-68 -108 -71 -108 -5 0 1 11 40 73 17 26 32 47 34 47 2 0 1 -6 -3 -12z m-100
-158 c-34 -52 -41 -52 -12 0 13 22 26 40 31 40 4 0 -5 -18 -19 -40z m731 -10
c-9 -16 -18 -30 -21 -30 -2 0 2 14 11 30 9 17 18 30 21 30 2 0 -2 -13 -11 -30z
m-55 -100 c-11 -22 -23 -40 -25 -40 -3 0 4 18 15 40 11 22 23 40 25 40 3 0 -4
-18 -15 -40z m-60 -99 c-5 -11 -15 -23 -21 -27 -6 -3 -3 5 6 20 20 30 30 35
15 7z m-40 -61 c-6 -11 -13 -20 -16 -20 -2 0 0 9 6 20 6 11 13 20 16 20 2 0 0
-9 -6 -20z m-40 -64 c0 -2 -8 -10 -17 -17 -16 -13 -17 -12 -4 4 13 16 21 21
21 13z m-40 -59 c0 -2 -10 -12 -22 -23 l-23 -19 19 23 c18 21 26 27 26 19z
m-60 -81 c0 -2 -8 -10 -17 -17 -16 -13 -17 -12 -4 4 13 16 21 21 21 13z m-107
-131 c-3 -9 -8 -14 -10 -11 -3 3 -2 9 2 15 9 16 15 13 8 -4z"/>
<path d="M24830 21616 c0 -2 8 -10 18 -17 15 -13 16 -12 3 4 -13 16 -21 21
-21 13z"/>
</g>
</svg>
