<?xml version="1.0" standalone="no"?>
<!DOCTYPE svg PUBLIC "-//W3C//DTD SVG 20010904//EN"
 "http://www.w3.org/TR/2001/REC-SVG-20010904/DTD/svg10.dtd">
<svg version="1.0" xmlns="http://www.w3.org/2000/svg"
 width="1921.000000pt" height="1921.000000pt" viewBox="0 0 1921.000000 1921.000000"
 preserveAspectRatio="xMidYMid meet">
<metadata>
Created by potrace 1.11, written by Peter Selinger 2001-2013
</metadata>
<g transform="translate(0.000000,1921.000000) scale(0.100000,-0.100000)"
fill="#000000" stroke="none">
<path d="M12265 16890 c-1212 -98 -2493 -551 -3829 -1352 -577 -346 -1202
-790 -1647 -1169 l-77 -65 -143 -37 c-787 -202 -1296 -456 -2614 -1305 -480
-310 -585 -373 -873 -526 -822 -435 -1869 -793 -2737 -935 -132 -22 -261 -43
-287 -46 -27 -4 -48 -10 -48 -14 0 -13 644 -646 775 -762 874 -775 1809 -1322
2802 -1642 416 -134 841 -220 1167 -235 l141 -7 31 -88 c139 -388 410 -630
786 -702 93 -18 302 -21 388 -6 30 6 111 20 180 31 267 46 615 150 945 283
652 262 1486 709 2222 1189 116 76 127 81 255 113 458 115 922 125 1329 29
l107 -25 -68 -147 c-238 -517 -355 -1042 -337 -1522 8 -213 16 -260 83 -533
31 -125 54 -230 52 -233 -3 -2 -89 24 -192 60 l-186 64 -34 -112 c-19 -61 -47
-150 -62 -198 -14 -49 -28 -88 -30 -88 -101 0 -2834 -156 -2974 -170 -1260
-124 -2306 -499 -3055 -1095 -224 -178 -431 -389 -558 -567 -55 -78 -569 -988
-562 -996 2 -2 210 139 462 313 513 355 656 444 923 574 447 217 886 334 1305
348 196 6 628 -10 825 -32 545 -60 921 -189 1127 -388 69 -66 74 -78 99 -224
10 -59 22 -103 29 -103 6 0 73 25 149 56 252 101 432 137 686 137 114 1 194
-5 260 -17 321 -58 612 -240 722 -452 49 -95 62 -157 55 -273 -8 -147 -68
-305 -177 -466 -27 -38 -277 -333 -558 -655 -280 -322 -508 -587 -506 -588 3
-4 1288 794 1414 878 219 147 452 358 603 545 251 312 407 658 474 1054 25
145 25 542 0 681 -9 52 -15 95 -14 96 1 0 27 8 57 16 l55 15 129 -79 c70 -44
129 -78 130 -76 2 2 57 71 124 155 l122 152 72 22 c591 174 1153 391 1743 673
87 42 160 74 162 72 13 -13 -103 -243 -303 -604 -124 -222 -224 -406 -222
-407 9 -7 882 537 982 611 228 170 444 397 598 629 151 228 286 547 336 796
20 96 20 96 106 205 216 272 370 513 526 825 265 527 437 1110 501 1690 l11
107 122 70 c142 82 206 115 336 170 432 183 955 268 1431 233 228 -17 306 -32
713 -137 203 -52 370 -93 372 -91 8 8 -525 626 -626 727 -330 328 -756 579
-1272 751 -376 125 -835 205 -1281 225 l-157 7 -94 117 c-588 732 -1346 1357
-2193 1807 -166 89 -412 207 -568 273 -256 109 -678 256 -890 310 -49 13 -93
26 -98 30 -11 9 118 201 204 305 370 442 964 765 1680 914 239 49 340 59 954
91 324 17 590 32 592 34 5 5 -1145 432 -1279 475 -263 85 -586 153 -903 192
-135 16 -244 21 -530 24 -198 2 -409 -1 -470 -5z m703 -467 c61 -3 112 -9 112
-12 0 -3 -71 -17 -157 -30 -217 -32 -508 -92 -758 -156 -1300 -331 -2250 -922
-2740 -1702 -30 -48 -54 -88 -52 -89 1 -2 52 6 112 16 534 91 1234 89 1870 -6
1385 -206 2621 -839 3615 -1850 208 -212 305 -319 464 -515 128 -156 134 -165
121 -157 -5 3 -82 47 -170 98 -501 289 -1073 570 -1579 775 -568 230 -1059
373 -1531 445 -179 28 -564 39 -712 20 l-101 -12 -4 -101 c-3 -87 -8 -111 -32
-162 l-29 -60 -8 59 c-29 208 -132 455 -262 632 -53 73 -163 191 -190 206 -17
8 -15 2 11 -43 43 -76 96 -212 123 -316 29 -113 32 -305 6 -401 -34 -125 -77
-197 -77 -129 0 40 -78 252 -128 353 -53 105 -140 234 -200 296 -20 21 -37 36
-39 35 -2 -2 4 -26 12 -54 72 -243 91 -549 49 -790 -15 -91 -70 -267 -101
-327 -18 -35 -18 -35 -18 132 -1 180 -14 269 -62 417 -46 142 -157 339 -229
406 l-26 24 26 -58 c44 -99 83 -237 101 -352 22 -141 16 -378 -14 -505 -44
-192 -147 -426 -198 -449 -133 -63 -300 -114 -463 -143 -101 -18 -460 -17
-560 0 -190 34 -458 119 -503 159 -30 27 -49 71 -41 96 11 37 63 84 123 111
112 50 237 72 481 84 l144 7 -94 37 c-551 217 -1237 327 -1816 289 -584 -38
-1080 -169 -1579 -418 -194 -97 -364 -198 -247 -147 284 125 604 214 771 214
l56 0 -100 -58 c-452 -262 -928 -614 -1285 -948 -331 -310 -641 -498 -1055
-640 -203 -70 -505 -141 -740 -174 -44 -6 -93 -13 -110 -16 -16 -2 13 11 65
31 52 19 167 70 255 114 443 221 810 537 1074 926 73 107 144 225 139 231 -2
1 -39 -37 -82 -86 -142 -161 -374 -356 -578 -486 -225 -144 -553 -280 -801
-333 -159 -34 -321 -49 -687 -62 -678 -24 -960 24 -1420 243 l-125 60 145 34
c501 117 1182 341 1663 545 474 202 842 401 1228 663 926 628 1251 831 1649
1030 390 195 726 317 1185 431 l220 55 145 144 c354 350 523 484 1015 808 873
576 1800 1026 2633 1279 520 158 997 246 1522 282 91 7 458 7 568 0z m-5795
-4379 l46 -7 -85 -51 c-297 -177 -605 -471 -769 -731 l-55 -88 0 49 c0 54 22
157 46 218 8 21 12 41 9 44 -17 17 -175 -56 -253 -118 l-52 -41 -128 -3 c-101
-3 -150 -10 -243 -34 -135 -36 -311 -101 -491 -182 -71 -32 -125 -52 -120 -45
4 8 51 63 105 124 236 265 603 547 931 717 79 41 146 74 150 74 3 0 -17 -28
-44 -62 -56 -69 -96 -144 -106 -198 l-7 -35 60 57 c174 164 459 282 753 311
66 7 207 7 253 1z m9387 -268 c525 -63 975 -204 1310 -412 159 -98 178 -89
-197 -89 -342 0 -417 -7 -673 -56 -784 -150 -1564 -595 -2128 -1214 l-82 -89
-27 26 c-72 67 -234 160 -368 211 -107 42 -208 71 -182 54 11 -7 53 -34 95
-62 158 -103 314 -284 382 -442 62 -146 75 -220 74 -428 0 -160 -3 -206 -22
-295 -114 -521 -470 -1120 -952 -1600 -461 -460 -1217 -866 -2300 -1236 -76
-26 -87 -33 -107 -69 -13 -22 -24 -44 -26 -49 -2 -5 -35 3 -75 19 l-71 28
-228 -73 c-126 -39 -270 -92 -322 -116 -240 -113 -442 -298 -543 -499 -27 -52
-71 -185 -64 -192 2 -2 17 20 34 50 50 89 148 204 230 269 82 66 218 137 232
122 12 -13 66 -195 87 -294 27 -128 24 -388 -5 -538 -30 -148 -80 -299 -141
-425 -50 -103 -137 -247 -150 -247 -3 0 -12 33 -18 73 -48 298 -216 575 -459
754 -264 194 -677 312 -1097 313 -85 0 -87 1 -77 20 19 36 134 152 200 202
150 115 391 204 580 215 l95 6 145 107 c309 229 339 244 1244 609 677 274 987
414 1326 603 158 88 420 262 485 323 l50 46 -45 -24 c-25 -14 -76 -42 -115
-64 -382 -217 -797 -395 -1155 -498 -97 -27 -340 -78 -346 -72 -12 12 112 80
186 102 231 72 473 172 654 271 128 71 356 222 466 310 124 99 334 313 422
431 90 120 180 295 209 408 29 112 30 289 0 400 -27 105 -95 241 -169 340 -75
101 -233 253 -335 323 l-77 54 -98 -33 c-288 -95 -550 -241 -766 -427 -227
-196 -423 -482 -511 -746 l-23 -71 4 75 c28 452 156 840 400 1208 89 133 151
210 251 313 l74 75 -73 42 c-203 115 -453 199 -738 246 -204 34 -301 40 -597
41 -167 0 -303 1 -303 3 0 9 172 112 255 152 204 99 407 151 667 172 366 28
855 -61 1252 -228 44 -18 81 -32 83 -30 10 10 -224 155 -342 211 -264 128
-528 208 -935 283 l-45 8 85 33 c286 112 700 163 1140 141 l215 -11 155 74
c645 310 1382 575 1995 716 326 76 707 135 1025 160 175 14 720 6 880 -13z
m-3654 -3178 c14 -46 19 -94 19 -178 0 -132 -22 -220 -82 -330 -106 -195 -380
-462 -741 -721 -62 -45 -115 -80 -117 -77 -8 8 76 207 163 382 157 320 301
542 495 764 78 89 219 222 236 222 5 0 17 -28 27 -62z m-1068 -410 c-164 -320
-441 -648 -782 -927 -18 -15 -18 -15 -7 8 30 55 235 368 299 454 94 127 231
284 338 388 82 79 194 179 202 179 1 0 -21 -46 -50 -102z m2825 -720 c-94
-311 -251 -606 -425 -805 -69 -79 -165 -167 -156 -143 53 140 90 308 103 467
l7 82 91 79 c51 43 162 151 247 240 85 89 156 162 157 162 1 0 -10 -37 -24
-82z m-4128 -1052 c-402 -142 -722 -303 -968 -486 l-102 -77 -105 -6 c-284
-16 -572 -160 -849 -423 -60 -57 -111 -104 -113 -104 -2 0 -53 29 -113 65
-327 194 -732 320 -1225 382 -181 22 -782 26 -980 5 -205 -21 -462 -60 -638
-97 -91 -19 -167 -33 -169 -31 -7 7 315 97 467 131 168 38 405 76 595 97 188
20 840 17 1030 -5 378 -44 751 -123 1014 -215 l54 -18 71 53 c86 64 278 161
401 201 120 40 299 79 410 90 81 8 97 13 160 52 285 175 690 331 1075 415 154
34 151 30 -15 -29z"/>
<path d="M11487 16165 c-1250 -362 -2363 -1122 -3079 -2101 -78 -107 -208
-306 -208 -318 0 -2 35 9 78 26 566 219 1186 355 1912 420 228 20 976 17 1220
-5 231 -21 518 -59 666 -88 59 -11 108 -18 110 -16 6 6 -194 60 -336 91 -765
167 -1932 164 -2948 -9 -75 -12 -138 -22 -140 -21 -1 2 28 53 65 115 462 773
1431 1455 2698 1897 99 35 173 63 165 63 -8 0 -99 -25 -203 -54z"/>
<path d="M11340 13596 c0 -4 7 -18 16 -31 9 -14 29 -62 45 -107 16 -46 30 -82
31 -82 2 1 44 7 93 15 113 17 441 17 595 0 827 -91 1795 -453 2885 -1079 110
-63 210 -121 222 -130 13 -8 23 -12 23 -9 0 19 -480 327 -755 485 -876 504
-1718 811 -2516 918 -117 16 -639 32 -639 20z"/>
<path d="M16820 11299 c-665 -101 -1369 -329 -2005 -648 -210 -106 -505 -270
-505 -282 0 -4 37 -21 83 -39 172 -67 355 -167 401 -219 60 -67 17 32 -50 116
l-34 41 63 55 c161 140 418 320 624 436 131 74 438 220 578 276 262 104 612
204 910 259 154 29 113 32 -65 5z"/>
</g>
</svg>
