<?xml version="1.0" encoding="utf-8"?>
<!-- Generator: Adobe Illustrator 19.2.1, SVG Export Plug-In . SVG Version: 6.00 Build 0)  -->
<svg version="1.1"
	 id="svg4590" inkscape:version="0.91 r13725" sodipodi:docname="Mechalodons-Logo.svg" xmlns:cc="http://creativecommons.org/ns#" xmlns:dc="http://purl.org/dc/elements/1.1/" xmlns:inkscape="http://www.inkscape.org/namespaces/inkscape" xmlns:rdf="http://www.w3.org/1999/02/22-rdf-syntax-ns#" xmlns:sodipodi="http://sodipodi.sourceforge.net/DTD/sodipodi-0.dtd" xmlns:svg="http://www.w3.org/2000/svg"
	 xmlns="http://www.w3.org/2000/svg" xmlns:xlink="http://www.w3.org/1999/xlink" x="0px" y="0px" viewBox="0 0 3236.5 2461"
	 style="enable-background:new 0 0 3236.5 2461;" xml:space="preserve">
<style type="text/css">
	.st0{fill:#288B83;}
	.st1{fill:#373535;}
	.st2{fill:#61C6C3;}
	.st3{fill:#FFFFFF;}
</style>
<sodipodi:namedview  bordercolor="#666666" borderopacity="1.0" fit-margin-bottom="0" fit-margin-left="0" fit-margin-right="0" fit-margin-top="0" id="base" inkscape:current-layer="g4309" inkscape:cx="2207.7057" inkscape:cy="1653.6663" inkscape:document-units="px" inkscape:pageopacity="0.0" inkscape:pageshadow="2" inkscape:window-height="1057" inkscape:window-maximized="1" inkscape:window-width="1920" inkscape:window-x="1432" inkscape:window-y="-8" inkscape:zoom="0.175" pagecolor="#ffffff" showgrid="false">
	</sodipodi:namedview>
<g id="layer1" transform="translate(2331.4002,608.58966)" inkscape:groupmode="layer" inkscape:label="Layer 1">
	<g id="g4426" transform="matrix(7.5737832,0,0,-7.5737836,-2583.4322,3907.4192)">
		<g id="g4277" transform="translate(429.2401,323.7894)">
			<path id="path4279" inkscape:connector-curvature="0" class="st0" d="M-79.2,54.5c-0.4-0.3-0.8-0.6-1.1-0.9c0,0,0.2-4.9-1.8-10.7
				c-0.2-0.6-0.4-1.2-0.7-1.9c2,2,3.6,4.1,4.9,6.1c2.2,3.6,3.4,7.1,4,9.7c0.3,1.2,0.4,2.2,0.5,3C-75.1,58.1-77.1,56.2-79.2,54.5"/>
		</g>
		<g id="g4281" transform="translate(392.4965,364.1252)">
			<path id="path4283" inkscape:connector-curvature="0" class="st0" d="M-71.8,46.4c-11.2-11.2-17.3-23-19.3-27.2
				c3.5,2.4,11.9,8.6,16.3,14.7C-71.1,39-71.3,43.7-71.8,46.4"/>
		</g>
		<g id="g4285" transform="translate(442.375,411.625)">
			<path id="path4287" inkscape:connector-curvature="0" class="st0" d="M-81.8,36.9c1.8-1.5,2.8-4.2,2.8-4.2c-3,3.5-12,6.5-12,6.5
				c33.3,20.4,63.7,21.6,63.7,21.6C-62.3,56.5-81.8,36.9-81.8,36.9 M-13.4,62.6c-3.2,1.4-6.6,2.6-10,3.6c-13.8,4-29.2,4.3-48.4,1.2
				c-24.3-4-49.7-19.8-49.7-19.8c-3,1.2-6.8,1.8-9.6,2.1c0,0,0,0-0.1,0c0,0-1.7,0.2-4.3,0.4l0,0c-6.4,0.3-18.4,0.3-27.5-4
				c0,0,18.9-2.3,30.1-11.6c0,0-23.2,11.7-43.4,3.3c-1.3-0.5-2.6-1.2-3.8-1.9c-0.5-0.3-1.1-0.6-1.6-1c-0.8-0.5-1.6-1-2.3-1.6
				c0,0,22.3,2.4,37.2-6.6c0.4-0.2,0.7-0.4,1.1-0.6c0,0,2.3-1.5,4-3.1c0,0-9.8-6.1-15.9-19.4c-1.9-4.2-3.5-9.1-4.3-14.7
				c0,0,0.6,2.7,2.5,6.5c3.5,6.7,11.4,17,28.5,21.9c0,0,24.8-14.3,7.2-35.3c-11-13.1-25.7-19.1-35.2-21.7c-1-0.8-1.9-1.4-2.5-1.8
				c7,0.9,19.4,4.3,37.8,15.1c0,0-0.2-0.2-0.6-0.6h0c8.1,6.3,10.9,11.7,11.9,14.1c0.3,0.8,0.4,1.3,0.4,1.3s-0.1-0.5-0.4-1.3
				c-1.2-3.2-5.3-12-16.6-19.9c-14.6-10.2-42-19.2-52.4-25c-8-4.5-14.1-10.3-14.1-10.3c-11.3,1.1-20.9-6.2-20.9-6.2
				s29.1,2.4,36-20.3c0-0.1,0.1-0.2,0.1-0.3c0-0.1,0.1-0.3,0.1-0.4c0.1-0.2,0.1-0.4,0.2-0.7c0.3-1.2,0.5-2.5,0.7-3.9
				c3.8,5.3,6.2,11.2,6.9,17.8c0.2,1.9,0.3,3.7,0.3,5.3c-0.3,3.3-1,7-2.5,10.9c0,0-6.9-1.8-11.2-10.6c0,0,0.7,8.3,10.7,14.4
				c1.5,0.9,3.2,1.8,5.1,2.5l10.1,3.3l3.1-1.3l1.3,2.3c0,0,6.2,1.8,14.7,5.3c11.9,4.8,28.2,12.6,38.4,22.8
				C-84.7-9.7-67.8,22.4-93.7,36c0,0,8.1-1.7,13.8-6.9c0,0,18.8,24.2,51.4,29.4c6.2,1,13,1.3,20.2,0.6C-8.3,59.2-10,60.7-13.4,62.6"
				/>
		</g>
		<g id="g4289" transform="translate(459.75,463.1667)">
			<path id="path4291" inkscape:connector-curvature="0" class="st0" d="M-85.3,26.6c-58.9,36.1-86.9,27.9-86.9,27.9
				c-0.6,2.8-2.1,5.1-2.1,5.1C-131.4,61.8-85.3,26.6-85.3,26.6 M-232.8,30.2c-1.3-0.7-1.9-1.3-2.2-1.9c17.7-7.5,32.8-1,32.8-1
				c9.3,19.4,1.1,29.3,1.1,29.3c2.7-2.6,4.3-5.5,5.3-8.3c-1,4.9-2.9,7.9-2.9,7.9c4.9-5,6.7-11.1,7.3-15.8
				c3.4,12.7-3.3,23.2-3.3,23.2c3.2-2.7,5-6.5,6-9.9c-0.6,4.1-1.6,6.7-1.6,6.7c4.4-4.3,6.6-9.6,7.7-13c1.1,11.5-5.7,19.4-5.7,19.4
				c3.1-2,5-3.8,6.2-5.1c-1,2.2-2,3.6-2,3.6c10.3-8.4,10.9-20.6,10.9-20.6c2.3,3.5,1.3,7.1,1.3,7.1c34.2,5.8,91.5-29.7,91.5-29.7
				c-2.6,3.4-5.3,6.6-8.1,9.7c0,0,0,0,0,0c-0.3,0.3-0.6,0.7-0.9,1c0,0,0,0,0,0c-2.3,2.5-4.6,4.9-7,7.2c-17.7,16.7-39.2,25.4-57.6,30
				c0.1,0,0.3-0.1,0.4-0.1c0,0-44.9,11.3-90.9-7.1c0,0,20.8,39.2,74.6,54.4c0.8,0.2,1.3,0.4,1.3,0.4c-52.4-10.2-97.3-55.6-97.3-55.6
				c-34.4-6-62.5-30.6-90.8-45.1C-377.2,6-395.1,5.2-403.1,5.5c0,0-0.1,0-0.1,0c-0.9-0.2-1.4-0.3-1.4-0.3c0,0,0,0,0.1,0
				c14.8-7.2,20-7.5,41.5-6.4c26.2,1.3,41.3,22.1,41.3,22.1c-12.2-23.6-35.7-30-35.7-30c13.6,1.8,29.2,5,43.2,18.4
				S-283,31.9-283,31.9c-9.6,0-21.1-6.1-21.1-6.1C-261,53-218,32.2-218,32.2S-228,32.7-232.8,30.2"/>
		</g>
		<g id="g4293" transform="translate(168.6133,380.5381)">
			<path id="path4295" inkscape:connector-curvature="0" class="st1" d="M-27.1,43.1l0.6-0.2l0,0.1C-26.7,43.1-26.9,43.1-27.1,43.1"
				/>
		</g>
		<g id="g4297" transform="translate(339.7949,327.2637)">
			<path id="path4299" inkscape:connector-curvature="0" d="M-61.3,53.8l3.9,6.2c5.4,8.4,11,14,15.5,17.6
				C-47,66.2-56,57.9-61.3,53.8 M52.4,124.7c-0.4-7.2-3.4-35.9-25-60.9C26.8,58.9,23.1,40.1,2,27.3L-8.3,21l5.9,10.6
				c0,0.1,2.6,4.8,3.8,10.5c-8.9-4.6-27.7-13.7-48.5-19.4l-4.8-6l-5,3l-5.2-1.4c0.8-3.6,1.8-9.7,0.9-17C-62.5-9.3-68-24.2-86.8-35.9
				l-18.1-11.3l14,16.1c0.1,0.1,6.4,7.6,5.8,15.5c-0.3,3.9-2.2,7.2-5.8,10.1c-14,11.5-32.8,4.2-33,4.1l-3.4-1.4l-0.8,3.4
				c-0.4,0.8-6,12.2-40.8,12.6l-0.4,0c-0.2,0-22.4,2.7-48.7-15.5l-11.2-7.7l6.6,11.9c0.8,1.5,20.9,36.4,91.5,39.7l56.9,3.1l2.5,8.2
				l8.6-3c4.5,3.1,20.1,14.9,25.5,32.9C-43,79.7-51.2,73.3-59,61.1l-4-6.3l-1.8,7.2c-0.2,0.9-4.9,20.5,9.1,46
				c-6,2.1-20.2,5.5-38.9-0.1c-4.9-3.3-47.1-31.1-74.7-34.6c-7.2-1.8-21.7-0.7-26.5,16.3l-0.3,1.1l-5.3,0.2c-2,0.1-48.7,2.2-96.6,51
				l-4.3,4.4l6.1,1c0.4,0.1,38.6,6.4,73,28.7c35.8,23.3,46.1,28.5,67,33.4c3.9,3.4,24.8,21.3,54.2,36.4
				c18.8,9.7,37.2,16.1,54.6,19.2c21.9,3.9,42.3,2.3,60.6-4.5l14.4-5.4l-15.4-0.8c-0.4,0-40.3-2.5-54.6-32c5.4-1.2,15.7-4,28.3-9.8
				c16.5-7.6,40.1-21.9,59.5-47.3c8.2,0.1,42.9-0.9,63.2-24.8l6.6-7.7l-9.8,2.5C105.1,135.1,77.7,141.8,52.4,124.7 M110.2,141.5
				C90,165.1,56.4,167,46.4,167h0c-30.3,39.3-70.1,52.6-85.8,56.5c14.6,26.4,51.3,28.7,51.7,28.7l25,1.3l-23.4,8.8
				c-18.7,7-39.4,8.6-61.7,4.6c-17.6-3.1-36.1-9.6-55.2-19.4c-28.7-14.8-49.5-32.2-54.2-36.3c-20.9-5-31.4-10.4-67.2-33.6
				c-34-22.1-71.8-28.4-72.2-28.4l-10-1.6l7.1-7.2c48.5-49.3,96-51.5,98-51.6l3.8-0.1c5.2-18.1,20.8-19.3,28.7-17.4
				c27.6,3.6,69.2,30.8,75.1,34.8c16.2,4.8,28.7,2.8,35.2,0.8c-13-25.2-8.4-44.5-8.2-45.4l2.3-9l-8.6,3l-2.7-8.9l-55.5-3
				c-71.7-3.3-92.3-39.2-93.1-40.7l-10.7-19.3L-217-3.9c25.6,17.7,47.1,15.1,47.3,15.1l0.3,0l0.3,0c31.9-0.4,38.2-10,38.9-11.2
				l1-5.5l5.9,2.3c0.2,0.1,17.9,6.9,31-3.8c3.1-2.6,4.8-5.4,5.1-8.7c0.6-7.1-5.2-14-5.3-14.1l-22.7-26.1l29.4,18.3
				C-66.3-25.5-60.6-10-59.3,1c0.8,6.4,0.2,11.9-0.5,15.8l2.6,0.7l5.7-3.5l5.5,6.9c17.9,5,34.4,12.4,44.2,17.3
				c-1.1-3.3-2.4-5.6-2.4-5.7l-9.5-17.2L3,25.5c21,12.8,25.4,31.3,26.3,37.3c20.7,24.3,24.4,51.9,25,60.7
				c24.3,15.9,50.3,9.6,50.6,9.5l15.9-4.1L110.2,141.5L110.2,141.5z"/>
		</g>
		<g id="g4301" transform="translate(508.9977,438.7033)">
			<path id="path4303" inkscape:connector-curvature="0" d="M-95.1,31.5c-32.6-5.3-51.4-29.4-51.4-29.4c-5.7,5.1-13.8,6.9-13.8,6.9
				c25.9-13.6,9-45.7-8.5-63.3c-10.2-10.2-26.5-18.1-38.4-22.8c-8.5-3.4-14.7-5.3-14.7-5.3l-1.3-2.3l-3.1,1.3l-10.1-3.3
				c-1.9-0.8-3.6-1.6-5.1-2.5c-10-6.1-10.7-14.4-10.7-14.4C-247.9-94.8-241-93-241-93c1.5-3.9,2.2-7.5,2.5-10.9
				c0-1.7-0.1-3.4-0.3-5.3c-0.8-6.5-3.1-12.4-6.9-17.8c-0.2,1.4-0.4,2.6-0.7,3.9c-0.1,0.2-0.1,0.4-0.2,0.7c0,0.1-0.1,0.3-0.1,0.4
				c0,0.1-0.1,0.2-0.1,0.3c-6.8,22.7-36,20.3-36,20.3c7.4,10.6,20,10,20,10c10.8,7.9,6.3,6.1,36,18c24.9,10,33.8,17.2,36.1,19.3
				c0.4,0.4,0.6,0.6,0.6,0.6c-18.3-10.8-30.7-14.2-37.8-15.1c0.7,0.4,1.5,1,2.5,1.8c9.5,2.6,24.2,8.5,35.2,21.7
				c17.6,21.1-7.2,35.3-7.2,35.3c-17.1-5-25-15.2-28.5-21.9c-2-3.8-2.5-6.5-2.5-6.5c0,0.7,0,1.3,0.1,1.9c0.2,3.3,0.6,6.4,1.3,9.2
				c2.3,10,7.2,17.4,10.7,21.7c2.3,2.8,4,4.3,4,4.3c-0.3,0.2-0.7,0.4-1.1,0.6c-15,9-37.2,6.6-37.2,6.6c0.8,0.6,1.6,1.1,2.3,1.6
				c0.5,0.3,1.1,0.7,1.6,1c1.3,0.7,2.5,1.3,3.8,1.9c20.2,8.5,43.4-3.3,43.4-3.3c-11.2,9.3-30.1,11.6-30.1,11.6
				c9,4.2,21.1,4.3,27.5,3.9l0,0c2.7-0.1,4.3-0.3,4.3-0.3c0,0,0,0,0.1,0c44,21.5,75.2,23.5,95.1,20.3c10.7-1.7,18.1-4.9,22.5-7.4
				c3.4-1.9,5.1-3.3,5.1-3.3C-82.2,32.8-88.9,32.5-95.1,31.5 M-150.7-56.1c-4.7-12.7-11.9-17.8-11.9-17.8c0.3,0.6,0.5,1.3,0.7,1.9
				c2,5.7,1.8,10.7,1.8,10.7c0.4,0.3,0.7,0.6,1.1,0.9c2.1,1.7,4.1,3.6,5.8,5.4c0.5,0.5,0.9,0.9,1.3,1.4c1.8,1.9,3,3.3,3,3.3
				C-149.4-52.4-150-54.3-150.7-56.1 M-288.8-100.3c-14.9,9.8-33.3,11.3-47.7,10.5c-13.9-0.8-24.1-3.8-24.1-3.8
				c4.6,1.7,9.1,2.9,13.6,3.9c32.5,7,58.9-3.4,58.9-3.4c8.9,7.5,21.5,7.8,21.5,7.8c10.3,6.6,21.1,9.4,26.2,10.4c1.9,0.4,3,0.5,3,0.5
				c-0.5-0.1-0.9-0.3-1.4-0.4c-18.6-5.9-26.5-13.5-26.5-13.5C-278.3-87.6-288.8-100.3-288.8-100.3 M-189.1-25.7c0,0,0.5-0.9,0.8-2.4
				c0.6-2.7,0.7-7.4-2.9-12.5c-4.4-6.2-12.8-12.3-16.3-14.7c-1-0.7-1.7-1.1-1.7-1.1S-202.1-36-189.1-25.7 M-353.3,50.3
				c0,0,11.5,6.1,21.1,6.1c0,0-17.2-9.3-31.2-22.7s-29.6-16.6-43.2-18.4c0,0,23.5,6.4,35.7,30c0,0-15.1-20.8-41.3-22.1
				c-21.4-1.1-26.7-0.7-41.5,6.4c0,0,0,0-0.1,0c0,0,0.5,0.1,1.4,0.3c0,0,0.1,0,0.1,0c7.3,1.6,40.7,9.8,65.9,27
				c28.4,19.5,41.9,28.3,68.4,34c0,0,5.1,5.7,14.6,13.6c9.2,6.7,21.6,14.9,36,22.3c22.2,11.4,52.9,22.7,83.7,19.9
				c-17.3-2.3-64.9-11.3-83.6-44.1c0,0,66.9,15.1,122-38.1c2.4-2.3,4.7-4.7,7-7.2c0,0,0,0,0,0c0.3-0.3,0.6-0.7,0.9-1c0,0,0,0,0,0
				c2.7-3,5.4-6.3,8-9.7c0,0-57.3,35.5-91.5,29.7c0,0,0.9-3.6-1.3-7.1c0,0-0.7,12.2-10.9,20.6c0,0,1-1.4,2-3.6
				c1.9-4.2,4-11.3,0.4-17.8c0,0-0.2,1.4-0.9,3.6c-1.1,3.4-3.3,8.8-7.7,13c0,0,1-2.7,1.6-6.7c0.8-5.4,1-13.4-2.8-20.7
				c0,0,0.5,3.1,0,7.4c-0.6,4.7-2.3,10.8-7.3,15.8c0,0,1.8-3,2.9-7.9c1.2-5.6,1.2-13.7-3.9-22.5c0,0-14.9-8.6-34-0.3
				c0,0-2.1,1.2-1.4,2.9c0.3,0.6,0.9,1.2,2.2,1.9c4.7,2.5,14.7,2,14.7,2S-310.2,77.4-353.3,50.3 M-125.3,50.3
				c-37,49.7-90.7,58.1-90.7,58.1c13.6,35.3,58.9,37.6,58.9,37.6c-78,29.3-166.8-51-166.8-51c-21.2-5-31.4-10.2-66.8-33.2
				s-74.2-29.2-74.2-29.2c47.6-48.4,94.5-50,94.5-50c-8.4,2.5-12.1,8.9-12.1,8.9c12.1-4.8,25.1-3.2,25.1-3.2c-6,0.9-10,7.7-10,7.7
				c9.3-5.1,25.3-2,25.3-2c-10.8,0.4-12.7,9.2-12.7,9.2c18.7-7.2,35.3,0.6,35.3,0.6c-15.1,0.5-10.9,9.4-10.9,9.4
				c10.1-5.3,26.9,0,26.9,0c-9.2-0.1-12,5.7-12,5.7c28.9,15.6,57.3-4,57.3-4c-20.5,1.7-30.4-4.1-30.4-4.1c11.9,0.8,8.7-5.3,8.7-5.3
				c-10.4-3.7-21.6-0.8-21.6-0.8c1.5-3.2,10.7-7.3,10.7-7.3c-6.3-2.1-18.8,3.3-18.8,3.3c2.1-4.9,6.8-9.3,6.8-9.3
				c-10.1-0.7-17.7,4.8-17.7,4.8c0.7-6.5,5.9-11.6,5.9-11.6C-324.5-16.2-333-9-333-9c2-7.1,7.9-14,7.9-14
				c-10.8-0.4-19.1,9.3-19.1,9.3c0.1-7.7,4.1-14,4.1-14c-9.7-2.8-21.9,6.7-21.9,6.7c5.2-18.7,22.8-14,22.8-14
				c28.3,3.5,73.9,34.4,73.9,34.4c26.9,8.3,44.9-1.2,44.9-1.2c-15.8-26.2-10.6-46.8-10.6-46.8c13.6,21.4,28.6,25.8,28.6,25.8
				c-4-26.6-29.6-42.2-29.6-42.2l-7,2.4l-2.2-7.2l-59.2-3.2c-69.6-3.2-88.8-38-88.8-38c27.8,19.2,51,16,51,16
				c39.5-0.5,43.8-14.8,43.8-14.8s20.6,8.2,36.2-4.6s0.5-30.2,0.5-30.2c34.3,21.3,22.3,53.6,22.3,53.6l9.7,2.7l3.7-2.3l3.7,4.7
				c28.5,7.6,54.1,22.3,54.1,22.3c0.2-8.7-4.8-17.7-4.8-17.7c22.8,13.9,24,35.1,24,35.1c24.5,27.9,24.9,61.3,24.9,61.3
				C-92.6,34.4-63,26.7-63,26.7C-84.9,52.5-125.3,50.3-125.3,50.3"/>
		</g>
		<g id="g4305" transform="translate(374.8333,517.1667)">
			<path id="path4307" inkscape:connector-curvature="0" d="M-68.3,15.8c-0.1,0-0.3,0.1-0.4,0.1c-32.4,10.7-78,1.7-78,1.7
				C-131.3,46.5-92.3,60.4-81,64c2,0.6,3.2,0.9,3.2,0.9c-1.9-0.4-3.7-0.9-5.5-1.4c0,0,0,0,0,0c0,0-0.5-0.1-1.3-0.4
				C-138.5,48-159.2,8.8-159.2,8.8C-113.2,27.2-68.3,15.8-68.3,15.8"/>
		</g>
		<g id="g4309" transform="translate(348.5,504.4167)">
			<path id="path4311" inkscape:connector-curvature="0" d="M-63,18.4c0,0,1.5-2.3,2.1-5.1c0,0,28.1,8.2,86.9-27.9
				C26-14.6-20.1,20.6-63,18.4"/>
		</g>
		<g id="g4313" transform="translate(445.875,406.3125)">
			<path id="path4315" inkscape:connector-curvature="0" d="M-82.5,38c0,0-1,2.7-2.8,4.2c0,0,19.5,19.6,54.5,23.8
				c0,0-30.4-1.2-63.7-21.6C-94.5,44.5-85.5,41.5-82.5,38"/>
		</g>
		<g id="g4317" transform="translate(293.75,527.5)">
			<path id="path4319" inkscape:connector-curvature="0" class="st2" d="M-52.1,13.8c18.7,32.8,66.3,41.9,83.6,44.1
				C0.7,60.7-29.9,49.4-52.2,38c-14.4-7.4-26.8-15.6-36-22.3c-9.5-7.8-14.6-13.6-14.6-13.6c-26.5-5.7-40-14.5-68.4-34
				c-25.1-17.2-58.5-25.4-65.9-27c8-0.3,25.9,0.5,46.8,11.3C-162-33-134-8.5-99.5-2.4c0,0,44.9,45.4,97.3,55.6c0,0,0,0,0,0
				c1.8,0.5,3.7,1,5.5,1.4c0,0-1.2-0.3-3.2-0.9c-11.4-3.5-50.4-17.5-65.8-46.3c0,0,45.6,9,78-1.7c18.3-4.6,39.8-13.3,57.6-30
				C14.8,28.8-52.1,13.8-52.1,13.8"/>
		</g>
		<g id="g4321" transform="translate(323.1667,509.3334)">
			<path id="path4323" inkscape:connector-curvature="0" class="st2" d="M-58,17.4c0,0,6.6-10.4,3.3-23.2c0.5-4.3,0-7.4,0-7.4
				c3.8,7.3,3.6,15.3,2.8,20.7C-52.9,10.8-54.7,14.7-58,17.4"/>
		</g>
		<g id="g4325" transform="translate(315.0833,500.5)">
			<path id="path4327" inkscape:connector-curvature="0" class="st2" d="M-56.4,19.2c0,0,8.2-9.9-1.1-29.3c0,0-15.1-6.5-32.8,1
				c-0.8-1.7,1.4-2.9,1.4-2.9c19.1-8.3,34,0.3,34,0.3c5.1,8.8,5,16.9,3.9,22.5C-52,13.6-53.7,16.6-56.4,19.2"/>
		</g>
		<g id="g4329" transform="translate(331.1667,513.3334)">
			<path id="path4331" inkscape:connector-curvature="0" class="st2" d="M-59.6,16.6c0,0,6.8-7.9,5.7-19.4c0.7-2.1,0.9-3.6,0.9-3.6
				c3.7,6.5,1.5,13.6-0.4,17.8C-54.5,12.8-56.5,14.6-59.6,16.6"/>
		</g>
		<g id="g4333" transform="translate(478,418)">
			<path id="path4335" inkscape:connector-curvature="0" class="st3" d="M-88.9,35.7c0,0-0.4-33.5-24.9-61.3c0,0-1.2-21.2-24-35.1
				c0,0,5,9,4.8,17.7c0,0-25.6-14.7-54.1-22.3l-3.7-4.7l-3.7,2.3l-9.7-2.7c0,0,11.9-32.3-22.3-53.6c0,0,15.1,17.4-0.5,30.2
				s-36.2,4.6-36.2,4.6s-4.3,14.3-43.8,14.8c0,0-23.2,3.2-51-16c0,0,19.2,34.8,88.8,38l59.2,3.2l2.2,7.2l7-2.4
				c0,0,25.6,15.6,29.6,42.2c0,0-15-4.4-28.6-25.8c0,0-5.2,20.6,10.6,46.8c0,0-18,9.5-44.9,1.2c0,0-45.6-30.9-73.9-34.4
				c0,0-17.6-4.7-22.8,14c0,0,12.1-9.5,21.9-6.7c0,0-4,6.3-4.1,14c0,0,8.3-9.7,19.1-9.3c0,0-5.9,6.9-7.9,14c0,0,8.5-7.2,18.3-6.4
				c0,0-5.2,5.1-5.9,11.6c0,0,7.6-5.5,17.7-4.8c0,0-4.7,4.4-6.8,9.3c0,0,12.5-5.5,18.8-3.3c0,0-9.2,4.1-10.7,7.3
				c0,0,11.2-2.9,21.6,0.8c0,0,3.2,6.1-8.7,5.3c0,0,9.9,5.9,30.4,4.1c0,0-28.4,19.6-57.3,4c0,0,2.8-5.9,12-5.7c0,0-16.8-5.3-26.9,0
				c0,0-4.1-8.9,10.9-9.4c0,0-16.7-7.8-35.3-0.6c0,0,1.9-8.8,12.7-9.2c0,0-16-3.1-25.3,2c0,0,4-6.8,10-7.7c0,0-12.9-1.6-25.1,3.2
				c0,0,3.7-6.4,12.1-8.9c0,0-46.9,1.6-94.5,50c0,0,38.8,6.2,74.2,29.2s45.6,28.2,66.8,33.2c0,0,88.8,80.3,166.8,51
				c0,0-45.3-2.3-58.9-37.6c0,0,53.7-8.3,90.7-58.1c0,0,40.4,2.2,62.3-23.6C-32,47.4-61.6,55.1-88.9,35.7 M-336.5,5.7
				c0.2,0,0.3,0,0.5,0l0-0.1L-336.5,5.7z M-29.6,49.5c-20.3,23.9-55,24.9-63.2,24.8c-19.3,25.4-42.9,39.7-59.5,47.3
				c-12.6,5.8-22.9,8.6-28.3,9.8c14.3,29.6,54.2,32,54.6,32l15.4,0.8l-14.4,5.4c-18.3,6.9-38.7,8.4-60.6,4.5
				c-17.4-3.1-35.8-9.5-54.6-19.2c-29.4-15.1-50.3-33-54.2-36.4c-20.9-5-31.2-10.2-67-33.4c-34.4-22.3-72.6-28.7-73-28.7l-6.1-1
				l4.3-4.4c47.9-48.7,94.7-50.9,96.6-51l5.3-0.2l0.3-1.1c4.7-17,19.3-18.1,26.5-16.3c27.6,3.5,69.8,31.3,74.7,34.6
				c18.7,5.6,33,2.2,38.9,0.1c-14-25.5-9.3-45.2-9.1-46l1.8-7.2l4,6.3c7.8,12.3,16.1,18.7,21.3,21.8c-5.4-18-21-29.9-25.5-32.9
				l-8.6,3l-2.5-8.2l-56.9-3.1c-70.6-3.2-90.6-38.2-91.5-39.7l-6.6-11.9l11.2,7.7c26.3,18.2,48.5,15.5,48.7,15.5l0.4,0
				c34.8-0.4,40.4-11.8,40.8-12.6l0.8-3.4l3.4,1.4c0.2,0.1,19,7.4,33-4.1c3.6-2.9,5.5-6.3,5.8-10.1c0.7-7.9-5.7-15.4-5.8-15.5
				l-14-16.1l18.1,11.3c18.8,11.7,24.2,26.6,25.5,37.1c0.9,7.3-0.1,13.4-0.9,17l5.2,1.4l5-3l4.8,6c20.8,5.7,39.6,14.8,48.5,19.4
				c-1.2-5.7-3.8-10.4-3.8-10.5l-5.9-10.6l10.3,6.3c21.2,12.9,24.8,31.6,25.4,36.5c21.6,25,24.6,53.7,25,60.9
				c25.3,17.1,52.7,10.4,53,10.4l9.8-2.5L-29.6,49.5L-29.6,49.5z"/>
		</g>
		<g id="g4337" transform="translate(380.8367,427.5417)">
			<path id="path4339" inkscape:connector-curvature="0" class="st2" d="M-69.5,33.7c2.9-0.3,6.6-0.9,9.6-2.1
				c0,0,25.4,15.8,49.7,19.8c19.2,3.1,34.5,2.8,48.4-1.2c3.4-1,6.7-2.2,10-3.6c-4.4,2.5-11.9,5.6-22.5,7.4
				C5.7,57.2-25.5,55.3-69.5,33.7"/>
		</g>
		<g id="g4341" transform="translate(357.447,392.5821)">
			<path id="path4343" inkscape:connector-curvature="0" class="st2" d="M-64.8,40.7C-68.4,36.4-73.2,29-75.6,19
				c-0.7-2.9-1.1-5.9-1.3-9.2c0-0.6-0.1-1.3-0.1-1.9c0.8,5.6,2.4,10.5,4.3,14.7c6.1,13.3,15.9,19.4,15.9,19.4c-1.7,1.6-4,3.1-4,3.1
				S-62.5,43.6-64.8,40.7"/>
		</g>
		<g id="g4345" transform="translate(404.875,350.8125)">
			<path id="path4347" inkscape:connector-curvature="0" class="st2" d="M-74.3,49.1c0,0-0.1-0.5-0.4-1.3
				C-74.4,48.6-74.3,49.1-74.3,49.1"/>
		</g>
		<g id="g4349" transform="translate(389.4661,331.5995)">
			<path id="path4351" inkscape:connector-curvature="0" class="st2" d="M-71.2,52.9L-71.2,52.9c-2.3-2.1-11.2-9.3-36.1-19.3
				c-29.7-11.9-25.2-10.1-36-18c0,0-12.6,0.6-20-10c0,0,9.5,7.3,20.8,6.2c0,0,6.2,5.8,14.2,10.3c10.4,5.8,37.8,14.8,52.4,25
				C-64.7,55-60.5,63.8-59.3,67C-60.3,64.6-63.2,59.2-71.2,52.9"/>
		</g>
		<g id="g4353" transform="translate(296.4375,288.75)">
			<path id="path4355" inkscape:connector-curvature="0" class="st2" d="M-52.6,61.5c0,0,7.9,7.6,26.5,13.5c0.4,0.1,0.9,0.3,1.4,0.4
				c0,0-1.1-0.1-3-0.5c-5.1-1-15.9-3.8-26.2-10.4c0,0-12.6-0.3-21.6-7.9c0,0-26.4,10.4-58.9,3.4c-4.4-0.9-9-2.2-13.6-3.9
				c0,0,10.2,3,24.1,3.8c14.4,0.9,32.8-0.7,47.7-10.5C-76.2,49.6-65.7,62.4-52.6,61.5"/>
		</g>
		<g id="g4357" transform="translate(203.125,451.125)">
			<path id="path4359" inkscape:connector-curvature="0" sodipodi:nodetypes="cccccccc" class="st3" d="M-34,29
				c0.6,3.7,3.8,6.4,4.3,6.8c-4.9-1.8-18.6-9.5-27.9-21.5c16.9,8.5,22.4,6.3,22.4,6.3c3.9,3.7,7,3.8,7,3.8c-1.8-3.5-1.5-7.4-1.5-7.4
				C-23,29.8-8.9,37-8.9,37C-25.7,38.8-34,29-34,29"/>
		</g>
		<g id="g4361" transform="translate(208.4659,459.61)">
			<path id="path4363" inkscape:connector-curvature="0" class="st2" d="M-35,27.3C-35,27.4-35,27.4-35,27.3
				C-35,27.4-35,27.4-35,27.3"/>
		</g>
		<g id="g4365" transform="translate(392.4965,364.1252)">
			<path id="path4367" inkscape:connector-curvature="0" class="st2" d="M-71.8,46.4c-0.3,1.5-0.8,2.4-0.8,2.4
				c-12.9-10.3-20.1-30.8-20.1-30.8s0.6,0.4,1.7,1.1C-89.1,23.4-83,35.2-71.8,46.4"/>
		</g>
		<g id="g4369" transform="translate(436.4536,330.5055)">
			<path id="path4371" inkscape:connector-curvature="0" class="st2" d="M-80.6,53.2c-0.1-0.8-0.3-1.8-0.5-3c-0.6-2.6-1.8-6.1-4-9.7
				c-1.3-2-2.9-4.1-4.9-6.1c0,0,7.2,5.1,11.9,17.8c0.7,1.8,1.3,3.7,1.8,5.7c0,0-1.2-1.4-3-3.3C-79.7,54.1-80.2,53.6-80.6,53.2"/>
		</g>
	</g>
</g>
</svg>
