<?xml version="1.0" encoding="UTF-8" standalone="no"?>
<!-- Created with Inkscape (http://www.inkscape.org/) -->

<svg
   xmlns:dc="http://purl.org/dc/elements/1.1/"
   xmlns:cc="http://creativecommons.org/ns#"
   xmlns:rdf="http://www.w3.org/1999/02/22-rdf-syntax-ns#"
   xmlns:svg="http://www.w3.org/2000/svg"
   xmlns="http://www.w3.org/2000/svg"
   xmlns:sodipodi="http://sodipodi.sourceforge.net/DTD/sodipodi-0.dtd"
   xmlns:inkscape="http://www.inkscape.org/namespaces/inkscape"
   width="135.42276mm"
   height="7.6764445mm"
   viewBox="0 0 479.84443 27.2"
   id="svg7136"
   version="1.1"
   inkscape:version="0.91 r13725"
   sodipodi:docname="MECHALODONS.svg">
  <defs
     id="defs7138" />
  <sodipodi:namedview
     id="base"
     pagecolor="#000000"
     bordercolor="#666666"
     borderopacity="1.0"
     inkscape:pageopacity="0"
     inkscape:pageshadow="2"
     inkscape:zoom="2.8"
     inkscape:cx="239.07743"
     inkscape:cy="-1.2880463"
     inkscape:document-units="px"
     inkscape:current-layer="layer1"
     showgrid="false"
     fit-margin-top="0"
     fit-margin-left="0"
     fit-margin-right="0"
     fit-margin-bottom="0"
     inkscape:window-width="1920"
     inkscape:window-height="1057"
     inkscape:window-x="1912"
     inkscape:window-y="-8"
     inkscape:window-maximized="1" />
  <metadata
     id="metadata7141">
    <rdf:RDF>
      <cc:Work
         rdf:about="">
        <dc:format>image/svg+xml</dc:format>
        <dc:type
           rdf:resource="http://purl.org/dc/dcmitype/StillImage" />
        <dc:title></dc:title>
      </cc:Work>
    </rdf:RDF>
  </metadata>
  <g
     inkscape:label="Layer 1"
     inkscape:groupmode="layer"
     id="layer1"
     transform="translate(-132.89287,-438.5171)">
    <g
       transform="translate(10.292868,425.9171)"
       class="st6"
       id="g5463"
       style="fill:#ffffff">
      <path
         inkscape:connector-curvature="0"
         class="st5"
         d="m 160.5,39.5 6.2,-16.7 -16.2,16.7 -7.3,0 -3.9,-16.5 -6.2,16.4 -10.5,0 10,-26.7 16.2,0 2.7,14.1 c 2.2,-2.3 4.5,-4.7 6.7,-7.1 2.3,-2.4 4.4,-4.7 6.6,-7 l 16.1,0 -10,26.7 -10.4,0 z"
         id="path5465"
         style="fill:#ffffff" />
      <path
         inkscape:connector-curvature="0"
         class="st5"
         d="m 212,32.3 -2.7,7.2 -35,0 10,-26.7 35,0 -2.7,7.2 -23.9,0 -1.1,3 -2.4,6.4 -1.1,2.9 23.9,0 z m -18.5,-9.3 16.6,0 -2.4,6.4 -16.6,0 2.4,-6.4 z"
         id="path5467"
         style="fill:#ffffff" />
      <path
         inkscape:connector-curvature="0"
         class="st5"
         d="m 219.9,20.4 c 1,-2.5 2.5,-4.5 4.7,-5.7 2.2,-1.3 5.1,-1.9 8.8,-1.9 l 27,0 -2.8,7.5 -25.9,0 c -0.7,0 -1.2,0.1 -1.6,0.2 -0.4,0.2 -0.6,0.3 -0.7,0.5 l -0.9,2.1 -2.3,6 c -0.1,0.3 -0.2,0.6 -0.3,1 -0.1,0.4 -0.2,0.7 -0.4,1 -0.2,0.6 0.3,0.9 1.6,0.9 l 25.9,0 -2.8,7.4 -27,0 c -3.7,0 -6.1,-0.6 -7.3,-1.9 -1.2,-1.3 -1.4,-3.2 -0.4,-5.7 l 4.4,-11.4 z"
         id="path5469"
         style="fill:#ffffff" />
      <path
         inkscape:connector-curvature="0"
         class="st5"
         d="m 268.3,30 -3.6,9.5 -11,0 10,-26.7 11,0 -3.4,9.1 18.8,0 3.4,-9.1 11,0 -10,26.7 -11,0 3.6,-9.5 -18.8,0 z"
         id="path5471"
         style="fill:#ffffff" />
      <path
         inkscape:connector-curvature="0"
         class="st5"
         d="m 307.8,39.5 -12.5,0 27.6,-26.7 13.2,0 7.3,26.7 -12.4,0 -1.1,-4.3 -13.9,0 6.8,-6.7 5.4,0 c -0.2,-0.7 -0.3,-1.3 -0.5,-1.8 -0.2,-0.6 -0.3,-1.1 -0.5,-1.7 -0.2,-0.6 -0.3,-1.1 -0.5,-1.7 -0.2,-0.6 -0.3,-1.2 -0.5,-1.9 l -18.4,18.1 z"
         id="path5473"
         style="fill:#ffffff" />
      <path
         inkscape:connector-curvature="0"
         class="st5"
         d="m 378.5,32 -2.8,7.4 -31.6,0 10,-26.7 11,0 -7.2,19.3 20.6,0 z"
         id="path5475"
         style="fill:#ffffff" />
      <path
         inkscape:connector-curvature="0"
         class="st5"
         d="m 383.9,19.9 c 0.4,-1.1 1,-2 1.6,-2.8 0.7,-0.8 1.5,-1.5 2.6,-2.1 0.9,-0.6 1.9,-1 3,-1.4 1,-0.3 2.2,-0.6 3.6,-0.7 1.3,-0.1 2.9,-0.2 4.7,-0.2 0.9,0 2,0 3.3,-0.1 1.3,0 2.9,0 4.8,0 1.9,0 3.5,0 4.8,0 1.3,0 2.4,0 3.3,0.1 1.9,0.1 3.3,0.1 4.5,0.2 1.2,0.2 2.2,0.4 3,0.7 0.8,0.3 1.4,0.8 1.9,1.4 0.6,0.7 0.9,1.4 1,2.1 0.1,0.8 -0.1,1.7 -0.5,2.8 l -4.6,12.4 c -0.4,1.1 -1,2.1 -1.6,2.9 -0.6,0.8 -1.5,1.5 -2.6,2.2 l 0,0 c -1,0.6 -1.9,1.1 -3,1.4 -1,0.3 -2.3,0.5 -3.7,0.7 -0.6,0.1 -1.3,0.1 -2.2,0.2 -0.8,0 -1.7,0.1 -2.6,0.1 -0.9,0 -2.1,0 -3.4,0 -1.3,0 -2.9,0 -4.6,0 -1.8,0 -3.3,0 -4.6,0 -1.3,0 -2.4,0 -3.4,0 -1,0 -1.8,-0.1 -2.6,-0.1 -0.8,-0.1 -1.4,-0.1 -2,-0.2 -1.3,-0.2 -2.3,-0.4 -3.1,-0.7 -0.7,-0.3 -1.4,-0.8 -1.9,-1.4 l 0,0 c -0.6,-0.7 -1,-1.4 -1,-2.2 -0.1,-0.8 0.1,-1.7 0.6,-2.9 l 4.7,-12.4 z m 5.9,11.3 c -0.1,0.3 -0.1,0.5 0.2,0.6 0.2,0.1 0.7,0.2 1.5,0.2 l 17.2,0 c 1.4,0 2.3,-0.3 2.5,-0.8 L 415,21 c 0.1,-0.4 0.1,-0.6 -0.2,-0.7 -0.2,-0.1 -0.8,-0.2 -1.5,-0.2 l -17.3,0 c -0.8,0 -1.3,0.1 -1.7,0.2 -0.3,0.2 -0.6,0.4 -0.7,0.7 l -3.8,10.2 z"
         id="path5477"
         style="fill:#ffffff" />
      <path
         inkscape:connector-curvature="0"
         class="st5"
         d="m 431.4,12.8 30.5,0 c 3.7,0 6.1,0.6 7.4,1.9 1.3,1.3 1.4,3.2 0.5,5.7 L 465.5,32 c -0.9,2.5 -2.5,4.4 -4.7,5.7 -2.2,1.3 -5.1,1.9 -8.8,1.9 l -30.5,0 9.9,-26.8 z m 2.3,19.4 0.5,0.6 0.2,-0.6 -0.7,0 z m 0.8,0 19,0 c 1.3,0 2,-0.3 2.2,-0.8 L 459.6,21 c 0.2,-0.5 -0.3,-0.8 -1.6,-0.8 l -19,0 -4.5,12 z"
         id="path5479"
         style="fill:#ffffff" />
      <path
         inkscape:connector-curvature="0"
         class="st5"
         d="m 472,19.9 c 0.4,-1.1 1,-2 1.6,-2.8 0.7,-0.8 1.5,-1.5 2.6,-2.1 0.9,-0.6 1.9,-1 3,-1.4 1.1,-0.4 2.2,-0.6 3.6,-0.7 1.3,-0.1 2.9,-0.2 4.7,-0.2 0.9,0 2,0 3.3,-0.1 1.3,0 2.9,0 4.8,0 1.9,0 3.5,0 4.8,0 1.3,0 2.4,0 3.3,0.1 1.9,0.1 3.3,0.1 4.5,0.2 1.2,0.2 2.2,0.4 3,0.7 0.8,0.3 1.4,0.8 1.9,1.4 0.6,0.7 0.9,1.4 1,2.1 0.1,0.8 -0.1,1.7 -0.5,2.8 L 509,32.3 c -0.4,1.1 -1,2.1 -1.6,2.9 -0.6,0.8 -1.5,1.5 -2.6,2.2 l 0,0 c -1,0.6 -1.9,1.1 -3,1.4 -1,0.3 -2.3,0.5 -3.7,0.7 -0.6,0.1 -1.3,0.1 -2.2,0.2 -0.8,0 -1.7,0.1 -2.6,0.1 -0.9,0 -2.1,0 -3.4,0 -1.3,0 -2.9,0 -4.6,0 -1.8,0 -3.3,0 -4.6,0 -1.3,0 -2.4,0 -3.4,0 -1,0 -1.8,-0.1 -2.6,-0.1 -0.8,-0.1 -1.4,-0.1 -2,-0.2 -1.3,-0.2 -2.3,-0.4 -3.1,-0.7 -0.7,-0.3 -1.4,-0.8 -1.9,-1.4 l 0,0 c -0.6,-0.7 -1,-1.4 -1,-2.2 -0.1,-0.8 0.1,-1.7 0.6,-2.9 L 472,19.9 Z m 5.9,11.3 c -0.1,0.3 -0.1,0.5 0.2,0.6 0.2,0.1 0.7,0.2 1.5,0.2 l 17.2,0 c 1.4,0 2.3,-0.3 2.5,-0.8 l 3.9,-10.3 c 0.1,-0.4 0.1,-0.6 -0.2,-0.7 -0.3,-0.1 -0.8,-0.2 -1.5,-0.2 l -17.4,0 c -0.8,0 -1.3,0.1 -1.7,0.2 -0.3,0.2 -0.6,0.4 -0.7,0.7 l -3.8,10.3 z"
         id="path5481"
         style="fill:#ffffff" />
      <path
         inkscape:connector-curvature="0"
         class="st5"
         d="m 526,21.5 -6.7,17.9 -10.5,0 10,-26.6 16.7,0 10.7,17.8 6.7,-17.8 10.5,0 -10,26.6 -16.6,0 L 526,21.5 Z"
         id="path5483"
         style="fill:#ffffff" />
      <path
         inkscape:connector-curvature="0"
         class="st5"
         d="m 567.9,29.4 c -2.7,-0.1 -4.5,-0.8 -5.3,-2.2 -0.9,-1.3 -0.8,-3.3 0.2,-6 1.1,-2.8 2.5,-5 4.4,-6.4 1.9,-1.4 4.4,-2.1 7.4,-2.1 l 23.1,0 c 1,0.1 1.9,0.2 2.7,0.5 0.6,0.3 1.2,0.6 1.6,1.2 0.4,0.5 0.6,1.3 0.3,2.3 l -1,2.7 -24.1,0 c -0.8,0 -1.5,0.1 -2.2,0.3 -0.7,0.2 -1.2,0.7 -1.4,1.3 -0.2,0.6 -0.1,1 0.4,1.3 0.5,0.3 1.2,0.4 2.2,0.4 l 16.9,0 c 1.6,0 2.9,0.3 3.9,0.8 1,0.5 1.6,1.2 2,2.1 l 0,0 c 0.3,1.5 0.1,3.2 -0.7,5.3 -1.1,2.9 -2.7,5.1 -4.8,6.4 -2.1,1.3 -4.9,2 -8.4,2 l -22,0 c -1.6,0 -2.7,-0.2 -3.4,-0.7 -0.7,-0.4 -1.1,-0.9 -1.3,-1.5 -0.2,-0.6 -0.2,-1.3 0,-2.2 l 0.9,-2.5 24.2,0 c 0.8,0 1.6,-0.1 2.4,-0.4 0.8,-0.3 1.3,-0.7 1.5,-1.3 0.2,-0.5 0.1,-0.8 -0.2,-1 -0.3,-0.2 -0.8,-0.4 -1.5,-0.5 -0.7,-0.1 -1.4,-0.1 -2.3,-0.1 -0.9,0 -1.8,0 -2.8,0 l -12.7,0.3 z"
         id="path5485"
         style="fill:#ffffff" />
    </g>
  </g>
</svg>
